<svg width="192" height="61" viewBox="0 0 192 61" fill="none" xmlns="http://www.w3.org/2000/svg">
<rect x="8" y="39" width="87" height="16" rx="5" fill="#81B29A"/>
<path d="M38.7539 49.8477C38.5664 49.9232 38.3724 49.9792 38.1719 50.0156C37.9714 50.0521 37.7617 50.0703 37.543 50.0703C37.2279 50.0703 36.9453 50.0273 36.6953 49.9414C36.4453 49.8555 36.2331 49.7279 36.0586 49.5586C35.8841 49.3893 35.75 49.1797 35.6562 48.9297C35.5651 48.6797 35.5195 48.3906 35.5195 48.0625C35.5195 47.7448 35.569 47.457 35.668 47.1992C35.7695 46.9414 35.9115 46.7214 36.0938 46.5391C36.276 46.3568 36.4948 46.2161 36.75 46.1172C37.0078 46.0182 37.2943 45.9688 37.6094 45.9688C37.8672 45.9688 38.0833 45.9831 38.2578 46.0117C38.4349 46.0378 38.5938 46.0716 38.7344 46.1133V47.0391C38.5729 46.9583 38.3971 46.8958 38.207 46.8516C38.0195 46.8073 37.8411 46.7852 37.6719 46.7852C37.4948 46.7852 37.3359 46.8151 37.1953 46.875C37.0547 46.9349 36.9362 47.0182 36.8398 47.125C36.7435 47.2318 36.6693 47.362 36.6172 47.5156C36.5677 47.6667 36.543 47.8333 36.543 48.0156C36.543 48.2057 36.5703 48.3763 36.625 48.5273C36.6797 48.6784 36.7565 48.8073 36.8555 48.9141C36.957 49.0182 37.0781 49.099 37.2188 49.1562C37.3594 49.2109 37.5156 49.2383 37.6875 49.2383C37.7708 49.2383 37.8581 49.2331 37.9492 49.2227C38.043 49.2096 38.1354 49.1927 38.2266 49.1719C38.3203 49.1484 38.4115 49.1224 38.5 49.0938C38.5911 49.0651 38.6758 49.0339 38.7539 49V49.8477ZM43.699 47.9844C43.699 48.2969 43.6547 48.5833 43.5661 48.8438C43.4776 49.1016 43.35 49.3229 43.1833 49.5078C43.0167 49.6927 42.8122 49.8359 42.5701 49.9375C42.3279 50.0391 42.0518 50.0898 41.7419 50.0898C41.4477 50.0898 41.1846 50.0469 40.9529 49.9609C40.7211 49.875 40.5245 49.7474 40.363 49.5781C40.2016 49.4062 40.0779 49.1927 39.9919 48.9375C39.906 48.6797 39.863 48.3802 39.863 48.0391C39.863 47.724 39.9073 47.4375 39.9958 47.1797C40.087 46.9219 40.2159 46.7018 40.3826 46.5195C40.5518 46.3372 40.7576 46.1966 40.9997 46.0977C41.2419 45.9961 41.5154 45.9453 41.8201 45.9453C42.1169 45.9453 42.3813 45.9896 42.613 46.0781C42.8448 46.1641 43.0414 46.293 43.2029 46.4648C43.3643 46.6367 43.4867 46.8503 43.5701 47.1055C43.656 47.3581 43.699 47.651 43.699 47.9844ZM42.7068 48.0078C42.7068 47.5964 42.6286 47.2878 42.4724 47.082C42.3188 46.8737 42.0909 46.7695 41.7888 46.7695C41.6221 46.7695 41.4802 46.8021 41.363 46.8672C41.2458 46.9323 41.1495 47.0221 41.074 47.1367C40.9984 47.2487 40.9424 47.3802 40.906 47.5312C40.8721 47.6823 40.8552 47.8438 40.8552 48.0156C40.8552 48.4297 40.9385 48.7422 41.1052 48.9531C41.2719 49.1615 41.4997 49.2656 41.7888 49.2656C41.9477 49.2656 42.0857 49.2344 42.2029 49.1719C42.3201 49.1068 42.4151 49.0182 42.488 48.9062C42.5609 48.7917 42.6156 48.6576 42.6521 48.5039C42.6885 48.3503 42.7068 48.1849 42.7068 48.0078ZM45.6518 46.0312V48.6172C45.6518 48.8333 45.6922 48.9974 45.7729 49.1094C45.8536 49.2188 45.976 49.2734 46.1401 49.2734C46.299 49.2734 46.4513 49.2083 46.5971 49.0781C46.7456 48.9453 46.9018 48.7669 47.0659 48.543V46.0312H48.019V50H47.1948L47.1714 49.4141C47.088 49.5156 47.0034 49.6081 46.9174 49.6914C46.8315 49.7747 46.7378 49.8464 46.6362 49.9062C46.5372 49.9635 46.4279 50.0078 46.3081 50.0391C46.1909 50.0729 46.0607 50.0898 45.9174 50.0898C45.7143 50.0898 45.5359 50.0573 45.3823 49.9922C45.2313 49.9245 45.1049 49.8294 45.0034 49.707C44.9018 49.5846 44.825 49.4388 44.7729 49.2695C44.7234 49.0977 44.6987 48.9062 44.6987 48.6953V46.0312H45.6518ZM51.6555 50V47.4141C51.6555 46.9792 51.494 46.7617 51.1711 46.7617C51.0096 46.7617 50.8547 46.8268 50.7063 46.957C50.5604 47.0872 50.4055 47.2643 50.2414 47.4883V50H49.2883V46.0312H50.1125L50.1359 46.6172C50.2167 46.5156 50.3 46.4232 50.3859 46.3398C50.4745 46.2565 50.5695 46.1862 50.6711 46.1289C50.7727 46.069 50.882 46.0234 50.9992 45.9922C51.1164 45.9609 51.2479 45.9453 51.3938 45.9453C51.5969 45.9453 51.774 45.9792 51.925 46.0469C52.076 46.112 52.2023 46.2057 52.3039 46.3281C52.4055 46.4479 52.481 46.5938 52.5305 46.7656C52.5826 46.9349 52.6086 47.125 52.6086 47.3359V50H51.6555ZM57.1435 49.9609C56.9716 50 56.7984 50.0312 56.624 50.0547C56.4495 50.0781 56.2841 50.0898 56.1279 50.0898C55.8674 50.0898 55.6422 50.0625 55.4521 50.0078C55.2646 49.9531 55.1083 49.8698 54.9833 49.7578C54.8609 49.6458 54.7698 49.5039 54.7099 49.332C54.6526 49.1576 54.624 48.9505 54.624 48.7109V46.7734H53.5576V46.0312H54.624V45.0156L55.6005 44.7617V46.0312H57.1435V46.7734H55.6005V48.6406C55.6005 48.8672 55.6526 49.0391 55.7568 49.1562C55.8609 49.2708 56.0354 49.3281 56.2802 49.3281C56.4365 49.3281 56.5888 49.3151 56.7372 49.2891C56.8857 49.263 57.0211 49.2331 57.1435 49.1992V49.9609ZM61.9089 47.7109C61.9089 47.776 61.9063 47.8607 61.901 47.9648C61.8984 48.069 61.8932 48.1667 61.8854 48.2578H59.276C59.276 48.4323 59.3021 48.5859 59.3542 48.7188C59.4089 48.8516 59.4844 48.9635 59.5807 49.0547C59.6797 49.1432 59.7969 49.2109 59.9323 49.2578C60.0703 49.3047 60.2227 49.3281 60.3893 49.3281C60.582 49.3281 60.7878 49.3138 61.0065 49.2852C61.2279 49.2539 61.457 49.2044 61.694 49.1367V49.8945C61.5924 49.9232 61.4818 49.9492 61.362 49.9727C61.2422 49.9961 61.1198 50.0169 60.9948 50.0352C60.8698 50.0534 60.7435 50.0664 60.6159 50.0742C60.4883 50.0846 60.3646 50.0898 60.2448 50.0898C59.9427 50.0898 59.6719 50.0469 59.4323 49.9609C59.1927 49.875 58.9896 49.7487 58.8229 49.582C58.6563 49.4128 58.5286 49.2044 58.4401 48.957C58.3516 48.7096 58.3073 48.4232 58.3073 48.0977C58.3073 47.7747 58.3516 47.4818 58.4401 47.2188C58.5286 46.9531 58.6536 46.7266 58.8151 46.5391C58.9766 46.349 59.1719 46.2031 59.401 46.1016C59.6328 45.9974 59.8906 45.9453 60.1745 45.9453C60.4557 45.9453 60.7044 45.9896 60.9206 46.0781C61.1367 46.1641 61.3177 46.2852 61.4635 46.4414C61.6094 46.5977 61.7201 46.7839 61.7956 47C61.8711 47.2161 61.9089 47.4531 61.9089 47.7109ZM60.9401 47.5742C60.9427 47.418 60.9232 47.2826 60.8815 47.168C60.8398 47.0508 60.7826 46.9544 60.7096 46.8789C60.6393 46.8034 60.556 46.7474 60.4596 46.7109C60.3659 46.6745 60.2643 46.6562 60.1549 46.6562C59.9154 46.6562 59.7188 46.737 59.5651 46.8984C59.4115 47.0573 59.3203 47.2826 59.2917 47.5742H60.9401ZM65.5883 47.5742C65.5935 47.4258 65.5857 47.2995 65.5648 47.1953C65.5466 47.0911 65.5154 47.0052 65.4711 46.9375C65.4294 46.8698 65.3773 46.8203 65.3148 46.7891C65.2523 46.7578 65.1807 46.7422 65.1 46.7422C64.9594 46.7422 64.8135 46.8008 64.6625 46.918C64.5141 47.0326 64.35 47.2227 64.1703 47.4883V50H63.1938V46.0312H64.057L64.0922 46.6094C64.1573 46.5078 64.2302 46.4167 64.3109 46.3359C64.3943 46.2552 64.4854 46.1862 64.5844 46.1289C64.6859 46.069 64.7979 46.0234 64.9203 45.9922C65.0427 45.9609 65.1768 45.9453 65.3227 45.9453C65.5232 45.9453 65.7003 45.9805 65.8539 46.0508C66.0102 46.1185 66.1404 46.2201 66.2445 46.3555C66.3513 46.4909 66.4294 46.6615 66.4789 46.8672C66.531 47.0703 66.5531 47.306 66.5453 47.5742H65.5883Z" fill="#454D58"/>
<rect x="96" y="39" width="87" height="16" rx="5" fill="#83C5BE"/>
<path d="M129.801 50H128.742L128.32 48.7422L128.191 48.3047L128.062 48.7539L127.656 50H126.594L126.031 46.0312H126.938L127.223 48.2734L127.289 48.8867L127.449 48.3359L127.848 47.1289H128.574L129 48.3281L129.184 48.8945L129.258 48.2656L129.496 46.0312H130.359L129.801 50ZM133.613 50L133.59 49.4805C133.506 49.569 133.419 49.651 133.328 49.7266C133.237 49.7995 133.136 49.8633 133.027 49.918C132.918 49.9727 132.798 50.0143 132.668 50.043C132.54 50.0742 132.399 50.0898 132.246 50.0898C132.043 50.0898 131.864 50.0599 131.711 50C131.557 49.9401 131.428 49.8568 131.324 49.75C131.22 49.6432 131.14 49.5143 131.086 49.3633C131.034 49.2122 131.008 49.0456 131.008 48.8633C131.008 48.6758 131.047 48.5026 131.125 48.3438C131.205 48.1849 131.327 48.0482 131.488 47.9336C131.652 47.819 131.855 47.7292 132.097 47.6641C132.342 47.599 132.629 47.5664 132.957 47.5664H133.476V47.3281C133.476 47.2266 133.462 47.1354 133.433 47.0547C133.405 46.9714 133.358 46.901 133.293 46.8438C133.23 46.7865 133.148 46.7422 133.047 46.7109C132.945 46.6797 132.82 46.6641 132.672 46.6641C132.437 46.6641 132.205 46.6914 131.976 46.7461C131.75 46.7982 131.53 46.8724 131.316 46.9688V46.207C131.506 46.1315 131.725 46.069 131.972 46.0195C132.222 45.9701 132.482 45.9453 132.75 45.9453C133.044 45.9453 133.297 45.974 133.508 46.0312C133.718 46.0859 133.892 46.1693 134.027 46.2812C134.165 46.3932 134.267 46.5339 134.332 46.7031C134.397 46.8698 134.429 47.0651 134.429 47.2891V50H133.613ZM133.476 48.2461H132.894C132.733 48.2461 132.596 48.2617 132.484 48.293C132.372 48.3242 132.281 48.3672 132.211 48.4219C132.14 48.4766 132.088 48.5404 132.054 48.6133C132.023 48.6836 132.008 48.7591 132.008 48.8398C132.008 49.0013 132.06 49.125 132.164 49.2109C132.268 49.2943 132.41 49.3359 132.59 49.3359C132.722 49.3359 132.86 49.2878 133.004 49.1914C133.147 49.0951 133.304 48.957 133.476 48.7773V48.2461ZM138.042 44.9453C138.042 45.0312 138.027 45.112 137.996 45.1875C137.964 45.263 137.92 45.3294 137.863 45.3867C137.808 45.4414 137.743 45.4857 137.667 45.5195C137.592 45.5508 137.51 45.5664 137.421 45.5664C137.333 45.5664 137.249 45.5508 137.171 45.5195C137.096 45.4857 137.029 45.4414 136.972 45.3867C136.917 45.3294 136.874 45.263 136.843 45.1875C136.812 45.112 136.796 45.0312 136.796 44.9453C136.796 44.8594 136.812 44.7786 136.843 44.7031C136.874 44.6276 136.917 44.5612 136.972 44.5039C137.029 44.4466 137.096 44.4023 137.171 44.3711C137.249 44.3372 137.333 44.3203 137.421 44.3203C137.51 44.3203 137.592 44.3372 137.667 44.3711C137.743 44.4023 137.808 44.4466 137.863 44.5039C137.92 44.5612 137.964 44.6276 137.996 44.7031C138.027 44.7786 138.042 44.8594 138.042 44.9453ZM136.988 46.7734H135.867V46.0312H137.964V49.2578H139.109V50H135.73V49.2578H136.988V46.7734ZM143.562 49.9609C143.39 50 143.217 50.0312 143.042 50.0547C142.868 50.0781 142.702 50.0898 142.546 50.0898C142.286 50.0898 142.06 50.0625 141.87 50.0078C141.683 49.9531 141.527 49.8698 141.402 49.7578C141.279 49.6458 141.188 49.5039 141.128 49.332C141.071 49.1576 141.042 48.9505 141.042 48.7109V46.7734H139.976V46.0312H141.042V45.0156L142.019 44.7617V46.0312H143.562V46.7734H142.019V48.6406C142.019 48.8672 142.071 49.0391 142.175 49.1562C142.279 49.2708 142.454 49.3281 142.698 49.3281C142.855 49.3281 143.007 49.3151 143.155 49.2891C143.304 49.263 143.439 49.2331 143.562 49.1992V49.9609ZM148.327 47.7109C148.327 47.776 148.324 47.8607 148.319 47.9648C148.317 48.069 148.311 48.1667 148.304 48.2578H145.694C145.694 48.4323 145.72 48.5859 145.772 48.7188C145.827 48.8516 145.903 48.9635 145.999 49.0547C146.098 49.1432 146.215 49.2109 146.351 49.2578C146.489 49.3047 146.641 49.3281 146.808 49.3281C147 49.3281 147.206 49.3138 147.425 49.2852C147.646 49.2539 147.875 49.2044 148.112 49.1367V49.8945C148.011 49.9232 147.9 49.9492 147.78 49.9727C147.66 49.9961 147.538 50.0169 147.413 50.0352C147.288 50.0534 147.162 50.0664 147.034 50.0742C146.907 50.0846 146.783 50.0898 146.663 50.0898C146.361 50.0898 146.09 50.0469 145.851 49.9609C145.611 49.875 145.408 49.7487 145.241 49.582C145.074 49.4128 144.947 49.2044 144.858 48.957C144.77 48.7096 144.726 48.4232 144.726 48.0977C144.726 47.7747 144.77 47.4818 144.858 47.2188C144.947 46.9531 145.072 46.7266 145.233 46.5391C145.395 46.349 145.59 46.2031 145.819 46.1016C146.051 45.9974 146.309 45.9453 146.593 45.9453C146.874 45.9453 147.123 45.9896 147.339 46.0781C147.555 46.1641 147.736 46.2852 147.882 46.4414C148.028 46.5977 148.138 46.7839 148.214 47C148.289 47.2161 148.327 47.4531 148.327 47.7109ZM147.358 47.5742C147.361 47.418 147.341 47.2826 147.3 47.168C147.258 47.0508 147.201 46.9544 147.128 46.8789C147.058 46.8034 146.974 46.7474 146.878 46.7109C146.784 46.6745 146.683 46.6562 146.573 46.6562C146.334 46.6562 146.137 46.737 145.983 46.8984C145.83 47.0573 145.739 47.2826 145.71 47.5742H147.358ZM152.007 47.5742C152.012 47.4258 152.004 47.2995 151.983 47.1953C151.965 47.0911 151.934 47.0052 151.889 46.9375C151.848 46.8698 151.796 46.8203 151.733 46.7891C151.671 46.7578 151.599 46.7422 151.518 46.7422C151.378 46.7422 151.232 46.8008 151.081 46.918C150.932 47.0326 150.768 47.2227 150.589 47.4883V50H149.612V46.0312H150.475L150.51 46.6094C150.576 46.5078 150.648 46.4167 150.729 46.3359C150.813 46.2552 150.904 46.1862 151.003 46.1289C151.104 46.069 151.216 46.0234 151.339 45.9922C151.461 45.9609 151.595 45.9453 151.741 45.9453C151.941 45.9453 152.118 45.9805 152.272 46.0508C152.428 46.1185 152.559 46.2201 152.663 46.3555C152.77 46.4909 152.848 46.6615 152.897 46.8672C152.949 47.0703 152.971 47.306 152.964 47.5742H152.007Z" fill="#454D58"/>
<path d="M86.8789 2.94531C86.8789 3.03125 86.8633 3.11198 86.832 3.1875C86.8008 3.26302 86.7565 3.32943 86.6992 3.38672C86.6445 3.44141 86.5794 3.48568 86.5039 3.51953C86.4284 3.55078 86.3464 3.56641 86.2578 3.56641C86.1693 3.56641 86.0859 3.55078 86.0078 3.51953C85.9323 3.48568 85.8659 3.44141 85.8086 3.38672C85.7539 3.32943 85.7109 3.26302 85.6797 3.1875C85.6484 3.11198 85.6328 3.03125 85.6328 2.94531C85.6328 2.85938 85.6484 2.77865 85.6797 2.70312C85.7109 2.6276 85.7539 2.5612 85.8086 2.50391C85.8659 2.44661 85.9323 2.40234 86.0078 2.37109C86.0859 2.33724 86.1693 2.32031 86.2578 2.32031C86.3464 2.32031 86.4284 2.33724 86.5039 2.37109C86.5794 2.40234 86.6445 2.44661 86.6992 2.50391C86.7565 2.5612 86.8008 2.6276 86.832 2.70312C86.8633 2.77865 86.8789 2.85938 86.8789 2.94531ZM85.8242 4.77344H84.7031V4.03125H86.8008V7.25781H87.9453V8H84.5664V7.25781H85.8242V4.77344ZM91.4919 8V5.41406C91.4919 4.97917 91.3305 4.76172 91.0076 4.76172C90.8461 4.76172 90.6911 4.82682 90.5427 4.95703C90.3969 5.08724 90.2419 5.26432 90.0779 5.48828V8H89.1247V4.03125H89.949L89.9724 4.61719C90.0531 4.51562 90.1365 4.42318 90.2224 4.33984C90.3109 4.25651 90.406 4.1862 90.5076 4.12891C90.6091 4.06901 90.7185 4.02344 90.8357 3.99219C90.9529 3.96094 91.0844 3.94531 91.2302 3.94531C91.4333 3.94531 91.6104 3.97917 91.7615 4.04688C91.9125 4.11198 92.0388 4.20573 92.1404 4.32812C92.2419 4.44792 92.3174 4.59375 92.3669 4.76562C92.419 4.9349 92.4451 5.125 92.4451 5.33594V8H91.4919ZM96.9799 7.96094C96.8081 8 96.6349 8.03125 96.4604 8.05469C96.2859 8.07812 96.1206 8.08984 95.9643 8.08984C95.7039 8.08984 95.4786 8.0625 95.2885 8.00781C95.101 7.95312 94.9448 7.86979 94.8198 7.75781C94.6974 7.64583 94.6063 7.50391 94.5464 7.33203C94.4891 7.15755 94.4604 6.95052 94.4604 6.71094V4.77344H93.394V4.03125H94.4604V3.01562L95.437 2.76172V4.03125H96.9799V4.77344H95.437V6.64062C95.437 6.86719 95.4891 7.03906 95.5932 7.15625C95.6974 7.27083 95.8719 7.32812 96.1167 7.32812C96.2729 7.32812 96.4253 7.3151 96.5737 7.28906C96.7221 7.26302 96.8576 7.23307 96.9799 7.19922V7.96094ZM101.843 6.38281C101.843 6.64062 101.796 6.875 101.702 7.08594C101.609 7.29427 101.478 7.47396 101.312 7.625C101.148 7.77344 100.951 7.88802 100.722 7.96875C100.493 8.04948 100.241 8.08984 99.968 8.08984C99.3716 8.08984 98.9159 7.90234 98.6008 7.52734C98.2857 7.15234 98.1281 6.57943 98.1281 5.80859C98.1281 5.52734 98.1451 5.26042 98.1789 5.00781C98.2128 4.7526 98.2688 4.51823 98.3469 4.30469C98.4276 4.08854 98.5344 3.89323 98.6672 3.71875C98.8026 3.54427 98.9706 3.39714 99.1711 3.27734C99.3716 3.15495 99.6086 3.0612 99.882 2.99609C100.155 2.92839 100.473 2.89453 100.835 2.89453H101.417V3.70312H100.738C100.456 3.70312 100.221 3.73177 100.03 3.78906C99.8404 3.84635 99.6854 3.92839 99.5656 4.03516C99.4458 4.14193 99.356 4.27214 99.2961 4.42578C99.2362 4.57943 99.1971 4.7526 99.1789 4.94531L99.1711 5.03906C99.3065 4.97396 99.4602 4.92057 99.632 4.87891C99.8065 4.83724 99.9888 4.81641 100.179 4.81641C100.455 4.81641 100.697 4.85286 100.905 4.92578C101.114 4.99609 101.287 5.09896 101.425 5.23438C101.566 5.36979 101.67 5.53385 101.738 5.72656C101.808 5.91927 101.843 6.13802 101.843 6.38281ZM100.851 6.42578C100.851 6.30599 100.835 6.19661 100.804 6.09766C100.773 5.99609 100.723 5.91016 100.655 5.83984C100.59 5.76693 100.506 5.71094 100.402 5.67188C100.3 5.63021 100.178 5.60938 100.034 5.60938C99.951 5.60938 99.8677 5.61719 99.7844 5.63281C99.7036 5.64583 99.6242 5.66406 99.5461 5.6875C99.4706 5.71094 99.3977 5.73698 99.3273 5.76562C99.2596 5.79427 99.1984 5.82422 99.1438 5.85547C99.1438 6.11849 99.162 6.34115 99.1984 6.52344C99.2349 6.70312 99.2896 6.85026 99.3625 6.96484C99.438 7.07943 99.5305 7.16276 99.6398 7.21484C99.7518 7.26432 99.8807 7.28906 100.027 7.28906C100.152 7.28906 100.265 7.26823 100.366 7.22656C100.468 7.1849 100.554 7.1263 100.624 7.05078C100.697 6.97266 100.753 6.88151 100.792 6.77734C100.831 6.67057 100.851 6.55339 100.851 6.42578ZM105.784 6.96094V8H104.854V6.96094H102.479V6.14453L104.472 2.89453H105.784V6.12109H106.558V6.96094H105.784ZM104.866 3.81641L103.413 6.12109H104.866V3.81641Z" fill="#454D58"/>
<path d="M124.824 29.2227H123.703V28.4805H125.801V33.2578H126.945V34H123.566V33.2578H124.824V29.2227ZM131.699 31.9844C131.699 32.2969 131.655 32.5833 131.566 32.8438C131.478 33.1016 131.35 33.3229 131.183 33.5078C131.017 33.6927 130.812 33.8359 130.57 33.9375C130.328 34.0391 130.052 34.0898 129.742 34.0898C129.448 34.0898 129.185 34.0469 128.953 33.9609C128.721 33.875 128.524 33.7474 128.363 33.5781C128.202 33.4062 128.078 33.1927 127.992 32.9375C127.906 32.6797 127.863 32.3802 127.863 32.0391C127.863 31.724 127.907 31.4375 127.996 31.1797C128.087 30.9219 128.216 30.7018 128.383 30.5195C128.552 30.3372 128.758 30.1966 129 30.0977C129.242 29.9961 129.515 29.9453 129.82 29.9453C130.117 29.9453 130.381 29.9896 130.613 30.0781C130.845 30.1641 131.041 30.293 131.203 30.4648C131.364 30.6367 131.487 30.8503 131.57 31.1055C131.656 31.3581 131.699 31.651 131.699 31.9844ZM130.707 32.0078C130.707 31.5964 130.629 31.2878 130.472 31.082C130.319 30.8737 130.091 30.7695 129.789 30.7695C129.622 30.7695 129.48 30.8021 129.363 30.8672C129.246 30.9323 129.149 31.0221 129.074 31.1367C128.998 31.2487 128.942 31.3802 128.906 31.5312C128.872 31.6823 128.855 31.8438 128.855 32.0156C128.855 32.4297 128.939 32.7422 129.105 32.9531C129.272 33.1615 129.5 33.2656 129.789 33.2656C129.948 33.2656 130.086 33.2344 130.203 33.1719C130.32 33.1068 130.415 33.0182 130.488 32.9062C130.561 32.7917 130.616 32.6576 130.652 32.5039C130.689 32.3503 130.707 32.1849 130.707 32.0078ZM135.964 34H134.906L134.484 32.7422L134.355 32.3047L134.226 32.7539L133.82 34H132.757L132.195 30.0312H133.101L133.386 32.2734L133.453 32.8867L133.613 32.3359L134.011 31.1289H134.738L135.164 32.3281L135.347 32.8945L135.421 32.2656L135.66 30.0312H136.523L135.964 34ZM145.311 32.4414C145.311 32.694 145.265 32.9219 145.171 33.125C145.077 33.3255 144.933 33.4974 144.737 33.6406C144.545 33.7812 144.301 33.8893 144.007 33.9648C143.713 34.0404 143.366 34.0781 142.968 34.0781C142.879 34.0781 142.785 34.0755 142.686 34.0703C142.59 34.0677 142.494 34.0625 142.397 34.0547C142.301 34.0495 142.207 34.0417 142.116 34.0312C142.025 34.0234 141.943 34.013 141.87 34V33.1719C142.034 33.2031 142.218 33.2292 142.421 33.25C142.627 33.2682 142.84 33.2773 143.061 33.2773C143.278 33.2773 143.464 33.2591 143.62 33.2227C143.776 33.1862 143.905 33.1341 144.007 33.0664C144.108 32.9961 144.183 32.9102 144.229 32.8086C144.279 32.707 144.304 32.5924 144.304 32.4648C144.304 32.3529 144.279 32.2513 144.229 32.1602C144.18 32.069 144.104 31.9922 144.003 31.9297C143.901 31.8646 143.771 31.8151 143.612 31.7812C143.456 31.7448 143.27 31.7266 143.054 31.7266H142.487V31H143.007C143.21 31 143.378 30.9805 143.511 30.9414C143.646 30.8997 143.753 30.8451 143.831 30.7773C143.912 30.7096 143.969 30.6302 144.003 30.5391C144.037 30.4453 144.054 30.3477 144.054 30.2461C144.054 30.0378 143.986 29.8802 143.851 29.7734C143.715 29.6641 143.505 29.6094 143.222 29.6094C143.018 29.6094 142.818 29.6289 142.62 29.668C142.422 29.707 142.218 29.7591 142.007 29.8242V29.0234C142.124 28.9844 142.236 28.9518 142.343 28.9258C142.449 28.8997 142.556 28.8776 142.663 28.8594C142.77 28.8411 142.878 28.8281 142.987 28.8203C143.097 28.8125 143.21 28.8086 143.327 28.8086C143.608 28.8086 143.854 28.8385 144.065 28.8984C144.279 28.9583 144.457 29.0443 144.601 29.1562C144.746 29.2656 144.856 29.3997 144.929 29.5586C145.002 29.7174 145.038 29.8945 145.038 30.0898C145.038 30.3997 144.966 30.651 144.823 30.8438C144.683 31.0339 144.485 31.1797 144.229 31.2812C144.393 31.3073 144.542 31.3529 144.675 31.418C144.808 31.4805 144.921 31.5625 145.015 31.6641C145.111 31.763 145.184 31.8776 145.233 32.0078C145.285 32.138 145.311 32.2826 145.311 32.4414ZM146.413 34V33.2969L147.62 32.0898C147.846 31.8633 148.027 31.668 148.163 31.5039C148.301 31.3398 148.406 31.194 148.479 31.0664C148.555 30.9362 148.604 30.8164 148.628 30.707C148.651 30.5977 148.663 30.4844 148.663 30.3672C148.663 30.2708 148.647 30.1797 148.616 30.0938C148.585 30.0052 148.539 29.9297 148.479 29.8672C148.419 29.8021 148.344 29.7513 148.253 29.7148C148.161 29.6758 148.057 29.6562 147.94 29.6562C147.74 29.6562 147.553 29.7005 147.382 29.7891C147.21 29.875 147.047 29.9909 146.893 30.1367L146.389 29.4883C146.611 29.2826 146.859 29.1185 147.135 28.9961C147.414 28.8711 147.715 28.8086 148.038 28.8086C148.288 28.8086 148.514 28.8411 148.717 28.9062C148.921 28.9688 149.094 29.0625 149.237 29.1875C149.383 29.3125 149.495 29.4688 149.573 29.6562C149.654 29.8438 149.694 30.0599 149.694 30.3047C149.694 30.5078 149.667 30.6979 149.612 30.875C149.557 31.0495 149.478 31.2201 149.374 31.3867C149.27 31.5534 149.141 31.7201 148.987 31.8867C148.836 32.0534 148.663 32.2292 148.467 32.4141L147.725 33.1211H149.878V34H146.413ZM154.604 31.9453C154.604 32.3099 154.552 32.625 154.448 32.8906C154.346 33.1562 154.203 33.3776 154.018 33.5547C153.836 33.7292 153.62 33.8594 153.37 33.9453C153.12 34.0286 152.847 34.0703 152.553 34.0703C152.264 34.0703 151.995 34.0482 151.745 34.0039C151.497 33.9622 151.26 33.9049 151.034 33.832V28.4805H151.987V29.7773L151.948 30.5586C152.091 30.3737 152.258 30.2253 152.448 30.1133C152.64 30.0013 152.871 29.9453 153.139 29.9453C153.373 29.9453 153.582 29.9922 153.764 30.0859C153.946 30.1797 154.099 30.3138 154.221 30.4883C154.346 30.6602 154.441 30.8698 154.506 31.1172C154.571 31.362 154.604 31.638 154.604 31.9453ZM153.604 31.9844C153.604 31.7656 153.588 31.5794 153.557 31.4258C153.526 31.2721 153.48 31.1458 153.42 31.0469C153.363 30.9479 153.291 30.8763 153.205 30.832C153.122 30.7852 153.026 30.7617 152.916 30.7617C152.755 30.7617 152.6 30.8268 152.452 30.957C152.306 31.0872 152.151 31.2643 151.987 31.4883V33.2227C152.062 33.2513 152.155 33.2747 152.264 33.293C152.376 33.3112 152.489 33.3203 152.604 33.3203C152.755 33.3203 152.892 33.2891 153.014 33.2266C153.139 33.1641 153.245 33.0755 153.33 32.9609C153.419 32.8464 153.487 32.707 153.534 32.543C153.58 32.3763 153.604 32.1901 153.604 31.9844ZM157.951 28.9453C157.951 29.0312 157.936 29.112 157.904 29.1875C157.873 29.263 157.829 29.3294 157.772 29.3867C157.717 29.4414 157.652 29.4857 157.576 29.5195C157.501 29.5508 157.419 29.5664 157.33 29.5664C157.242 29.5664 157.158 29.5508 157.08 29.5195C157.005 29.4857 156.938 29.4414 156.881 29.3867C156.826 29.3294 156.783 29.263 156.752 29.1875C156.721 29.112 156.705 29.0312 156.705 28.9453C156.705 28.8594 156.721 28.7786 156.752 28.7031C156.783 28.6276 156.826 28.5612 156.881 28.5039C156.938 28.4466 157.005 28.4023 157.08 28.3711C157.158 28.3372 157.242 28.3203 157.33 28.3203C157.419 28.3203 157.501 28.3372 157.576 28.3711C157.652 28.4023 157.717 28.4466 157.772 28.5039C157.829 28.5612 157.873 28.6276 157.904 28.7031C157.936 28.7786 157.951 28.8594 157.951 28.9453ZM156.897 30.7734H155.776V30.0312H157.873V33.2578H159.018V34H155.639V33.2578H156.897V30.7734ZM163.471 33.9609C163.299 34 163.126 34.0312 162.951 34.0547C162.777 34.0781 162.611 34.0898 162.455 34.0898C162.195 34.0898 161.969 34.0625 161.779 34.0078C161.592 33.9531 161.435 33.8698 161.31 33.7578C161.188 33.6458 161.097 33.5039 161.037 33.332C160.98 33.1576 160.951 32.9505 160.951 32.7109V30.7734H159.885V30.0312H160.951V29.0156L161.928 28.7617V30.0312H163.471V30.7734H161.928V32.6406C161.928 32.8672 161.98 33.0391 162.084 33.1562C162.188 33.2708 162.363 33.3281 162.607 33.3281C162.764 33.3281 162.916 33.3151 163.064 33.2891C163.213 33.263 163.348 33.2331 163.471 33.1992V33.9609Z" fill="#454D58"/>
<path d="M32.9102 34V31.4141C32.9102 30.9792 32.7487 30.7617 32.4258 30.7617C32.2643 30.7617 32.1094 30.8268 31.9609 30.957C31.8151 31.0872 31.6602 31.2643 31.4961 31.4883V34H30.543V28.4805H31.4961V29.8398L31.4492 30.5586C31.5299 30.4622 31.612 30.3763 31.6953 30.3008C31.7786 30.2227 31.8685 30.1576 31.9648 30.1055C32.0612 30.0534 32.1654 30.0143 32.2773 29.9883C32.3893 29.9596 32.513 29.9453 32.6484 29.9453C32.8516 29.9453 33.0286 29.9792 33.1797 30.0469C33.3307 30.112 33.457 30.2057 33.5586 30.3281C33.6602 30.4479 33.7357 30.5938 33.7852 30.7656C33.8372 30.9349 33.8633 31.125 33.8633 31.3359V34H32.9102ZM37.4607 28.9453C37.4607 29.0312 37.4451 29.112 37.4138 29.1875C37.3826 29.263 37.3383 29.3294 37.281 29.3867C37.2263 29.4414 37.1612 29.4857 37.0857 29.5195C37.0102 29.5508 36.9281 29.5664 36.8396 29.5664C36.751 29.5664 36.6677 29.5508 36.5896 29.5195C36.5141 29.4857 36.4477 29.4414 36.3904 29.3867C36.3357 29.3294 36.2927 29.263 36.2615 29.1875C36.2302 29.112 36.2146 29.0312 36.2146 28.9453C36.2146 28.8594 36.2302 28.7786 36.2615 28.7031C36.2927 28.6276 36.3357 28.5612 36.3904 28.5039C36.4477 28.4466 36.5141 28.4023 36.5896 28.3711C36.6677 28.3372 36.751 28.3203 36.8396 28.3203C36.9281 28.3203 37.0102 28.3372 37.0857 28.3711C37.1612 28.4023 37.2263 28.4466 37.281 28.5039C37.3383 28.5612 37.3826 28.6276 37.4138 28.7031C37.4451 28.7786 37.4607 28.8594 37.4607 28.9453ZM36.406 30.7734H35.2849V30.0312H37.3826V33.2578H38.5271V34H35.1482V33.2578H36.406V30.7734ZM42.6831 30.7266C42.756 30.8177 42.8068 30.9141 42.8354 31.0156C42.8667 31.1146 42.8823 31.2161 42.8823 31.3203C42.8823 31.5417 42.8432 31.737 42.7651 31.9062C42.6896 32.0755 42.5815 32.2174 42.4409 32.332C42.3029 32.4466 42.1362 32.5339 41.9409 32.5938C41.7482 32.651 41.5346 32.6797 41.3003 32.6797C41.1622 32.6797 41.0346 32.6667 40.9174 32.6406C40.8003 32.612 40.7117 32.5794 40.6518 32.543C40.6076 32.5872 40.5698 32.6367 40.5385 32.6914C40.5073 32.7435 40.4917 32.8034 40.4917 32.8711C40.4917 32.9128 40.5021 32.9544 40.5229 32.9961C40.5438 33.0378 40.5737 33.0755 40.6128 33.1094C40.6544 33.1406 40.7026 33.1667 40.7573 33.1875C40.8146 33.2083 40.8784 33.2201 40.9487 33.2227L41.8901 33.2578C42.101 33.263 42.2911 33.2904 42.4604 33.3398C42.6323 33.3867 42.7794 33.4544 42.9018 33.543C43.0242 33.6315 43.118 33.7396 43.1831 33.8672C43.2508 33.9922 43.2846 34.1354 43.2846 34.2969C43.2846 34.4818 43.243 34.6562 43.1596 34.8203C43.0763 34.9844 42.95 35.1263 42.7807 35.2461C42.6141 35.3685 42.4057 35.4648 42.1557 35.5352C41.9057 35.6055 41.6154 35.6406 41.2846 35.6406C40.9643 35.6406 40.6883 35.6146 40.4565 35.5625C40.2273 35.513 40.0385 35.4427 39.8901 35.3516C39.7443 35.2604 39.6362 35.151 39.5659 35.0234C39.4956 34.8984 39.4604 34.7604 39.4604 34.6094C39.4604 34.5182 39.4721 34.4336 39.4956 34.3555C39.519 34.2773 39.5542 34.2018 39.601 34.1289C39.6479 34.0586 39.7065 33.9896 39.7768 33.9219C39.8471 33.8542 39.9305 33.7865 40.0268 33.7188C39.8992 33.6458 39.8016 33.5521 39.7339 33.4375C39.6688 33.3229 39.6362 33.2005 39.6362 33.0703C39.6362 32.9818 39.6479 32.8997 39.6714 32.8242C39.6948 32.7461 39.7247 32.6719 39.7612 32.6016C39.8003 32.5312 39.8445 32.4635 39.894 32.3984C39.9435 32.3333 39.9956 32.2695 40.0503 32.207C39.9539 32.1107 39.8732 31.9948 39.8081 31.8594C39.7456 31.7214 39.7143 31.5495 39.7143 31.3438C39.7143 31.1224 39.7534 30.9258 39.8315 30.7539C39.9122 30.5794 40.0229 30.4336 40.1635 30.3164C40.3042 30.1966 40.4708 30.1068 40.6635 30.0469C40.8589 29.9844 41.0711 29.9531 41.3003 29.9531C41.4174 29.9531 41.5294 29.9596 41.6362 29.9727C41.7456 29.9831 41.8445 30.0026 41.9331 30.0312H43.3081V30.7266H42.6831ZM40.437 34.5273C40.437 34.681 40.5138 34.7943 40.6674 34.8672C40.8237 34.9401 41.0424 34.9766 41.3237 34.9766C41.5034 34.9766 41.6544 34.9596 41.7768 34.9258C41.9018 34.8919 42.0034 34.8477 42.0815 34.793C42.1596 34.7383 42.2156 34.6745 42.2495 34.6016C42.2833 34.5286 42.3003 34.4531 42.3003 34.375C42.3003 34.3047 42.2833 34.2448 42.2495 34.1953C42.2182 34.1484 42.1727 34.1081 42.1128 34.0742C42.0555 34.043 41.9865 34.0182 41.9057 34C41.8276 33.9844 41.7404 33.974 41.644 33.9688L40.8042 33.9531C40.7286 34.0052 40.6661 34.0547 40.6167 34.1016C40.5698 34.1484 40.532 34.194 40.5034 34.2383C40.4773 34.2852 40.4591 34.332 40.4487 34.3789C40.4409 34.4258 40.437 34.4753 40.437 34.5273ZM40.5971 31.3438C40.5971 31.5547 40.6583 31.7227 40.7807 31.8477C40.9057 31.9701 41.0789 32.0312 41.3003 32.0312C41.4174 32.0312 41.519 32.0117 41.6049 31.9727C41.6935 31.9336 41.7664 31.8815 41.8237 31.8164C41.881 31.7513 41.924 31.6758 41.9526 31.5898C41.9813 31.5039 41.9956 31.4141 41.9956 31.3203C41.9956 31.099 41.9331 30.9271 41.8081 30.8047C41.6857 30.6797 41.5138 30.6172 41.2924 30.6172C41.1753 30.6172 41.0724 30.6367 40.9839 30.6758C40.8979 30.7148 40.8263 30.7682 40.769 30.8359C40.7117 30.901 40.6688 30.9779 40.6401 31.0664C40.6115 31.1549 40.5971 31.2474 40.5971 31.3438ZM46.6555 34V31.4141C46.6555 30.9792 46.494 30.7617 46.1711 30.7617C46.0096 30.7617 45.8547 30.8268 45.7063 30.957C45.5604 31.0872 45.4055 31.2643 45.2414 31.4883V34H44.2883V28.4805H45.2414V29.8398L45.1945 30.5586C45.2753 30.4622 45.3573 30.3763 45.4406 30.3008C45.524 30.2227 45.6138 30.1576 45.7102 30.1055C45.8065 30.0534 45.9107 30.0143 46.0227 29.9883C46.1346 29.9596 46.2583 29.9453 46.3938 29.9453C46.5969 29.9453 46.774 29.9792 46.925 30.0469C47.076 30.112 47.2023 30.2057 47.3039 30.3281C47.4055 30.4479 47.481 30.5938 47.5305 30.7656C47.5826 30.9349 47.6086 31.125 47.6086 31.3359V34H46.6555ZM56.8932 32.4414C56.8932 32.694 56.8464 32.9219 56.7526 33.125C56.6589 33.3255 56.5143 33.4974 56.319 33.6406C56.1263 33.7812 55.8828 33.8893 55.5885 33.9648C55.2943 34.0404 54.9479 34.0781 54.5495 34.0781C54.4609 34.0781 54.3672 34.0755 54.2682 34.0703C54.1719 34.0677 54.0755 34.0625 53.9792 34.0547C53.8828 34.0495 53.7891 34.0417 53.6979 34.0312C53.6068 34.0234 53.5247 34.013 53.4518 34V33.1719C53.6159 33.2031 53.7995 33.2292 54.0026 33.25C54.2083 33.2682 54.4219 33.2773 54.6432 33.2773C54.8594 33.2773 55.0456 33.2591 55.2018 33.2227C55.3581 33.1862 55.487 33.1341 55.5885 33.0664C55.6901 32.9961 55.7643 32.9102 55.8112 32.8086C55.8607 32.707 55.8854 32.5924 55.8854 32.4648C55.8854 32.3529 55.8607 32.2513 55.8112 32.1602C55.7617 32.069 55.6862 31.9922 55.5846 31.9297C55.4831 31.8646 55.3529 31.8151 55.194 31.7812C55.0378 31.7448 54.8516 31.7266 54.6354 31.7266H54.069V31H54.5885C54.7917 31 54.9596 30.9805 55.0924 30.9414C55.2279 30.8997 55.3346 30.8451 55.4128 30.7773C55.4935 30.7096 55.5508 30.6302 55.5846 30.5391C55.6185 30.4453 55.6354 30.3477 55.6354 30.2461C55.6354 30.0378 55.5677 29.8802 55.4323 29.7734C55.2969 29.6641 55.0872 29.6094 54.8034 29.6094C54.6003 29.6094 54.3997 29.6289 54.2018 29.668C54.0039 29.707 53.7995 29.7591 53.5885 29.8242V29.0234C53.7057 28.9844 53.8177 28.9518 53.9245 28.9258C54.0313 28.8997 54.138 28.8776 54.2448 28.8594C54.3516 28.8411 54.4596 28.8281 54.569 28.8203C54.6784 28.8125 54.7917 28.8086 54.9089 28.8086C55.1901 28.8086 55.4362 28.8385 55.6471 28.8984C55.8607 28.9583 56.0391 29.0443 56.1823 29.1562C56.3281 29.2656 56.4375 29.3997 56.5104 29.5586C56.5833 29.7174 56.6198 29.8945 56.6198 30.0898C56.6198 30.3997 56.5482 30.651 56.4049 30.8438C56.2643 31.0339 56.0664 31.1797 55.8112 31.2812C55.9753 31.3073 56.1237 31.3529 56.2565 31.418C56.3893 31.4805 56.5026 31.5625 56.5964 31.6641C56.6927 31.763 56.7656 31.8776 56.8151 32.0078C56.8672 32.138 56.8932 32.2826 56.8932 32.4414ZM57.9945 34V33.2969L59.2016 32.0898C59.4281 31.8633 59.6091 31.668 59.7445 31.5039C59.8826 31.3398 59.988 31.194 60.0609 31.0664C60.1365 30.9362 60.1859 30.8164 60.2094 30.707C60.2328 30.5977 60.2445 30.4844 60.2445 30.3672C60.2445 30.2708 60.2289 30.1797 60.1977 30.0938C60.1664 30.0052 60.1208 29.9297 60.0609 29.8672C60.001 29.8021 59.9255 29.7513 59.8344 29.7148C59.7432 29.6758 59.6391 29.6562 59.5219 29.6562C59.3214 29.6562 59.1352 29.7005 58.9633 29.7891C58.7914 29.875 58.6286 29.9909 58.475 30.1367L57.9711 29.4883C58.1924 29.2826 58.4411 29.1185 58.7172 28.9961C58.9958 28.8711 59.2966 28.8086 59.6195 28.8086C59.8695 28.8086 60.0961 28.8411 60.2992 28.9062C60.5023 28.9688 60.6755 29.0625 60.8188 29.1875C60.9646 29.3125 61.0766 29.4688 61.1547 29.6562C61.2354 29.8438 61.2758 30.0599 61.2758 30.3047C61.2758 30.5078 61.2484 30.6979 61.1938 30.875C61.1391 31.0495 61.0596 31.2201 60.9555 31.3867C60.8513 31.5534 60.7224 31.7201 60.5688 31.8867C60.4177 32.0534 60.2445 32.2292 60.0492 32.4141L59.307 33.1211H61.4594V34H57.9945ZM66.1857 31.9453C66.1857 32.3099 66.1336 32.625 66.0294 32.8906C65.9279 33.1562 65.7846 33.3776 65.5997 33.5547C65.4174 33.7292 65.2013 33.8594 64.9513 33.9453C64.7013 34.0286 64.4292 34.0703 64.1349 34.0703C63.8458 34.0703 63.5763 34.0482 63.3263 34.0039C63.0789 33.9622 62.8419 33.9049 62.6154 33.832V28.4805H63.5685V29.7773L63.5294 30.5586C63.6727 30.3737 63.8393 30.2253 64.0294 30.1133C64.2221 30.0013 64.4526 29.9453 64.7208 29.9453C64.9552 29.9453 65.1635 29.9922 65.3458 30.0859C65.5281 30.1797 65.6805 30.3138 65.8029 30.4883C65.9279 30.6602 66.0229 30.8698 66.088 31.1172C66.1531 31.362 66.1857 31.638 66.1857 31.9453ZM65.1857 31.9844C65.1857 31.7656 65.1701 31.5794 65.1388 31.4258C65.1076 31.2721 65.062 31.1458 65.0021 31.0469C64.9448 30.9479 64.8732 30.8763 64.7872 30.832C64.7039 30.7852 64.6076 30.7617 64.4982 30.7617C64.3367 30.7617 64.1818 30.8268 64.0333 30.957C63.8875 31.0872 63.7326 31.2643 63.5685 31.4883V33.2227C63.644 33.2513 63.7365 33.2747 63.8458 33.293C63.9578 33.3112 64.0711 33.3203 64.1857 33.3203C64.3367 33.3203 64.4734 33.2891 64.5958 33.2266C64.7208 33.1641 64.8263 33.0755 64.9122 32.9609C65.0008 32.8464 65.0685 32.707 65.1154 32.543C65.1622 32.3763 65.1857 32.1901 65.1857 31.9844ZM69.5331 28.9453C69.5331 29.0312 69.5174 29.112 69.4862 29.1875C69.4549 29.263 69.4107 29.3294 69.3534 29.3867C69.2987 29.4414 69.2336 29.4857 69.1581 29.5195C69.0826 29.5508 69.0005 29.5664 68.912 29.5664C68.8234 29.5664 68.7401 29.5508 68.662 29.5195C68.5865 29.4857 68.5201 29.4414 68.4628 29.3867C68.4081 29.3294 68.3651 29.263 68.3339 29.1875C68.3026 29.112 68.287 29.0312 68.287 28.9453C68.287 28.8594 68.3026 28.7786 68.3339 28.7031C68.3651 28.6276 68.4081 28.5612 68.4628 28.5039C68.5201 28.4466 68.5865 28.4023 68.662 28.3711C68.7401 28.3372 68.8234 28.3203 68.912 28.3203C69.0005 28.3203 69.0826 28.3372 69.1581 28.3711C69.2336 28.4023 69.2987 28.4466 69.3534 28.5039C69.4107 28.5612 69.4549 28.6276 69.4862 28.7031C69.5174 28.7786 69.5331 28.8594 69.5331 28.9453ZM68.4784 30.7734H67.3573V30.0312H69.4549V33.2578H70.5995V34H67.2206V33.2578H68.4784V30.7734ZM75.0523 33.9609C74.8805 34 74.7073 34.0312 74.5328 34.0547C74.3583 34.0781 74.193 34.0898 74.0367 34.0898C73.7763 34.0898 73.551 34.0625 73.3609 34.0078C73.1734 33.9531 73.0172 33.8698 72.8922 33.7578C72.7698 33.6458 72.6786 33.5039 72.6188 33.332C72.5615 33.1576 72.5328 32.9505 72.5328 32.7109V30.7734H71.4664V30.0312H72.5328V29.0156L73.5094 28.7617V30.0312H75.0523V30.7734H73.5094V32.6406C73.5094 32.8672 73.5615 33.0391 73.6656 33.1562C73.7698 33.2708 73.9443 33.3281 74.1891 33.3281C74.3453 33.3281 74.4977 33.3151 74.6461 33.2891C74.7945 33.263 74.9299 33.2331 75.0523 33.1992V33.9609Z" fill="#454D58"/>
<rect x="1" y="18" width="190" height="42" stroke="#454D58" stroke-width="2"/>
</svg>
