<svg width="249" height="67" viewBox="0 0 249 67" fill="none" xmlns="http://www.w3.org/2000/svg">
<rect x="5" y="37" width="29.0909" height="16" rx="5" fill="#81B29A"/>
<path d="M10.1914 44.4258C10.1914 44.8451 10.1458 45.2201 10.0547 45.5508C9.96354 45.8815 9.82943 46.1615 9.65234 46.3906C9.47786 46.6172 9.26432 46.7904 9.01172 46.9102C8.75911 47.0299 8.47005 47.0898 8.14453 47.0898C7.86328 47.0898 7.60417 47.0404 7.36719 46.9414C7.13021 46.8424 6.92578 46.6875 6.75391 46.4766C6.58203 46.263 6.44792 45.9909 6.35156 45.6602C6.25521 45.3294 6.20703 44.9336 6.20703 44.4727C6.20703 44.0534 6.2526 43.6784 6.34375 43.3477C6.4375 43.0169 6.57161 42.7383 6.74609 42.5117C6.92057 42.2826 7.13542 42.1081 7.39062 41.9883C7.64583 41.8685 7.9349 41.8086 8.25781 41.8086C8.53906 41.8086 8.79818 41.8581 9.03516 41.957C9.27214 42.056 9.47526 42.2109 9.64453 42.4219C9.81641 42.6328 9.95052 42.9036 10.0469 43.2344C10.1432 43.5651 10.1914 43.9622 10.1914 44.4258ZM7.16797 44.4414C7.16797 44.4935 7.16797 44.543 7.16797 44.5898C7.16797 44.6341 7.17057 44.6797 7.17578 44.7266L9.08984 43.3438C8.9987 43.0859 8.8776 42.8958 8.72656 42.7734C8.57812 42.6484 8.40234 42.5859 8.19922 42.5859C8.05339 42.5859 7.91797 42.6237 7.79297 42.6992C7.66797 42.7721 7.55859 42.8854 7.46484 43.0391C7.3737 43.1927 7.30078 43.3854 7.24609 43.6172C7.19401 43.849 7.16797 44.1237 7.16797 44.4414ZM9.23047 44.457C9.23047 44.4128 9.22917 44.3685 9.22656 44.3242C9.22396 44.2773 9.22266 44.2331 9.22266 44.1914L7.32031 45.5664C7.40365 45.819 7.52083 46.0065 7.67188 46.1289C7.82292 46.2513 7.9987 46.3125 8.19922 46.3125C8.34505 46.3125 8.48047 46.2747 8.60547 46.1992C8.73307 46.1237 8.84245 46.0104 8.93359 45.8594C9.02734 45.7057 9.10026 45.513 9.15234 45.2812C9.20443 45.0469 9.23047 44.7721 9.23047 44.457ZM13.6794 47L12.7732 45.6641L11.863 47H10.7107L12.199 45L10.7888 43.0312H11.949L12.8396 44.3359L13.7185 43.0312H14.7888L13.4216 44.9922L14.863 47H13.6794ZM19.3549 44.4258C19.3549 44.8451 19.3094 45.2201 19.2182 45.5508C19.1271 45.8815 18.993 46.1615 18.8159 46.3906C18.6414 46.6172 18.4279 46.7904 18.1753 46.9102C17.9227 47.0299 17.6336 47.0898 17.3081 47.0898C17.0268 47.0898 16.7677 47.0404 16.5307 46.9414C16.2938 46.8424 16.0893 46.6875 15.9174 46.4766C15.7456 46.263 15.6115 45.9909 15.5151 45.6602C15.4188 45.3294 15.3706 44.9336 15.3706 44.4727C15.3706 44.0534 15.4161 43.6784 15.5073 43.3477C15.601 43.0169 15.7352 42.7383 15.9096 42.5117C16.0841 42.2826 16.299 42.1081 16.5542 41.9883C16.8094 41.8685 17.0984 41.8086 17.4214 41.8086C17.7026 41.8086 17.9617 41.8581 18.1987 41.957C18.4357 42.056 18.6388 42.2109 18.8081 42.4219C18.9799 42.6328 19.1141 42.9036 19.2104 43.2344C19.3068 43.5651 19.3549 43.9622 19.3549 44.4258ZM16.3315 44.4414C16.3315 44.4935 16.3315 44.543 16.3315 44.5898C16.3315 44.6341 16.3341 44.6797 16.3393 44.7266L18.2534 43.3438C18.1622 43.0859 18.0411 42.8958 17.8901 42.7734C17.7417 42.6484 17.5659 42.5859 17.3628 42.5859C17.2169 42.5859 17.0815 42.6237 16.9565 42.6992C16.8315 42.7721 16.7221 42.8854 16.6284 43.0391C16.5372 43.1927 16.4643 43.3854 16.4096 43.6172C16.3576 43.849 16.3315 44.1237 16.3315 44.4414ZM18.394 44.457C18.394 44.4128 18.3927 44.3685 18.3901 44.3242C18.3875 44.2773 18.3862 44.2331 18.3862 44.1914L16.4839 45.5664C16.5672 45.819 16.6844 46.0065 16.8354 46.1289C16.9865 46.2513 17.1622 46.3125 17.3628 46.3125C17.5086 46.3125 17.644 46.2747 17.769 46.1992C17.8966 46.1237 18.006 46.0104 18.0971 45.8594C18.1909 45.7057 18.2638 45.513 18.3159 45.2812C18.368 45.0469 18.394 44.7721 18.394 44.457ZM23.9367 44.4258C23.9367 44.8451 23.8911 45.2201 23.8 45.5508C23.7089 45.8815 23.5747 46.1615 23.3977 46.3906C23.2232 46.6172 23.0096 46.7904 22.757 46.9102C22.5044 47.0299 22.2154 47.0898 21.8898 47.0898C21.6086 47.0898 21.3495 47.0404 21.1125 46.9414C20.8755 46.8424 20.6711 46.6875 20.4992 46.4766C20.3273 46.263 20.1932 45.9909 20.0969 45.6602C20.0005 45.3294 19.9523 44.9336 19.9523 44.4727C19.9523 44.0534 19.9979 43.6784 20.0891 43.3477C20.1828 43.0169 20.3169 42.7383 20.4914 42.5117C20.6659 42.2826 20.8807 42.1081 21.1359 41.9883C21.3911 41.8685 21.6802 41.8086 22.0031 41.8086C22.2844 41.8086 22.5435 41.8581 22.7805 41.957C23.0174 42.056 23.2206 42.2109 23.3898 42.4219C23.5617 42.6328 23.6958 42.9036 23.7922 43.2344C23.8885 43.5651 23.9367 43.9622 23.9367 44.4258ZM20.9133 44.4414C20.9133 44.4935 20.9133 44.543 20.9133 44.5898C20.9133 44.6341 20.9159 44.6797 20.9211 44.7266L22.8352 43.3438C22.744 43.0859 22.6229 42.8958 22.4719 42.7734C22.3234 42.6484 22.1477 42.5859 21.9445 42.5859C21.7987 42.5859 21.6633 42.6237 21.5383 42.6992C21.4133 42.7721 21.3039 42.8854 21.2102 43.0391C21.119 43.1927 21.0461 43.3854 20.9914 43.6172C20.9393 43.849 20.9133 44.1237 20.9133 44.4414ZM22.9758 44.457C22.9758 44.4128 22.9745 44.3685 22.9719 44.3242C22.9693 44.2773 22.968 44.2331 22.968 44.1914L21.0656 45.5664C21.149 45.819 21.2661 46.0065 21.4172 46.1289C21.5682 46.2513 21.744 46.3125 21.9445 46.3125C22.0904 46.3125 22.2258 46.2747 22.3508 46.1992C22.4784 46.1237 22.5878 46.0104 22.6789 45.8594C22.7727 45.7057 22.8456 45.513 22.8977 45.2812C22.9497 45.0469 22.9758 44.7721 22.9758 44.457ZM28.5185 44.4258C28.5185 44.8451 28.4729 45.2201 28.3818 45.5508C28.2906 45.8815 28.1565 46.1615 27.9794 46.3906C27.8049 46.6172 27.5914 46.7904 27.3388 46.9102C27.0862 47.0299 26.7971 47.0898 26.4716 47.0898C26.1904 47.0898 25.9313 47.0404 25.6943 46.9414C25.4573 46.8424 25.2529 46.6875 25.081 46.4766C24.9091 46.263 24.775 45.9909 24.6786 45.6602C24.5823 45.3294 24.5341 44.9336 24.5341 44.4727C24.5341 44.0534 24.5797 43.6784 24.6708 43.3477C24.7646 43.0169 24.8987 42.7383 25.0732 42.5117C25.2477 42.2826 25.4625 42.1081 25.7177 41.9883C25.9729 41.8685 26.262 41.8086 26.5849 41.8086C26.8661 41.8086 27.1253 41.8581 27.3622 41.957C27.5992 42.056 27.8023 42.2109 27.9716 42.4219C28.1435 42.6328 28.2776 42.9036 28.374 43.2344C28.4703 43.5651 28.5185 43.9622 28.5185 44.4258ZM25.4951 44.4414C25.4951 44.4935 25.4951 44.543 25.4951 44.5898C25.4951 44.6341 25.4977 44.6797 25.5029 44.7266L27.4169 43.3438C27.3258 43.0859 27.2047 42.8958 27.0536 42.7734C26.9052 42.6484 26.7294 42.5859 26.5263 42.5859C26.3805 42.5859 26.2451 42.6237 26.1201 42.6992C25.9951 42.7721 25.8857 42.8854 25.7919 43.0391C25.7008 43.1927 25.6279 43.3854 25.5732 43.6172C25.5211 43.849 25.4951 44.1237 25.4951 44.4414ZM27.5576 44.457C27.5576 44.4128 27.5563 44.3685 27.5536 44.3242C27.551 44.2773 27.5497 44.2331 27.5497 44.1914L25.6474 45.5664C25.7307 45.819 25.8479 46.0065 25.999 46.1289C26.15 46.2513 26.3258 46.3125 26.5263 46.3125C26.6721 46.3125 26.8076 46.2747 26.9326 46.1992C27.0602 46.1237 27.1695 46.0104 27.2607 45.8594C27.3544 45.7057 27.4273 45.513 27.4794 45.2812C27.5315 45.0469 27.5576 44.7721 27.5576 44.457ZM33.1003 44.4258C33.1003 44.8451 33.0547 45.2201 32.9635 45.5508C32.8724 45.8815 32.7383 46.1615 32.5612 46.3906C32.3867 46.6172 32.1732 46.7904 31.9206 46.9102C31.668 47.0299 31.3789 47.0898 31.0534 47.0898C30.7721 47.0898 30.513 47.0404 30.276 46.9414C30.0391 46.8424 29.8346 46.6875 29.6628 46.4766C29.4909 46.263 29.3568 45.9909 29.2604 45.6602C29.1641 45.3294 29.1159 44.9336 29.1159 44.4727C29.1159 44.0534 29.1615 43.6784 29.2526 43.3477C29.3464 43.0169 29.4805 42.7383 29.6549 42.5117C29.8294 42.2826 30.0443 42.1081 30.2995 41.9883C30.5547 41.8685 30.8438 41.8086 31.1667 41.8086C31.4479 41.8086 31.707 41.8581 31.944 41.957C32.181 42.056 32.3841 42.2109 32.5534 42.4219C32.7253 42.6328 32.8594 42.9036 32.9557 43.2344C33.0521 43.5651 33.1003 43.9622 33.1003 44.4258ZM30.0768 44.4414C30.0768 44.4935 30.0768 44.543 30.0768 44.5898C30.0768 44.6341 30.0794 44.6797 30.0846 44.7266L31.9987 43.3438C31.9076 43.0859 31.7865 42.8958 31.6354 42.7734C31.487 42.6484 31.3112 42.5859 31.1081 42.5859C30.9622 42.5859 30.8268 42.6237 30.7018 42.6992C30.5768 42.7721 30.4674 42.8854 30.3737 43.0391C30.2826 43.1927 30.2096 43.3854 30.1549 43.6172C30.1029 43.849 30.0768 44.1237 30.0768 44.4414ZM32.1393 44.457C32.1393 44.4128 32.138 44.3685 32.1354 44.3242C32.1328 44.2773 32.1315 44.2331 32.1315 44.1914L30.2292 45.5664C30.3125 45.819 30.4297 46.0065 30.5807 46.1289C30.7318 46.2513 30.9076 46.3125 31.1081 46.3125C31.2539 46.3125 31.3893 46.2747 31.5143 46.1992C31.6419 46.1237 31.7513 46.0104 31.8424 45.8594C31.9362 45.7057 32.0091 45.513 32.0612 45.2812C32.1133 45.0469 32.1393 44.7721 32.1393 44.457Z" fill="#454D58"/>
<rect x="125" y="37" width="29.0909" height="16" rx="5" fill="#83C5BE"/>
<path d="M130.191 44.4258C130.191 44.8451 130.146 45.2201 130.055 45.5508C129.964 45.8815 129.829 46.1615 129.652 46.3906C129.478 46.6172 129.264 46.7904 129.012 46.9102C128.759 47.0299 128.47 47.0898 128.145 47.0898C127.863 47.0898 127.604 47.0404 127.367 46.9414C127.13 46.8424 126.926 46.6875 126.754 46.4766C126.582 46.263 126.448 45.9909 126.352 45.6602C126.255 45.3294 126.207 44.9336 126.207 44.4727C126.207 44.0534 126.253 43.6784 126.344 43.3477C126.438 43.0169 126.572 42.7383 126.746 42.5117C126.921 42.2826 127.135 42.1081 127.391 41.9883C127.646 41.8685 127.935 41.8086 128.258 41.8086C128.539 41.8086 128.798 41.8581 129.035 41.957C129.272 42.056 129.475 42.2109 129.645 42.4219C129.816 42.6328 129.951 42.9036 130.047 43.2344C130.143 43.5651 130.191 43.9622 130.191 44.4258ZM127.168 44.4414C127.168 44.4935 127.168 44.543 127.168 44.5898C127.168 44.6341 127.171 44.6797 127.176 44.7266L129.09 43.3438C128.999 43.0859 128.878 42.8958 128.727 42.7734C128.578 42.6484 128.402 42.5859 128.199 42.5859C128.053 42.5859 127.918 42.6237 127.793 42.6992C127.668 42.7721 127.559 42.8854 127.465 43.0391C127.374 43.1927 127.301 43.3854 127.246 43.6172C127.194 43.849 127.168 44.1237 127.168 44.4414ZM129.23 44.457C129.23 44.4128 129.229 44.3685 129.227 44.3242C129.224 44.2773 129.223 44.2331 129.223 44.1914L127.32 45.5664C127.404 45.819 127.521 46.0065 127.672 46.1289C127.823 46.2513 127.999 46.3125 128.199 46.3125C128.345 46.3125 128.48 46.2747 128.605 46.1992C128.733 46.1237 128.842 46.0104 128.934 45.8594C129.027 45.7057 129.1 45.513 129.152 45.2812C129.204 45.0469 129.23 44.7721 129.23 44.457ZM133.679 47L132.773 45.6641L131.863 47H130.711L132.199 45L130.789 43.0312H131.949L132.84 44.3359L133.718 43.0312H134.789L133.422 44.9922L134.863 47H133.679ZM139.355 44.4258C139.355 44.8451 139.309 45.2201 139.218 45.5508C139.127 45.8815 138.993 46.1615 138.816 46.3906C138.641 46.6172 138.428 46.7904 138.175 46.9102C137.923 47.0299 137.634 47.0898 137.308 47.0898C137.027 47.0898 136.768 47.0404 136.531 46.9414C136.294 46.8424 136.089 46.6875 135.917 46.4766C135.746 46.263 135.611 45.9909 135.515 45.6602C135.419 45.3294 135.371 44.9336 135.371 44.4727C135.371 44.0534 135.416 43.6784 135.507 43.3477C135.601 43.0169 135.735 42.7383 135.91 42.5117C136.084 42.2826 136.299 42.1081 136.554 41.9883C136.809 41.8685 137.098 41.8086 137.421 41.8086C137.703 41.8086 137.962 41.8581 138.199 41.957C138.436 42.056 138.639 42.2109 138.808 42.4219C138.98 42.6328 139.114 42.9036 139.21 43.2344C139.307 43.5651 139.355 43.9622 139.355 44.4258ZM136.332 44.4414C136.332 44.4935 136.332 44.543 136.332 44.5898C136.332 44.6341 136.334 44.6797 136.339 44.7266L138.253 43.3438C138.162 43.0859 138.041 42.8958 137.89 42.7734C137.742 42.6484 137.566 42.5859 137.363 42.5859C137.217 42.5859 137.082 42.6237 136.957 42.6992C136.832 42.7721 136.722 42.8854 136.628 43.0391C136.537 43.1927 136.464 43.3854 136.41 43.6172C136.358 43.849 136.332 44.1237 136.332 44.4414ZM138.394 44.457C138.394 44.4128 138.393 44.3685 138.39 44.3242C138.388 44.2773 138.386 44.2331 138.386 44.1914L136.484 45.5664C136.567 45.819 136.684 46.0065 136.835 46.1289C136.986 46.2513 137.162 46.3125 137.363 46.3125C137.509 46.3125 137.644 46.2747 137.769 46.1992C137.897 46.1237 138.006 46.0104 138.097 45.8594C138.191 45.7057 138.264 45.513 138.316 45.2812C138.368 45.0469 138.394 44.7721 138.394 44.457ZM143.937 44.4258C143.937 44.8451 143.891 45.2201 143.8 45.5508C143.709 45.8815 143.575 46.1615 143.398 46.3906C143.223 46.6172 143.01 46.7904 142.757 46.9102C142.504 47.0299 142.215 47.0898 141.89 47.0898C141.609 47.0898 141.349 47.0404 141.113 46.9414C140.876 46.8424 140.671 46.6875 140.499 46.4766C140.327 46.263 140.193 45.9909 140.097 45.6602C140.001 45.3294 139.952 44.9336 139.952 44.4727C139.952 44.0534 139.998 43.6784 140.089 43.3477C140.183 43.0169 140.317 42.7383 140.491 42.5117C140.666 42.2826 140.881 42.1081 141.136 41.9883C141.391 41.8685 141.68 41.8086 142.003 41.8086C142.284 41.8086 142.543 41.8581 142.78 41.957C143.017 42.056 143.221 42.2109 143.39 42.4219C143.562 42.6328 143.696 42.9036 143.792 43.2344C143.889 43.5651 143.937 43.9622 143.937 44.4258ZM140.913 44.4414C140.913 44.4935 140.913 44.543 140.913 44.5898C140.913 44.6341 140.916 44.6797 140.921 44.7266L142.835 43.3438C142.744 43.0859 142.623 42.8958 142.472 42.7734C142.323 42.6484 142.148 42.5859 141.945 42.5859C141.799 42.5859 141.663 42.6237 141.538 42.6992C141.413 42.7721 141.304 42.8854 141.21 43.0391C141.119 43.1927 141.046 43.3854 140.991 43.6172C140.939 43.849 140.913 44.1237 140.913 44.4414ZM142.976 44.457C142.976 44.4128 142.974 44.3685 142.972 44.3242C142.969 44.2773 142.968 44.2331 142.968 44.1914L141.066 45.5664C141.149 45.819 141.266 46.0065 141.417 46.1289C141.568 46.2513 141.744 46.3125 141.945 46.3125C142.09 46.3125 142.226 46.2747 142.351 46.1992C142.478 46.1237 142.588 46.0104 142.679 45.8594C142.773 45.7057 142.846 45.513 142.898 45.2812C142.95 45.0469 142.976 44.7721 142.976 44.457ZM148.518 44.4258C148.518 44.8451 148.473 45.2201 148.382 45.5508C148.291 45.8815 148.157 46.1615 147.979 46.3906C147.805 46.6172 147.591 46.7904 147.339 46.9102C147.086 47.0299 146.797 47.0898 146.472 47.0898C146.19 47.0898 145.931 47.0404 145.694 46.9414C145.457 46.8424 145.253 46.6875 145.081 46.4766C144.909 46.263 144.775 45.9909 144.679 45.6602C144.582 45.3294 144.534 44.9336 144.534 44.4727C144.534 44.0534 144.58 43.6784 144.671 43.3477C144.765 43.0169 144.899 42.7383 145.073 42.5117C145.248 42.2826 145.463 42.1081 145.718 41.9883C145.973 41.8685 146.262 41.8086 146.585 41.8086C146.866 41.8086 147.125 41.8581 147.362 41.957C147.599 42.056 147.802 42.2109 147.972 42.4219C148.143 42.6328 148.278 42.9036 148.374 43.2344C148.47 43.5651 148.518 43.9622 148.518 44.4258ZM145.495 44.4414C145.495 44.4935 145.495 44.543 145.495 44.5898C145.495 44.6341 145.498 44.6797 145.503 44.7266L147.417 43.3438C147.326 43.0859 147.205 42.8958 147.054 42.7734C146.905 42.6484 146.729 42.5859 146.526 42.5859C146.38 42.5859 146.245 42.6237 146.12 42.6992C145.995 42.7721 145.886 42.8854 145.792 43.0391C145.701 43.1927 145.628 43.3854 145.573 43.6172C145.521 43.849 145.495 44.1237 145.495 44.4414ZM147.558 44.457C147.558 44.4128 147.556 44.3685 147.554 44.3242C147.551 44.2773 147.55 44.2331 147.55 44.1914L145.647 45.5664C145.731 45.819 145.848 46.0065 145.999 46.1289C146.15 46.2513 146.326 46.3125 146.526 46.3125C146.672 46.3125 146.808 46.2747 146.933 46.1992C147.06 46.1237 147.17 46.0104 147.261 45.8594C147.354 45.7057 147.427 45.513 147.479 45.2812C147.532 45.0469 147.558 44.7721 147.558 44.457ZM152.366 45.9609V47H151.436V45.9609H149.061V45.1445L151.053 41.8945H152.366V45.1211H153.139V45.9609H152.366ZM151.448 42.8164L149.995 45.1211H151.448V42.8164Z" fill="#454D58"/>
<rect x="65" y="37" width="29.0909" height="16" rx="5" fill="#F6A9BD"/>
<path d="M70.1914 44.4258C70.1914 44.8451 70.1458 45.2201 70.0547 45.5508C69.9635 45.8815 69.8294 46.1615 69.6523 46.3906C69.4779 46.6172 69.2643 46.7904 69.0117 46.9102C68.7591 47.0299 68.4701 47.0898 68.1445 47.0898C67.8633 47.0898 67.6042 47.0404 67.3672 46.9414C67.1302 46.8424 66.9258 46.6875 66.7539 46.4766C66.582 46.263 66.4479 45.9909 66.3516 45.6602C66.2552 45.3294 66.207 44.9336 66.207 44.4727C66.207 44.0534 66.2526 43.6784 66.3438 43.3477C66.4375 43.0169 66.5716 42.7383 66.7461 42.5117C66.9206 42.2826 67.1354 42.1081 67.3906 41.9883C67.6458 41.8685 67.9349 41.8086 68.2578 41.8086C68.5391 41.8086 68.7982 41.8581 69.0352 41.957C69.2721 42.056 69.4753 42.2109 69.6445 42.4219C69.8164 42.6328 69.9505 42.9036 70.0469 43.2344C70.1432 43.5651 70.1914 43.9622 70.1914 44.4258ZM67.168 44.4414C67.168 44.4935 67.168 44.543 67.168 44.5898C67.168 44.6341 67.1706 44.6797 67.1758 44.7266L69.0898 43.3438C68.9987 43.0859 68.8776 42.8958 68.7266 42.7734C68.5781 42.6484 68.4023 42.5859 68.1992 42.5859C68.0534 42.5859 67.918 42.6237 67.793 42.6992C67.668 42.7721 67.5586 42.8854 67.4648 43.0391C67.3737 43.1927 67.3008 43.3854 67.2461 43.6172C67.194 43.849 67.168 44.1237 67.168 44.4414ZM69.2305 44.457C69.2305 44.4128 69.2292 44.3685 69.2266 44.3242C69.224 44.2773 69.2227 44.2331 69.2227 44.1914L67.3203 45.5664C67.4036 45.819 67.5208 46.0065 67.6719 46.1289C67.8229 46.2513 67.9987 46.3125 68.1992 46.3125C68.3451 46.3125 68.4805 46.2747 68.6055 46.1992C68.7331 46.1237 68.8424 46.0104 68.9336 45.8594C69.0273 45.7057 69.1003 45.513 69.1523 45.2812C69.2044 45.0469 69.2305 44.7721 69.2305 44.457ZM73.6794 47L72.7732 45.6641L71.863 47H70.7107L72.199 45L70.7888 43.0312H71.949L72.8396 44.3359L73.7185 43.0312H74.7888L73.4216 44.9922L74.863 47H73.6794ZM79.3549 44.4258C79.3549 44.8451 79.3094 45.2201 79.2182 45.5508C79.1271 45.8815 78.993 46.1615 78.8159 46.3906C78.6414 46.6172 78.4279 46.7904 78.1753 46.9102C77.9227 47.0299 77.6336 47.0898 77.3081 47.0898C77.0268 47.0898 76.7677 47.0404 76.5307 46.9414C76.2938 46.8424 76.0893 46.6875 75.9174 46.4766C75.7456 46.263 75.6115 45.9909 75.5151 45.6602C75.4188 45.3294 75.3706 44.9336 75.3706 44.4727C75.3706 44.0534 75.4161 43.6784 75.5073 43.3477C75.601 43.0169 75.7352 42.7383 75.9096 42.5117C76.0841 42.2826 76.299 42.1081 76.5542 41.9883C76.8094 41.8685 77.0984 41.8086 77.4214 41.8086C77.7026 41.8086 77.9617 41.8581 78.1987 41.957C78.4357 42.056 78.6388 42.2109 78.8081 42.4219C78.9799 42.6328 79.1141 42.9036 79.2104 43.2344C79.3068 43.5651 79.3549 43.9622 79.3549 44.4258ZM76.3315 44.4414C76.3315 44.4935 76.3315 44.543 76.3315 44.5898C76.3315 44.6341 76.3341 44.6797 76.3393 44.7266L78.2534 43.3438C78.1622 43.0859 78.0411 42.8958 77.8901 42.7734C77.7417 42.6484 77.5659 42.5859 77.3628 42.5859C77.2169 42.5859 77.0815 42.6237 76.9565 42.6992C76.8315 42.7721 76.7221 42.8854 76.6284 43.0391C76.5372 43.1927 76.4643 43.3854 76.4096 43.6172C76.3576 43.849 76.3315 44.1237 76.3315 44.4414ZM78.394 44.457C78.394 44.4128 78.3927 44.3685 78.3901 44.3242C78.3875 44.2773 78.3862 44.2331 78.3862 44.1914L76.4839 45.5664C76.5672 45.819 76.6844 46.0065 76.8354 46.1289C76.9865 46.2513 77.1622 46.3125 77.3628 46.3125C77.5086 46.3125 77.644 46.2747 77.769 46.1992C77.8966 46.1237 78.006 46.0104 78.0971 45.8594C78.1909 45.7057 78.2638 45.513 78.3159 45.2812C78.368 45.0469 78.394 44.7721 78.394 44.457ZM83.9367 44.4258C83.9367 44.8451 83.8911 45.2201 83.8 45.5508C83.7089 45.8815 83.5747 46.1615 83.3977 46.3906C83.2232 46.6172 83.0096 46.7904 82.757 46.9102C82.5044 47.0299 82.2154 47.0898 81.8898 47.0898C81.6086 47.0898 81.3495 47.0404 81.1125 46.9414C80.8755 46.8424 80.6711 46.6875 80.4992 46.4766C80.3273 46.263 80.1932 45.9909 80.0969 45.6602C80.0005 45.3294 79.9523 44.9336 79.9523 44.4727C79.9523 44.0534 79.9979 43.6784 80.0891 43.3477C80.1828 43.0169 80.3169 42.7383 80.4914 42.5117C80.6659 42.2826 80.8807 42.1081 81.1359 41.9883C81.3911 41.8685 81.6802 41.8086 82.0031 41.8086C82.2844 41.8086 82.5435 41.8581 82.7805 41.957C83.0174 42.056 83.2206 42.2109 83.3898 42.4219C83.5617 42.6328 83.6958 42.9036 83.7922 43.2344C83.8885 43.5651 83.9367 43.9622 83.9367 44.4258ZM80.9133 44.4414C80.9133 44.4935 80.9133 44.543 80.9133 44.5898C80.9133 44.6341 80.9159 44.6797 80.9211 44.7266L82.8352 43.3438C82.744 43.0859 82.6229 42.8958 82.4719 42.7734C82.3234 42.6484 82.1477 42.5859 81.9445 42.5859C81.7987 42.5859 81.6633 42.6237 81.5383 42.6992C81.4133 42.7721 81.3039 42.8854 81.2102 43.0391C81.119 43.1927 81.0461 43.3854 80.9914 43.6172C80.9393 43.849 80.9133 44.1237 80.9133 44.4414ZM82.9758 44.457C82.9758 44.4128 82.9745 44.3685 82.9719 44.3242C82.9693 44.2773 82.968 44.2331 82.968 44.1914L81.0656 45.5664C81.149 45.819 81.2661 46.0065 81.4172 46.1289C81.5682 46.2513 81.744 46.3125 81.9445 46.3125C82.0904 46.3125 82.2258 46.2747 82.3508 46.1992C82.4784 46.1237 82.5878 46.0104 82.6789 45.8594C82.7727 45.7057 82.8456 45.513 82.8977 45.2812C82.9497 45.0469 82.9758 44.7721 82.9758 44.457ZM88.5185 44.4258C88.5185 44.8451 88.4729 45.2201 88.3818 45.5508C88.2906 45.8815 88.1565 46.1615 87.9794 46.3906C87.8049 46.6172 87.5914 46.7904 87.3388 46.9102C87.0862 47.0299 86.7971 47.0898 86.4716 47.0898C86.1904 47.0898 85.9313 47.0404 85.6943 46.9414C85.4573 46.8424 85.2529 46.6875 85.081 46.4766C84.9091 46.263 84.775 45.9909 84.6786 45.6602C84.5823 45.3294 84.5341 44.9336 84.5341 44.4727C84.5341 44.0534 84.5797 43.6784 84.6708 43.3477C84.7646 43.0169 84.8987 42.7383 85.0732 42.5117C85.2477 42.2826 85.4625 42.1081 85.7177 41.9883C85.9729 41.8685 86.262 41.8086 86.5849 41.8086C86.8661 41.8086 87.1253 41.8581 87.3622 41.957C87.5992 42.056 87.8023 42.2109 87.9716 42.4219C88.1435 42.6328 88.2776 42.9036 88.374 43.2344C88.4703 43.5651 88.5185 43.9622 88.5185 44.4258ZM85.4951 44.4414C85.4951 44.4935 85.4951 44.543 85.4951 44.5898C85.4951 44.6341 85.4977 44.6797 85.5029 44.7266L87.4169 43.3438C87.3258 43.0859 87.2047 42.8958 87.0536 42.7734C86.9052 42.6484 86.7294 42.5859 86.5263 42.5859C86.3805 42.5859 86.2451 42.6237 86.1201 42.6992C85.9951 42.7721 85.8857 42.8854 85.7919 43.0391C85.7008 43.1927 85.6279 43.3854 85.5732 43.6172C85.5211 43.849 85.4951 44.1237 85.4951 44.4414ZM87.5576 44.457C87.5576 44.4128 87.5563 44.3685 87.5536 44.3242C87.551 44.2773 87.5497 44.2331 87.5497 44.1914L85.6474 45.5664C85.7307 45.819 85.8479 46.0065 85.999 46.1289C86.15 46.2513 86.3258 46.3125 86.5263 46.3125C86.6721 46.3125 86.8076 46.2747 86.9326 46.1992C87.0602 46.1237 87.1695 46.0104 87.2607 45.8594C87.3544 45.7057 87.4273 45.513 87.4794 45.2812C87.5315 45.0469 87.5576 44.7721 87.5576 44.457ZM89.4128 47V46.2969L90.6198 45.0898C90.8464 44.8633 91.0273 44.668 91.1628 44.5039C91.3008 44.3398 91.4063 44.194 91.4792 44.0664C91.5547 43.9362 91.6042 43.8164 91.6276 43.707C91.651 43.5977 91.6628 43.4844 91.6628 43.3672C91.6628 43.2708 91.6471 43.1797 91.6159 43.0938C91.5846 43.0052 91.5391 42.9297 91.4792 42.8672C91.4193 42.8021 91.3438 42.7513 91.2526 42.7148C91.1615 42.6758 91.0573 42.6562 90.9401 42.6562C90.7396 42.6562 90.5534 42.7005 90.3815 42.7891C90.2096 42.875 90.0469 42.9909 89.8932 43.1367L89.3893 42.4883C89.6107 42.2826 89.8594 42.1185 90.1354 41.9961C90.4141 41.8711 90.7148 41.8086 91.0378 41.8086C91.2878 41.8086 91.5143 41.8411 91.7175 41.9062C91.9206 41.9688 92.0938 42.0625 92.237 42.1875C92.3828 42.3125 92.4948 42.4688 92.5729 42.6562C92.6536 42.8438 92.694 43.0599 92.694 43.3047C92.694 43.5078 92.6667 43.6979 92.612 43.875C92.5573 44.0495 92.4779 44.2201 92.3737 44.3867C92.2695 44.5534 92.1406 44.7201 91.987 44.8867C91.8359 45.0534 91.6628 45.2292 91.4675 45.4141L90.7253 46.1211H92.8776V47H89.4128Z" fill="#454D58"/>
<rect x="185" y="37" width="29.0909" height="16" rx="5" fill="#83C5BE"/>
<path d="M190.191 44.4258C190.191 44.8451 190.146 45.2201 190.055 45.5508C189.964 45.8815 189.829 46.1615 189.652 46.3906C189.478 46.6172 189.264 46.7904 189.012 46.9102C188.759 47.0299 188.47 47.0898 188.145 47.0898C187.863 47.0898 187.604 47.0404 187.367 46.9414C187.13 46.8424 186.926 46.6875 186.754 46.4766C186.582 46.263 186.448 45.9909 186.352 45.6602C186.255 45.3294 186.207 44.9336 186.207 44.4727C186.207 44.0534 186.253 43.6784 186.344 43.3477C186.438 43.0169 186.572 42.7383 186.746 42.5117C186.921 42.2826 187.135 42.1081 187.391 41.9883C187.646 41.8685 187.935 41.8086 188.258 41.8086C188.539 41.8086 188.798 41.8581 189.035 41.957C189.272 42.056 189.475 42.2109 189.645 42.4219C189.816 42.6328 189.951 42.9036 190.047 43.2344C190.143 43.5651 190.191 43.9622 190.191 44.4258ZM187.168 44.4414C187.168 44.4935 187.168 44.543 187.168 44.5898C187.168 44.6341 187.171 44.6797 187.176 44.7266L189.09 43.3438C188.999 43.0859 188.878 42.8958 188.727 42.7734C188.578 42.6484 188.402 42.5859 188.199 42.5859C188.053 42.5859 187.918 42.6237 187.793 42.6992C187.668 42.7721 187.559 42.8854 187.465 43.0391C187.374 43.1927 187.301 43.3854 187.246 43.6172C187.194 43.849 187.168 44.1237 187.168 44.4414ZM189.23 44.457C189.23 44.4128 189.229 44.3685 189.227 44.3242C189.224 44.2773 189.223 44.2331 189.223 44.1914L187.32 45.5664C187.404 45.819 187.521 46.0065 187.672 46.1289C187.823 46.2513 187.999 46.3125 188.199 46.3125C188.345 46.3125 188.48 46.2747 188.605 46.1992C188.733 46.1237 188.842 46.0104 188.934 45.8594C189.027 45.7057 189.1 45.513 189.152 45.2812C189.204 45.0469 189.23 44.7721 189.23 44.457ZM193.679 47L192.773 45.6641L191.863 47H190.711L192.199 45L190.789 43.0312H191.949L192.84 44.3359L193.718 43.0312H194.789L193.422 44.9922L194.863 47H193.679ZM199.355 44.4258C199.355 44.8451 199.309 45.2201 199.218 45.5508C199.127 45.8815 198.993 46.1615 198.816 46.3906C198.641 46.6172 198.428 46.7904 198.175 46.9102C197.923 47.0299 197.634 47.0898 197.308 47.0898C197.027 47.0898 196.768 47.0404 196.531 46.9414C196.294 46.8424 196.089 46.6875 195.917 46.4766C195.746 46.263 195.611 45.9909 195.515 45.6602C195.419 45.3294 195.371 44.9336 195.371 44.4727C195.371 44.0534 195.416 43.6784 195.507 43.3477C195.601 43.0169 195.735 42.7383 195.91 42.5117C196.084 42.2826 196.299 42.1081 196.554 41.9883C196.809 41.8685 197.098 41.8086 197.421 41.8086C197.703 41.8086 197.962 41.8581 198.199 41.957C198.436 42.056 198.639 42.2109 198.808 42.4219C198.98 42.6328 199.114 42.9036 199.21 43.2344C199.307 43.5651 199.355 43.9622 199.355 44.4258ZM196.332 44.4414C196.332 44.4935 196.332 44.543 196.332 44.5898C196.332 44.6341 196.334 44.6797 196.339 44.7266L198.253 43.3438C198.162 43.0859 198.041 42.8958 197.89 42.7734C197.742 42.6484 197.566 42.5859 197.363 42.5859C197.217 42.5859 197.082 42.6237 196.957 42.6992C196.832 42.7721 196.722 42.8854 196.628 43.0391C196.537 43.1927 196.464 43.3854 196.41 43.6172C196.358 43.849 196.332 44.1237 196.332 44.4414ZM198.394 44.457C198.394 44.4128 198.393 44.3685 198.39 44.3242C198.388 44.2773 198.386 44.2331 198.386 44.1914L196.484 45.5664C196.567 45.819 196.684 46.0065 196.835 46.1289C196.986 46.2513 197.162 46.3125 197.363 46.3125C197.509 46.3125 197.644 46.2747 197.769 46.1992C197.897 46.1237 198.006 46.0104 198.097 45.8594C198.191 45.7057 198.264 45.513 198.316 45.2812C198.368 45.0469 198.394 44.7721 198.394 44.457ZM203.937 44.4258C203.937 44.8451 203.891 45.2201 203.8 45.5508C203.709 45.8815 203.575 46.1615 203.398 46.3906C203.223 46.6172 203.01 46.7904 202.757 46.9102C202.504 47.0299 202.215 47.0898 201.89 47.0898C201.609 47.0898 201.349 47.0404 201.113 46.9414C200.876 46.8424 200.671 46.6875 200.499 46.4766C200.327 46.263 200.193 45.9909 200.097 45.6602C200.001 45.3294 199.952 44.9336 199.952 44.4727C199.952 44.0534 199.998 43.6784 200.089 43.3477C200.183 43.0169 200.317 42.7383 200.491 42.5117C200.666 42.2826 200.881 42.1081 201.136 41.9883C201.391 41.8685 201.68 41.8086 202.003 41.8086C202.284 41.8086 202.543 41.8581 202.78 41.957C203.017 42.056 203.221 42.2109 203.39 42.4219C203.562 42.6328 203.696 42.9036 203.792 43.2344C203.889 43.5651 203.937 43.9622 203.937 44.4258ZM200.913 44.4414C200.913 44.4935 200.913 44.543 200.913 44.5898C200.913 44.6341 200.916 44.6797 200.921 44.7266L202.835 43.3438C202.744 43.0859 202.623 42.8958 202.472 42.7734C202.323 42.6484 202.148 42.5859 201.945 42.5859C201.799 42.5859 201.663 42.6237 201.538 42.6992C201.413 42.7721 201.304 42.8854 201.21 43.0391C201.119 43.1927 201.046 43.3854 200.991 43.6172C200.939 43.849 200.913 44.1237 200.913 44.4414ZM202.976 44.457C202.976 44.4128 202.974 44.3685 202.972 44.3242C202.969 44.2773 202.968 44.2331 202.968 44.1914L201.066 45.5664C201.149 45.819 201.266 46.0065 201.417 46.1289C201.568 46.2513 201.744 46.3125 201.945 46.3125C202.09 46.3125 202.226 46.2747 202.351 46.1992C202.478 46.1237 202.588 46.0104 202.679 45.8594C202.773 45.7057 202.846 45.513 202.898 45.2812C202.95 45.0469 202.976 44.7721 202.976 44.457ZM208.518 44.4258C208.518 44.8451 208.473 45.2201 208.382 45.5508C208.291 45.8815 208.157 46.1615 207.979 46.3906C207.805 46.6172 207.591 46.7904 207.339 46.9102C207.086 47.0299 206.797 47.0898 206.472 47.0898C206.19 47.0898 205.931 47.0404 205.694 46.9414C205.457 46.8424 205.253 46.6875 205.081 46.4766C204.909 46.263 204.775 45.9909 204.679 45.6602C204.582 45.3294 204.534 44.9336 204.534 44.4727C204.534 44.0534 204.58 43.6784 204.671 43.3477C204.765 43.0169 204.899 42.7383 205.073 42.5117C205.248 42.2826 205.463 42.1081 205.718 41.9883C205.973 41.8685 206.262 41.8086 206.585 41.8086C206.866 41.8086 207.125 41.8581 207.362 41.957C207.599 42.056 207.802 42.2109 207.972 42.4219C208.143 42.6328 208.278 42.9036 208.374 43.2344C208.47 43.5651 208.518 43.9622 208.518 44.4258ZM205.495 44.4414C205.495 44.4935 205.495 44.543 205.495 44.5898C205.495 44.6341 205.498 44.6797 205.503 44.7266L207.417 43.3438C207.326 43.0859 207.205 42.8958 207.054 42.7734C206.905 42.6484 206.729 42.5859 206.526 42.5859C206.38 42.5859 206.245 42.6237 206.12 42.6992C205.995 42.7721 205.886 42.8854 205.792 43.0391C205.701 43.1927 205.628 43.3854 205.573 43.6172C205.521 43.849 205.495 44.1237 205.495 44.4414ZM207.558 44.457C207.558 44.4128 207.556 44.3685 207.554 44.3242C207.551 44.2773 207.55 44.2331 207.55 44.1914L205.647 45.5664C205.731 45.819 205.848 46.0065 205.999 46.1289C206.15 46.2513 206.326 46.3125 206.526 46.3125C206.672 46.3125 206.808 46.2747 206.933 46.1992C207.06 46.1237 207.17 46.0104 207.261 45.8594C207.354 45.7057 207.427 45.513 207.479 45.2812C207.532 45.0469 207.558 44.7721 207.558 44.457ZM213.007 45.3828C213.007 45.6406 212.96 45.875 212.866 46.0859C212.772 46.2943 212.642 46.474 212.475 46.625C212.311 46.7734 212.115 46.888 211.885 46.9688C211.656 47.0495 211.405 47.0898 211.132 47.0898C210.535 47.0898 210.079 46.9023 209.764 46.5273C209.449 46.1523 209.292 45.5794 209.292 44.8086C209.292 44.5273 209.309 44.2604 209.342 44.0078C209.376 43.7526 209.432 43.5182 209.51 43.3047C209.591 43.0885 209.698 42.8932 209.831 42.7188C209.966 42.5443 210.134 42.3971 210.335 42.2773C210.535 42.1549 210.772 42.0612 211.046 41.9961C211.319 41.9284 211.637 41.8945 211.999 41.8945H212.581V42.7031H211.901C211.62 42.7031 211.384 42.7318 211.194 42.7891C211.004 42.8464 210.849 42.9284 210.729 43.0352C210.609 43.1419 210.52 43.2721 210.46 43.4258C210.4 43.5794 210.361 43.7526 210.342 43.9453L210.335 44.0391C210.47 43.974 210.624 43.9206 210.796 43.8789C210.97 43.8372 211.152 43.8164 211.342 43.8164C211.618 43.8164 211.861 43.8529 212.069 43.9258C212.277 43.9961 212.451 44.099 212.589 44.2344C212.729 44.3698 212.833 44.5339 212.901 44.7266C212.971 44.9193 213.007 45.138 213.007 45.3828ZM212.014 45.4258C212.014 45.306 211.999 45.1966 211.967 45.0977C211.936 44.9961 211.887 44.9102 211.819 44.8398C211.754 44.7669 211.669 44.7109 211.565 44.6719C211.464 44.6302 211.341 44.6094 211.198 44.6094C211.115 44.6094 211.031 44.6172 210.948 44.6328C210.867 44.6458 210.788 44.6641 210.71 44.6875C210.634 44.7109 210.561 44.737 210.491 44.7656C210.423 44.7943 210.362 44.8242 210.307 44.8555C210.307 45.1185 210.326 45.3411 210.362 45.5234C210.398 45.7031 210.453 45.8503 210.526 45.9648C210.602 46.0794 210.694 46.1628 210.803 46.2148C210.915 46.2643 211.044 46.2891 211.19 46.2891C211.315 46.2891 211.428 46.2682 211.53 46.2266C211.632 46.1849 211.717 46.1263 211.788 46.0508C211.861 45.9727 211.917 45.8815 211.956 45.7773C211.995 45.6706 212.014 45.5534 212.014 45.4258Z" fill="#454D58"/>
<rect x="35" y="37" width="29.0909" height="16" rx="5" fill="#C4C4C4"/>
<path d="M40.1914 44.4258C40.1914 44.8451 40.1458 45.2201 40.0547 45.5508C39.9635 45.8815 39.8294 46.1615 39.6523 46.3906C39.4779 46.6172 39.2643 46.7904 39.0117 46.9102C38.7591 47.0299 38.4701 47.0898 38.1445 47.0898C37.8633 47.0898 37.6042 47.0404 37.3672 46.9414C37.1302 46.8424 36.9258 46.6875 36.7539 46.4766C36.582 46.263 36.4479 45.9909 36.3516 45.6602C36.2552 45.3294 36.207 44.9336 36.207 44.4727C36.207 44.0534 36.2526 43.6784 36.3438 43.3477C36.4375 43.0169 36.5716 42.7383 36.7461 42.5117C36.9206 42.2826 37.1354 42.1081 37.3906 41.9883C37.6458 41.8685 37.9349 41.8086 38.2578 41.8086C38.5391 41.8086 38.7982 41.8581 39.0352 41.957C39.2721 42.056 39.4753 42.2109 39.6445 42.4219C39.8164 42.6328 39.9505 42.9036 40.0469 43.2344C40.1432 43.5651 40.1914 43.9622 40.1914 44.4258ZM37.168 44.4414C37.168 44.4935 37.168 44.543 37.168 44.5898C37.168 44.6341 37.1706 44.6797 37.1758 44.7266L39.0898 43.3438C38.9987 43.0859 38.8776 42.8958 38.7266 42.7734C38.5781 42.6484 38.4023 42.5859 38.1992 42.5859C38.0534 42.5859 37.918 42.6237 37.793 42.6992C37.668 42.7721 37.5586 42.8854 37.4648 43.0391C37.3737 43.1927 37.3008 43.3854 37.2461 43.6172C37.194 43.849 37.168 44.1237 37.168 44.4414ZM39.2305 44.457C39.2305 44.4128 39.2292 44.3685 39.2266 44.3242C39.224 44.2773 39.2227 44.2331 39.2227 44.1914L37.3203 45.5664C37.4036 45.819 37.5208 46.0065 37.6719 46.1289C37.8229 46.2513 37.9987 46.3125 38.1992 46.3125C38.3451 46.3125 38.4805 46.2747 38.6055 46.1992C38.7331 46.1237 38.8424 46.0104 38.9336 45.8594C39.0273 45.7057 39.1003 45.513 39.1523 45.2812C39.2044 45.0469 39.2305 44.7721 39.2305 44.457ZM43.6794 47L42.7732 45.6641L41.863 47H40.7107L42.199 45L40.7888 43.0312H41.949L42.8396 44.3359L43.7185 43.0312H44.7888L43.4216 44.9922L44.863 47H43.6794ZM49.3549 44.4258C49.3549 44.8451 49.3094 45.2201 49.2182 45.5508C49.1271 45.8815 48.993 46.1615 48.8159 46.3906C48.6414 46.6172 48.4279 46.7904 48.1753 46.9102C47.9227 47.0299 47.6336 47.0898 47.3081 47.0898C47.0268 47.0898 46.7677 47.0404 46.5307 46.9414C46.2938 46.8424 46.0893 46.6875 45.9174 46.4766C45.7456 46.263 45.6115 45.9909 45.5151 45.6602C45.4188 45.3294 45.3706 44.9336 45.3706 44.4727C45.3706 44.0534 45.4161 43.6784 45.5073 43.3477C45.601 43.0169 45.7352 42.7383 45.9096 42.5117C46.0841 42.2826 46.299 42.1081 46.5542 41.9883C46.8094 41.8685 47.0984 41.8086 47.4214 41.8086C47.7026 41.8086 47.9617 41.8581 48.1987 41.957C48.4357 42.056 48.6388 42.2109 48.8081 42.4219C48.9799 42.6328 49.1141 42.9036 49.2104 43.2344C49.3068 43.5651 49.3549 43.9622 49.3549 44.4258ZM46.3315 44.4414C46.3315 44.4935 46.3315 44.543 46.3315 44.5898C46.3315 44.6341 46.3341 44.6797 46.3393 44.7266L48.2534 43.3438C48.1622 43.0859 48.0411 42.8958 47.8901 42.7734C47.7417 42.6484 47.5659 42.5859 47.3628 42.5859C47.2169 42.5859 47.0815 42.6237 46.9565 42.6992C46.8315 42.7721 46.7221 42.8854 46.6284 43.0391C46.5372 43.1927 46.4643 43.3854 46.4096 43.6172C46.3576 43.849 46.3315 44.1237 46.3315 44.4414ZM48.394 44.457C48.394 44.4128 48.3927 44.3685 48.3901 44.3242C48.3875 44.2773 48.3862 44.2331 48.3862 44.1914L46.4839 45.5664C46.5672 45.819 46.6844 46.0065 46.8354 46.1289C46.9865 46.2513 47.1622 46.3125 47.3628 46.3125C47.5086 46.3125 47.644 46.2747 47.769 46.1992C47.8966 46.1237 48.006 46.0104 48.0971 45.8594C48.1909 45.7057 48.2638 45.513 48.3159 45.2812C48.368 45.0469 48.394 44.7721 48.394 44.457ZM53.9367 44.4258C53.9367 44.8451 53.8911 45.2201 53.8 45.5508C53.7089 45.8815 53.5747 46.1615 53.3977 46.3906C53.2232 46.6172 53.0096 46.7904 52.757 46.9102C52.5044 47.0299 52.2154 47.0898 51.8898 47.0898C51.6086 47.0898 51.3495 47.0404 51.1125 46.9414C50.8755 46.8424 50.6711 46.6875 50.4992 46.4766C50.3273 46.263 50.1932 45.9909 50.0969 45.6602C50.0005 45.3294 49.9523 44.9336 49.9523 44.4727C49.9523 44.0534 49.9979 43.6784 50.0891 43.3477C50.1828 43.0169 50.3169 42.7383 50.4914 42.5117C50.6659 42.2826 50.8807 42.1081 51.1359 41.9883C51.3911 41.8685 51.6802 41.8086 52.0031 41.8086C52.2844 41.8086 52.5435 41.8581 52.7805 41.957C53.0174 42.056 53.2206 42.2109 53.3898 42.4219C53.5617 42.6328 53.6958 42.9036 53.7922 43.2344C53.8885 43.5651 53.9367 43.9622 53.9367 44.4258ZM50.9133 44.4414C50.9133 44.4935 50.9133 44.543 50.9133 44.5898C50.9133 44.6341 50.9159 44.6797 50.9211 44.7266L52.8352 43.3438C52.744 43.0859 52.6229 42.8958 52.4719 42.7734C52.3234 42.6484 52.1477 42.5859 51.9445 42.5859C51.7987 42.5859 51.6633 42.6237 51.5383 42.6992C51.4133 42.7721 51.3039 42.8854 51.2102 43.0391C51.119 43.1927 51.0461 43.3854 50.9914 43.6172C50.9393 43.849 50.9133 44.1237 50.9133 44.4414ZM52.9758 44.457C52.9758 44.4128 52.9745 44.3685 52.9719 44.3242C52.9693 44.2773 52.968 44.2331 52.968 44.1914L51.0656 45.5664C51.149 45.819 51.2661 46.0065 51.4172 46.1289C51.5682 46.2513 51.744 46.3125 51.9445 46.3125C52.0904 46.3125 52.2258 46.2747 52.3508 46.1992C52.4784 46.1237 52.5878 46.0104 52.6789 45.8594C52.7727 45.7057 52.8456 45.513 52.8977 45.2812C52.9497 45.0469 52.9758 44.7721 52.9758 44.457ZM58.5185 44.4258C58.5185 44.8451 58.4729 45.2201 58.3818 45.5508C58.2906 45.8815 58.1565 46.1615 57.9794 46.3906C57.8049 46.6172 57.5914 46.7904 57.3388 46.9102C57.0862 47.0299 56.7971 47.0898 56.4716 47.0898C56.1904 47.0898 55.9313 47.0404 55.6943 46.9414C55.4573 46.8424 55.2529 46.6875 55.081 46.4766C54.9091 46.263 54.775 45.9909 54.6786 45.6602C54.5823 45.3294 54.5341 44.9336 54.5341 44.4727C54.5341 44.0534 54.5797 43.6784 54.6708 43.3477C54.7646 43.0169 54.8987 42.7383 55.0732 42.5117C55.2477 42.2826 55.4625 42.1081 55.7177 41.9883C55.9729 41.8685 56.262 41.8086 56.5849 41.8086C56.8661 41.8086 57.1253 41.8581 57.3622 41.957C57.5992 42.056 57.8023 42.2109 57.9716 42.4219C58.1435 42.6328 58.2776 42.9036 58.374 43.2344C58.4703 43.5651 58.5185 43.9622 58.5185 44.4258ZM55.4951 44.4414C55.4951 44.4935 55.4951 44.543 55.4951 44.5898C55.4951 44.6341 55.4977 44.6797 55.5029 44.7266L57.4169 43.3438C57.3258 43.0859 57.2047 42.8958 57.0536 42.7734C56.9052 42.6484 56.7294 42.5859 56.5263 42.5859C56.3805 42.5859 56.2451 42.6237 56.1201 42.6992C55.9951 42.7721 55.8857 42.8854 55.7919 43.0391C55.7008 43.1927 55.6279 43.3854 55.5732 43.6172C55.5211 43.849 55.4951 44.1237 55.4951 44.4414ZM57.5576 44.457C57.5576 44.4128 57.5563 44.3685 57.5536 44.3242C57.551 44.2773 57.5497 44.2331 57.5497 44.1914L55.6474 45.5664C55.7307 45.819 55.8479 46.0065 55.999 46.1289C56.15 46.2513 56.3258 46.3125 56.5263 46.3125C56.6721 46.3125 56.8076 46.2747 56.9326 46.1992C57.0602 46.1237 57.1695 46.0104 57.2607 45.8594C57.3544 45.7057 57.4273 45.513 57.4794 45.2812C57.5315 45.0469 57.5576 44.7721 57.5576 44.457ZM59.5026 47V46.1523H60.8034V42.8711L59.6706 43.4961L59.3581 42.7188L60.9792 41.8633H61.7799V46.1523H62.901V47H59.5026Z" fill="#454D58"/>
<rect x="155" y="37" width="29.0909" height="16" rx="5" fill="#83C5BE"/>
<path d="M160.191 44.4258C160.191 44.8451 160.146 45.2201 160.055 45.5508C159.964 45.8815 159.829 46.1615 159.652 46.3906C159.478 46.6172 159.264 46.7904 159.012 46.9102C158.759 47.0299 158.47 47.0898 158.145 47.0898C157.863 47.0898 157.604 47.0404 157.367 46.9414C157.13 46.8424 156.926 46.6875 156.754 46.4766C156.582 46.263 156.448 45.9909 156.352 45.6602C156.255 45.3294 156.207 44.9336 156.207 44.4727C156.207 44.0534 156.253 43.6784 156.344 43.3477C156.438 43.0169 156.572 42.7383 156.746 42.5117C156.921 42.2826 157.135 42.1081 157.391 41.9883C157.646 41.8685 157.935 41.8086 158.258 41.8086C158.539 41.8086 158.798 41.8581 159.035 41.957C159.272 42.056 159.475 42.2109 159.645 42.4219C159.816 42.6328 159.951 42.9036 160.047 43.2344C160.143 43.5651 160.191 43.9622 160.191 44.4258ZM157.168 44.4414C157.168 44.4935 157.168 44.543 157.168 44.5898C157.168 44.6341 157.171 44.6797 157.176 44.7266L159.09 43.3438C158.999 43.0859 158.878 42.8958 158.727 42.7734C158.578 42.6484 158.402 42.5859 158.199 42.5859C158.053 42.5859 157.918 42.6237 157.793 42.6992C157.668 42.7721 157.559 42.8854 157.465 43.0391C157.374 43.1927 157.301 43.3854 157.246 43.6172C157.194 43.849 157.168 44.1237 157.168 44.4414ZM159.23 44.457C159.23 44.4128 159.229 44.3685 159.227 44.3242C159.224 44.2773 159.223 44.2331 159.223 44.1914L157.32 45.5664C157.404 45.819 157.521 46.0065 157.672 46.1289C157.823 46.2513 157.999 46.3125 158.199 46.3125C158.345 46.3125 158.48 46.2747 158.605 46.1992C158.733 46.1237 158.842 46.0104 158.934 45.8594C159.027 45.7057 159.1 45.513 159.152 45.2812C159.204 45.0469 159.23 44.7721 159.23 44.457ZM163.679 47L162.773 45.6641L161.863 47H160.711L162.199 45L160.789 43.0312H161.949L162.84 44.3359L163.718 43.0312H164.789L163.422 44.9922L164.863 47H163.679ZM169.355 44.4258C169.355 44.8451 169.309 45.2201 169.218 45.5508C169.127 45.8815 168.993 46.1615 168.816 46.3906C168.641 46.6172 168.428 46.7904 168.175 46.9102C167.923 47.0299 167.634 47.0898 167.308 47.0898C167.027 47.0898 166.768 47.0404 166.531 46.9414C166.294 46.8424 166.089 46.6875 165.917 46.4766C165.746 46.263 165.611 45.9909 165.515 45.6602C165.419 45.3294 165.371 44.9336 165.371 44.4727C165.371 44.0534 165.416 43.6784 165.507 43.3477C165.601 43.0169 165.735 42.7383 165.91 42.5117C166.084 42.2826 166.299 42.1081 166.554 41.9883C166.809 41.8685 167.098 41.8086 167.421 41.8086C167.703 41.8086 167.962 41.8581 168.199 41.957C168.436 42.056 168.639 42.2109 168.808 42.4219C168.98 42.6328 169.114 42.9036 169.21 43.2344C169.307 43.5651 169.355 43.9622 169.355 44.4258ZM166.332 44.4414C166.332 44.4935 166.332 44.543 166.332 44.5898C166.332 44.6341 166.334 44.6797 166.339 44.7266L168.253 43.3438C168.162 43.0859 168.041 42.8958 167.89 42.7734C167.742 42.6484 167.566 42.5859 167.363 42.5859C167.217 42.5859 167.082 42.6237 166.957 42.6992C166.832 42.7721 166.722 42.8854 166.628 43.0391C166.537 43.1927 166.464 43.3854 166.41 43.6172C166.358 43.849 166.332 44.1237 166.332 44.4414ZM168.394 44.457C168.394 44.4128 168.393 44.3685 168.39 44.3242C168.388 44.2773 168.386 44.2331 168.386 44.1914L166.484 45.5664C166.567 45.819 166.684 46.0065 166.835 46.1289C166.986 46.2513 167.162 46.3125 167.363 46.3125C167.509 46.3125 167.644 46.2747 167.769 46.1992C167.897 46.1237 168.006 46.0104 168.097 45.8594C168.191 45.7057 168.264 45.513 168.316 45.2812C168.368 45.0469 168.394 44.7721 168.394 44.457ZM173.937 44.4258C173.937 44.8451 173.891 45.2201 173.8 45.5508C173.709 45.8815 173.575 46.1615 173.398 46.3906C173.223 46.6172 173.01 46.7904 172.757 46.9102C172.504 47.0299 172.215 47.0898 171.89 47.0898C171.609 47.0898 171.349 47.0404 171.113 46.9414C170.876 46.8424 170.671 46.6875 170.499 46.4766C170.327 46.263 170.193 45.9909 170.097 45.6602C170.001 45.3294 169.952 44.9336 169.952 44.4727C169.952 44.0534 169.998 43.6784 170.089 43.3477C170.183 43.0169 170.317 42.7383 170.491 42.5117C170.666 42.2826 170.881 42.1081 171.136 41.9883C171.391 41.8685 171.68 41.8086 172.003 41.8086C172.284 41.8086 172.543 41.8581 172.78 41.957C173.017 42.056 173.221 42.2109 173.39 42.4219C173.562 42.6328 173.696 42.9036 173.792 43.2344C173.889 43.5651 173.937 43.9622 173.937 44.4258ZM170.913 44.4414C170.913 44.4935 170.913 44.543 170.913 44.5898C170.913 44.6341 170.916 44.6797 170.921 44.7266L172.835 43.3438C172.744 43.0859 172.623 42.8958 172.472 42.7734C172.323 42.6484 172.148 42.5859 171.945 42.5859C171.799 42.5859 171.663 42.6237 171.538 42.6992C171.413 42.7721 171.304 42.8854 171.21 43.0391C171.119 43.1927 171.046 43.3854 170.991 43.6172C170.939 43.849 170.913 44.1237 170.913 44.4414ZM172.976 44.457C172.976 44.4128 172.974 44.3685 172.972 44.3242C172.969 44.2773 172.968 44.2331 172.968 44.1914L171.066 45.5664C171.149 45.819 171.266 46.0065 171.417 46.1289C171.568 46.2513 171.744 46.3125 171.945 46.3125C172.09 46.3125 172.226 46.2747 172.351 46.1992C172.478 46.1237 172.588 46.0104 172.679 45.8594C172.773 45.7057 172.846 45.513 172.898 45.2812C172.95 45.0469 172.976 44.7721 172.976 44.457ZM178.518 44.4258C178.518 44.8451 178.473 45.2201 178.382 45.5508C178.291 45.8815 178.157 46.1615 177.979 46.3906C177.805 46.6172 177.591 46.7904 177.339 46.9102C177.086 47.0299 176.797 47.0898 176.472 47.0898C176.19 47.0898 175.931 47.0404 175.694 46.9414C175.457 46.8424 175.253 46.6875 175.081 46.4766C174.909 46.263 174.775 45.9909 174.679 45.6602C174.582 45.3294 174.534 44.9336 174.534 44.4727C174.534 44.0534 174.58 43.6784 174.671 43.3477C174.765 43.0169 174.899 42.7383 175.073 42.5117C175.248 42.2826 175.463 42.1081 175.718 41.9883C175.973 41.8685 176.262 41.8086 176.585 41.8086C176.866 41.8086 177.125 41.8581 177.362 41.957C177.599 42.056 177.802 42.2109 177.972 42.4219C178.143 42.6328 178.278 42.9036 178.374 43.2344C178.47 43.5651 178.518 43.9622 178.518 44.4258ZM175.495 44.4414C175.495 44.4935 175.495 44.543 175.495 44.5898C175.495 44.6341 175.498 44.6797 175.503 44.7266L177.417 43.3438C177.326 43.0859 177.205 42.8958 177.054 42.7734C176.905 42.6484 176.729 42.5859 176.526 42.5859C176.38 42.5859 176.245 42.6237 176.12 42.6992C175.995 42.7721 175.886 42.8854 175.792 43.0391C175.701 43.1927 175.628 43.3854 175.573 43.6172C175.521 43.849 175.495 44.1237 175.495 44.4414ZM177.558 44.457C177.558 44.4128 177.556 44.3685 177.554 44.3242C177.551 44.2773 177.55 44.2331 177.55 44.1914L175.647 45.5664C175.731 45.819 175.848 46.0065 175.999 46.1289C176.15 46.2513 176.326 46.3125 176.526 46.3125C176.672 46.3125 176.808 46.2747 176.933 46.1992C177.06 46.1237 177.17 46.0104 177.261 45.8594C177.354 45.7057 177.427 45.513 177.479 45.2812C177.532 45.0469 177.558 44.7721 177.558 44.457ZM182.839 45.3672C182.839 45.6406 182.781 45.8841 182.667 46.0977C182.552 46.3086 182.393 46.487 182.19 46.6328C181.987 46.7786 181.747 46.8893 181.471 46.9648C181.195 47.0404 180.896 47.0781 180.573 47.0781C180.492 47.0781 180.406 47.0755 180.315 47.0703C180.224 47.0651 180.132 47.0586 180.038 47.0508C179.944 47.043 179.853 47.0326 179.764 47.0195C179.676 47.0091 179.594 46.9974 179.518 46.9844V46.1523C179.667 46.1888 179.837 46.2188 180.03 46.2422C180.223 46.263 180.419 46.2734 180.62 46.2734C181.01 46.2734 181.307 46.1992 181.51 46.0508C181.716 45.8997 181.819 45.6914 181.819 45.4258C181.819 45.1497 181.724 44.9453 181.534 44.8125C181.344 44.6771 181.036 44.6094 180.612 44.6094H179.612V41.8945H182.557V42.793H180.503V43.832H180.87C181.13 43.832 181.379 43.8555 181.616 43.9023C181.853 43.9492 182.061 44.0312 182.241 44.1484C182.423 44.263 182.568 44.4193 182.674 44.6172C182.784 44.8151 182.839 45.0651 182.839 45.3672Z" fill="#454D58"/>
<rect x="95" y="37" width="29.0909" height="16" rx="5" fill="#F6A9BD"/>
<path d="M100.191 44.4258C100.191 44.8451 100.146 45.2201 100.055 45.5508C99.9635 45.8815 99.8294 46.1615 99.6523 46.3906C99.4779 46.6172 99.2643 46.7904 99.0117 46.9102C98.7591 47.0299 98.4701 47.0898 98.1445 47.0898C97.8633 47.0898 97.6042 47.0404 97.3672 46.9414C97.1302 46.8424 96.9258 46.6875 96.7539 46.4766C96.582 46.263 96.4479 45.9909 96.3516 45.6602C96.2552 45.3294 96.207 44.9336 96.207 44.4727C96.207 44.0534 96.2526 43.6784 96.3438 43.3477C96.4375 43.0169 96.5716 42.7383 96.7461 42.5117C96.9206 42.2826 97.1354 42.1081 97.3906 41.9883C97.6458 41.8685 97.9349 41.8086 98.2578 41.8086C98.5391 41.8086 98.7982 41.8581 99.0352 41.957C99.2721 42.056 99.4753 42.2109 99.6445 42.4219C99.8164 42.6328 99.9505 42.9036 100.047 43.2344C100.143 43.5651 100.191 43.9622 100.191 44.4258ZM97.168 44.4414C97.168 44.4935 97.168 44.543 97.168 44.5898C97.168 44.6341 97.1706 44.6797 97.1758 44.7266L99.0898 43.3438C98.9987 43.0859 98.8776 42.8958 98.7266 42.7734C98.5781 42.6484 98.4023 42.5859 98.1992 42.5859C98.0534 42.5859 97.918 42.6237 97.793 42.6992C97.668 42.7721 97.5586 42.8854 97.4648 43.0391C97.3737 43.1927 97.3008 43.3854 97.2461 43.6172C97.194 43.849 97.168 44.1237 97.168 44.4414ZM99.2305 44.457C99.2305 44.4128 99.2292 44.3685 99.2266 44.3242C99.224 44.2773 99.2227 44.2331 99.2227 44.1914L97.3203 45.5664C97.4036 45.819 97.5208 46.0065 97.6719 46.1289C97.8229 46.2513 97.9987 46.3125 98.1992 46.3125C98.3451 46.3125 98.4805 46.2747 98.6055 46.1992C98.7331 46.1237 98.8424 46.0104 98.9336 45.8594C99.0273 45.7057 99.1003 45.513 99.1523 45.2812C99.2044 45.0469 99.2305 44.7721 99.2305 44.457ZM103.679 47L102.773 45.6641L101.863 47H100.711L102.199 45L100.789 43.0312H101.949L102.84 44.3359L103.718 43.0312H104.789L103.422 44.9922L104.863 47H103.679ZM109.355 44.4258C109.355 44.8451 109.309 45.2201 109.218 45.5508C109.127 45.8815 108.993 46.1615 108.816 46.3906C108.641 46.6172 108.428 46.7904 108.175 46.9102C107.923 47.0299 107.634 47.0898 107.308 47.0898C107.027 47.0898 106.768 47.0404 106.531 46.9414C106.294 46.8424 106.089 46.6875 105.917 46.4766C105.746 46.263 105.611 45.9909 105.515 45.6602C105.419 45.3294 105.371 44.9336 105.371 44.4727C105.371 44.0534 105.416 43.6784 105.507 43.3477C105.601 43.0169 105.735 42.7383 105.91 42.5117C106.084 42.2826 106.299 42.1081 106.554 41.9883C106.809 41.8685 107.098 41.8086 107.421 41.8086C107.703 41.8086 107.962 41.8581 108.199 41.957C108.436 42.056 108.639 42.2109 108.808 42.4219C108.98 42.6328 109.114 42.9036 109.21 43.2344C109.307 43.5651 109.355 43.9622 109.355 44.4258ZM106.332 44.4414C106.332 44.4935 106.332 44.543 106.332 44.5898C106.332 44.6341 106.334 44.6797 106.339 44.7266L108.253 43.3438C108.162 43.0859 108.041 42.8958 107.89 42.7734C107.742 42.6484 107.566 42.5859 107.363 42.5859C107.217 42.5859 107.082 42.6237 106.957 42.6992C106.832 42.7721 106.722 42.8854 106.628 43.0391C106.537 43.1927 106.464 43.3854 106.41 43.6172C106.358 43.849 106.332 44.1237 106.332 44.4414ZM108.394 44.457C108.394 44.4128 108.393 44.3685 108.39 44.3242C108.388 44.2773 108.386 44.2331 108.386 44.1914L106.484 45.5664C106.567 45.819 106.684 46.0065 106.835 46.1289C106.986 46.2513 107.162 46.3125 107.363 46.3125C107.509 46.3125 107.644 46.2747 107.769 46.1992C107.897 46.1237 108.006 46.0104 108.097 45.8594C108.191 45.7057 108.264 45.513 108.316 45.2812C108.368 45.0469 108.394 44.7721 108.394 44.457ZM113.937 44.4258C113.937 44.8451 113.891 45.2201 113.8 45.5508C113.709 45.8815 113.575 46.1615 113.398 46.3906C113.223 46.6172 113.01 46.7904 112.757 46.9102C112.504 47.0299 112.215 47.0898 111.89 47.0898C111.609 47.0898 111.349 47.0404 111.113 46.9414C110.876 46.8424 110.671 46.6875 110.499 46.4766C110.327 46.263 110.193 45.9909 110.097 45.6602C110.001 45.3294 109.952 44.9336 109.952 44.4727C109.952 44.0534 109.998 43.6784 110.089 43.3477C110.183 43.0169 110.317 42.7383 110.491 42.5117C110.666 42.2826 110.881 42.1081 111.136 41.9883C111.391 41.8685 111.68 41.8086 112.003 41.8086C112.284 41.8086 112.543 41.8581 112.78 41.957C113.017 42.056 113.221 42.2109 113.39 42.4219C113.562 42.6328 113.696 42.9036 113.792 43.2344C113.889 43.5651 113.937 43.9622 113.937 44.4258ZM110.913 44.4414C110.913 44.4935 110.913 44.543 110.913 44.5898C110.913 44.6341 110.916 44.6797 110.921 44.7266L112.835 43.3438C112.744 43.0859 112.623 42.8958 112.472 42.7734C112.323 42.6484 112.148 42.5859 111.945 42.5859C111.799 42.5859 111.663 42.6237 111.538 42.6992C111.413 42.7721 111.304 42.8854 111.21 43.0391C111.119 43.1927 111.046 43.3854 110.991 43.6172C110.939 43.849 110.913 44.1237 110.913 44.4414ZM112.976 44.457C112.976 44.4128 112.974 44.3685 112.972 44.3242C112.969 44.2773 112.968 44.2331 112.968 44.1914L111.066 45.5664C111.149 45.819 111.266 46.0065 111.417 46.1289C111.568 46.2513 111.744 46.3125 111.945 46.3125C112.09 46.3125 112.226 46.2747 112.351 46.1992C112.478 46.1237 112.588 46.0104 112.679 45.8594C112.773 45.7057 112.846 45.513 112.898 45.2812C112.95 45.0469 112.976 44.7721 112.976 44.457ZM118.518 44.4258C118.518 44.8451 118.473 45.2201 118.382 45.5508C118.291 45.8815 118.157 46.1615 117.979 46.3906C117.805 46.6172 117.591 46.7904 117.339 46.9102C117.086 47.0299 116.797 47.0898 116.472 47.0898C116.19 47.0898 115.931 47.0404 115.694 46.9414C115.457 46.8424 115.253 46.6875 115.081 46.4766C114.909 46.263 114.775 45.9909 114.679 45.6602C114.582 45.3294 114.534 44.9336 114.534 44.4727C114.534 44.0534 114.58 43.6784 114.671 43.3477C114.765 43.0169 114.899 42.7383 115.073 42.5117C115.248 42.2826 115.463 42.1081 115.718 41.9883C115.973 41.8685 116.262 41.8086 116.585 41.8086C116.866 41.8086 117.125 41.8581 117.362 41.957C117.599 42.056 117.802 42.2109 117.972 42.4219C118.143 42.6328 118.278 42.9036 118.374 43.2344C118.47 43.5651 118.518 43.9622 118.518 44.4258ZM115.495 44.4414C115.495 44.4935 115.495 44.543 115.495 44.5898C115.495 44.6341 115.498 44.6797 115.503 44.7266L117.417 43.3438C117.326 43.0859 117.205 42.8958 117.054 42.7734C116.905 42.6484 116.729 42.5859 116.526 42.5859C116.38 42.5859 116.245 42.6237 116.12 42.6992C115.995 42.7721 115.886 42.8854 115.792 43.0391C115.701 43.1927 115.628 43.3854 115.573 43.6172C115.521 43.849 115.495 44.1237 115.495 44.4414ZM117.558 44.457C117.558 44.4128 117.556 44.3685 117.554 44.3242C117.551 44.2773 117.55 44.2331 117.55 44.1914L115.647 45.5664C115.731 45.819 115.848 46.0065 115.999 46.1289C116.15 46.2513 116.326 46.3125 116.526 46.3125C116.672 46.3125 116.808 46.2747 116.933 46.1992C117.06 46.1237 117.17 46.0104 117.261 45.8594C117.354 45.7057 117.427 45.513 117.479 45.2812C117.532 45.0469 117.558 44.7721 117.558 44.457ZM122.893 45.4414C122.893 45.694 122.846 45.9219 122.753 46.125C122.659 46.3255 122.514 46.4974 122.319 46.6406C122.126 46.7812 121.883 46.8893 121.589 46.9648C121.294 47.0404 120.948 47.0781 120.549 47.0781C120.461 47.0781 120.367 47.0755 120.268 47.0703C120.172 47.0677 120.076 47.0625 119.979 47.0547C119.883 47.0495 119.789 47.0417 119.698 47.0312C119.607 47.0234 119.525 47.013 119.452 47V46.1719C119.616 46.2031 119.799 46.2292 120.003 46.25C120.208 46.2682 120.422 46.2773 120.643 46.2773C120.859 46.2773 121.046 46.2591 121.202 46.2227C121.358 46.1862 121.487 46.1341 121.589 46.0664C121.69 45.9961 121.764 45.9102 121.811 45.8086C121.861 45.707 121.885 45.5924 121.885 45.4648C121.885 45.3529 121.861 45.2513 121.811 45.1602C121.762 45.069 121.686 44.9922 121.585 44.9297C121.483 44.8646 121.353 44.8151 121.194 44.7812C121.038 44.7448 120.852 44.7266 120.635 44.7266H120.069V44H120.589C120.792 44 120.96 43.9805 121.092 43.9414C121.228 43.8997 121.335 43.8451 121.413 43.7773C121.493 43.7096 121.551 43.6302 121.585 43.5391C121.618 43.4453 121.635 43.3477 121.635 43.2461C121.635 43.0378 121.568 42.8802 121.432 42.7734C121.297 42.6641 121.087 42.6094 120.803 42.6094C120.6 42.6094 120.4 42.6289 120.202 42.668C120.004 42.707 119.799 42.7591 119.589 42.8242V42.0234C119.706 41.9844 119.818 41.9518 119.924 41.9258C120.031 41.8997 120.138 41.8776 120.245 41.8594C120.352 41.8411 120.46 41.8281 120.569 41.8203C120.678 41.8125 120.792 41.8086 120.909 41.8086C121.19 41.8086 121.436 41.8385 121.647 41.8984C121.861 41.9583 122.039 42.0443 122.182 42.1562C122.328 42.2656 122.438 42.3997 122.51 42.5586C122.583 42.7174 122.62 42.8945 122.62 43.0898C122.62 43.3997 122.548 43.651 122.405 43.8438C122.264 44.0339 122.066 44.1797 121.811 44.2812C121.975 44.3073 122.124 44.3529 122.257 44.418C122.389 44.4805 122.503 44.5625 122.596 44.6641C122.693 44.763 122.766 44.8776 122.815 45.0078C122.867 45.138 122.893 45.2826 122.893 45.4414Z" fill="#454D58"/>
<rect x="215" y="37" width="29.0909" height="16" rx="5" fill="#83C5BE"/>
<path d="M220.191 44.4258C220.191 44.8451 220.146 45.2201 220.055 45.5508C219.964 45.8815 219.829 46.1615 219.652 46.3906C219.478 46.6172 219.264 46.7904 219.012 46.9102C218.759 47.0299 218.47 47.0898 218.145 47.0898C217.863 47.0898 217.604 47.0404 217.367 46.9414C217.13 46.8424 216.926 46.6875 216.754 46.4766C216.582 46.263 216.448 45.9909 216.352 45.6602C216.255 45.3294 216.207 44.9336 216.207 44.4727C216.207 44.0534 216.253 43.6784 216.344 43.3477C216.438 43.0169 216.572 42.7383 216.746 42.5117C216.921 42.2826 217.135 42.1081 217.391 41.9883C217.646 41.8685 217.935 41.8086 218.258 41.8086C218.539 41.8086 218.798 41.8581 219.035 41.957C219.272 42.056 219.475 42.2109 219.645 42.4219C219.816 42.6328 219.951 42.9036 220.047 43.2344C220.143 43.5651 220.191 43.9622 220.191 44.4258ZM217.168 44.4414C217.168 44.4935 217.168 44.543 217.168 44.5898C217.168 44.6341 217.171 44.6797 217.176 44.7266L219.09 43.3438C218.999 43.0859 218.878 42.8958 218.727 42.7734C218.578 42.6484 218.402 42.5859 218.199 42.5859C218.053 42.5859 217.918 42.6237 217.793 42.6992C217.668 42.7721 217.559 42.8854 217.465 43.0391C217.374 43.1927 217.301 43.3854 217.246 43.6172C217.194 43.849 217.168 44.1237 217.168 44.4414ZM219.23 44.457C219.23 44.4128 219.229 44.3685 219.227 44.3242C219.224 44.2773 219.223 44.2331 219.223 44.1914L217.32 45.5664C217.404 45.819 217.521 46.0065 217.672 46.1289C217.823 46.2513 217.999 46.3125 218.199 46.3125C218.345 46.3125 218.48 46.2747 218.605 46.1992C218.733 46.1237 218.842 46.0104 218.934 45.8594C219.027 45.7057 219.1 45.513 219.152 45.2812C219.204 45.0469 219.23 44.7721 219.23 44.457ZM223.679 47L222.773 45.6641L221.863 47H220.711L222.199 45L220.789 43.0312H221.949L222.84 44.3359L223.718 43.0312H224.789L223.422 44.9922L224.863 47H223.679ZM229.355 44.4258C229.355 44.8451 229.309 45.2201 229.218 45.5508C229.127 45.8815 228.993 46.1615 228.816 46.3906C228.641 46.6172 228.428 46.7904 228.175 46.9102C227.923 47.0299 227.634 47.0898 227.308 47.0898C227.027 47.0898 226.768 47.0404 226.531 46.9414C226.294 46.8424 226.089 46.6875 225.917 46.4766C225.746 46.263 225.611 45.9909 225.515 45.6602C225.419 45.3294 225.371 44.9336 225.371 44.4727C225.371 44.0534 225.416 43.6784 225.507 43.3477C225.601 43.0169 225.735 42.7383 225.91 42.5117C226.084 42.2826 226.299 42.1081 226.554 41.9883C226.809 41.8685 227.098 41.8086 227.421 41.8086C227.703 41.8086 227.962 41.8581 228.199 41.957C228.436 42.056 228.639 42.2109 228.808 42.4219C228.98 42.6328 229.114 42.9036 229.21 43.2344C229.307 43.5651 229.355 43.9622 229.355 44.4258ZM226.332 44.4414C226.332 44.4935 226.332 44.543 226.332 44.5898C226.332 44.6341 226.334 44.6797 226.339 44.7266L228.253 43.3438C228.162 43.0859 228.041 42.8958 227.89 42.7734C227.742 42.6484 227.566 42.5859 227.363 42.5859C227.217 42.5859 227.082 42.6237 226.957 42.6992C226.832 42.7721 226.722 42.8854 226.628 43.0391C226.537 43.1927 226.464 43.3854 226.41 43.6172C226.358 43.849 226.332 44.1237 226.332 44.4414ZM228.394 44.457C228.394 44.4128 228.393 44.3685 228.39 44.3242C228.388 44.2773 228.386 44.2331 228.386 44.1914L226.484 45.5664C226.567 45.819 226.684 46.0065 226.835 46.1289C226.986 46.2513 227.162 46.3125 227.363 46.3125C227.509 46.3125 227.644 46.2747 227.769 46.1992C227.897 46.1237 228.006 46.0104 228.097 45.8594C228.191 45.7057 228.264 45.513 228.316 45.2812C228.368 45.0469 228.394 44.7721 228.394 44.457ZM233.937 44.4258C233.937 44.8451 233.891 45.2201 233.8 45.5508C233.709 45.8815 233.575 46.1615 233.398 46.3906C233.223 46.6172 233.01 46.7904 232.757 46.9102C232.504 47.0299 232.215 47.0898 231.89 47.0898C231.609 47.0898 231.349 47.0404 231.113 46.9414C230.876 46.8424 230.671 46.6875 230.499 46.4766C230.327 46.263 230.193 45.9909 230.097 45.6602C230.001 45.3294 229.952 44.9336 229.952 44.4727C229.952 44.0534 229.998 43.6784 230.089 43.3477C230.183 43.0169 230.317 42.7383 230.491 42.5117C230.666 42.2826 230.881 42.1081 231.136 41.9883C231.391 41.8685 231.68 41.8086 232.003 41.8086C232.284 41.8086 232.543 41.8581 232.78 41.957C233.017 42.056 233.221 42.2109 233.39 42.4219C233.562 42.6328 233.696 42.9036 233.792 43.2344C233.889 43.5651 233.937 43.9622 233.937 44.4258ZM230.913 44.4414C230.913 44.4935 230.913 44.543 230.913 44.5898C230.913 44.6341 230.916 44.6797 230.921 44.7266L232.835 43.3438C232.744 43.0859 232.623 42.8958 232.472 42.7734C232.323 42.6484 232.148 42.5859 231.945 42.5859C231.799 42.5859 231.663 42.6237 231.538 42.6992C231.413 42.7721 231.304 42.8854 231.21 43.0391C231.119 43.1927 231.046 43.3854 230.991 43.6172C230.939 43.849 230.913 44.1237 230.913 44.4414ZM232.976 44.457C232.976 44.4128 232.974 44.3685 232.972 44.3242C232.969 44.2773 232.968 44.2331 232.968 44.1914L231.066 45.5664C231.149 45.819 231.266 46.0065 231.417 46.1289C231.568 46.2513 231.744 46.3125 231.945 46.3125C232.09 46.3125 232.226 46.2747 232.351 46.1992C232.478 46.1237 232.588 46.0104 232.679 45.8594C232.773 45.7057 232.846 45.513 232.898 45.2812C232.95 45.0469 232.976 44.7721 232.976 44.457ZM238.518 44.4258C238.518 44.8451 238.473 45.2201 238.382 45.5508C238.291 45.8815 238.157 46.1615 237.979 46.3906C237.805 46.6172 237.591 46.7904 237.339 46.9102C237.086 47.0299 236.797 47.0898 236.472 47.0898C236.19 47.0898 235.931 47.0404 235.694 46.9414C235.457 46.8424 235.253 46.6875 235.081 46.4766C234.909 46.263 234.775 45.9909 234.679 45.6602C234.582 45.3294 234.534 44.9336 234.534 44.4727C234.534 44.0534 234.58 43.6784 234.671 43.3477C234.765 43.0169 234.899 42.7383 235.073 42.5117C235.248 42.2826 235.463 42.1081 235.718 41.9883C235.973 41.8685 236.262 41.8086 236.585 41.8086C236.866 41.8086 237.125 41.8581 237.362 41.957C237.599 42.056 237.802 42.2109 237.972 42.4219C238.143 42.6328 238.278 42.9036 238.374 43.2344C238.47 43.5651 238.518 43.9622 238.518 44.4258ZM235.495 44.4414C235.495 44.4935 235.495 44.543 235.495 44.5898C235.495 44.6341 235.498 44.6797 235.503 44.7266L237.417 43.3438C237.326 43.0859 237.205 42.8958 237.054 42.7734C236.905 42.6484 236.729 42.5859 236.526 42.5859C236.38 42.5859 236.245 42.6237 236.12 42.6992C235.995 42.7721 235.886 42.8854 235.792 43.0391C235.701 43.1927 235.628 43.3854 235.573 43.6172C235.521 43.849 235.495 44.1237 235.495 44.4414ZM237.558 44.457C237.558 44.4128 237.556 44.3685 237.554 44.3242C237.551 44.2773 237.55 44.2331 237.55 44.1914L235.647 45.5664C235.731 45.819 235.848 46.0065 235.999 46.1289C236.15 46.2513 236.326 46.3125 236.526 46.3125C236.672 46.3125 236.808 46.2747 236.933 46.1992C237.06 46.1237 237.17 46.0104 237.261 45.8594C237.354 45.7057 237.427 45.513 237.479 45.2812C237.532 45.0469 237.558 44.7721 237.558 44.457ZM240.819 47H239.741L241.772 42.8164H239.323V41.8945H242.87V42.7266L240.819 47Z" fill="#454D58"/>
<path d="M109.816 17.832C109.816 18.0586 109.766 18.2526 109.664 18.4141C109.565 18.5729 109.432 18.7031 109.266 18.8047C109.102 18.9036 108.914 18.9753 108.703 19.0195C108.495 19.0664 108.281 19.0898 108.062 19.0898C107.771 19.0898 107.508 19.0755 107.273 19.0469C107.039 19.0208 106.818 18.9818 106.609 18.9297V18.0703C106.854 18.1719 107.098 18.2461 107.34 18.293C107.585 18.3372 107.815 18.3594 108.031 18.3594C108.281 18.3594 108.467 18.3203 108.59 18.2422C108.715 18.1615 108.777 18.0573 108.777 17.9297C108.777 17.8698 108.764 17.8151 108.738 17.7656C108.712 17.7161 108.663 17.6693 108.59 17.625C108.52 17.5781 108.419 17.5312 108.289 17.4844C108.159 17.4349 107.988 17.3802 107.777 17.3203C107.582 17.2656 107.41 17.2044 107.262 17.1367C107.116 17.0664 106.995 16.9844 106.898 16.8906C106.802 16.7969 106.729 16.6888 106.68 16.5664C106.633 16.4414 106.609 16.2956 106.609 16.1289C106.609 15.9674 106.646 15.8151 106.719 15.6719C106.792 15.5286 106.9 15.4036 107.043 15.2969C107.189 15.1875 107.37 15.1016 107.586 15.0391C107.802 14.9766 108.055 14.9453 108.344 14.9453C108.594 14.9453 108.815 14.9583 109.008 14.9844C109.201 15.0104 109.371 15.0391 109.52 15.0703V15.8477C109.293 15.7747 109.079 15.724 108.879 15.6953C108.681 15.6641 108.484 15.6484 108.289 15.6484C108.094 15.6484 107.936 15.6836 107.816 15.7539C107.699 15.8242 107.641 15.9219 107.641 16.0469C107.641 16.1068 107.652 16.1602 107.676 16.207C107.699 16.2539 107.745 16.2995 107.812 16.3438C107.883 16.388 107.979 16.4349 108.102 16.4844C108.227 16.5312 108.391 16.5833 108.594 16.6406C108.823 16.7057 109.016 16.776 109.172 16.8516C109.328 16.9245 109.453 17.0078 109.547 17.1016C109.643 17.1953 109.712 17.3021 109.754 17.4219C109.796 17.5417 109.816 17.6784 109.816 17.832ZM114.398 18.9609C114.226 19 114.053 19.0312 113.879 19.0547C113.704 19.0781 113.539 19.0898 113.383 19.0898C113.122 19.0898 112.897 19.0625 112.707 19.0078C112.519 18.9531 112.363 18.8698 112.238 18.7578C112.116 18.6458 112.024 18.5039 111.965 18.332C111.907 18.1576 111.879 17.9505 111.879 17.7109V15.7734H110.812V15.0312H111.879V14.0156L112.855 13.7617V15.0312H114.398V15.7734H112.855V17.6406C112.855 17.8672 112.907 18.0391 113.011 18.1562C113.116 18.2708 113.29 18.3281 113.535 18.3281C113.691 18.3281 113.843 18.3151 113.992 18.2891C114.14 18.263 114.276 18.2331 114.398 18.1992V18.9609ZM118.261 16.5742C118.266 16.4258 118.259 16.2995 118.238 16.1953C118.22 16.0911 118.188 16.0052 118.144 15.9375C118.102 15.8698 118.05 15.8203 117.988 15.7891C117.925 15.7578 117.854 15.7422 117.773 15.7422C117.632 15.7422 117.486 15.8008 117.335 15.918C117.187 16.0326 117.023 16.2227 116.843 16.4883V19H115.867V15.0312H116.73L116.765 15.6094C116.83 15.5078 116.903 15.4167 116.984 15.3359C117.067 15.2552 117.158 15.1862 117.257 15.1289C117.359 15.069 117.471 15.0234 117.593 14.9922C117.716 14.9609 117.85 14.9453 117.996 14.9453C118.196 14.9453 118.373 14.9805 118.527 15.0508C118.683 15.1185 118.813 15.2201 118.917 15.3555C119.024 15.4909 119.102 15.6615 119.152 15.8672C119.204 16.0703 119.226 16.306 119.218 16.5742H118.261ZM121.234 15.0312V17.6172C121.234 17.8333 121.274 17.9974 121.355 18.1094C121.435 18.2188 121.558 18.2734 121.722 18.2734C121.881 18.2734 122.033 18.2083 122.179 18.0781C122.327 17.9453 122.484 17.7669 122.648 17.543V15.0312H123.601V19H122.777L122.753 18.4141C122.67 18.5156 122.585 18.6081 122.499 18.6914C122.413 18.7747 122.32 18.8464 122.218 18.9062C122.119 18.9635 122.01 19.0078 121.89 19.0391C121.773 19.0729 121.642 19.0898 121.499 19.0898C121.296 19.0898 121.118 19.0573 120.964 18.9922C120.813 18.9245 120.687 18.8294 120.585 18.707C120.484 18.5846 120.407 18.4388 120.355 18.2695C120.305 18.0977 120.28 17.9062 120.28 17.6953V15.0312H121.234ZM128.081 18.8477C127.893 18.9232 127.699 18.9792 127.499 19.0156C127.298 19.0521 127.089 19.0703 126.87 19.0703C126.555 19.0703 126.272 19.0273 126.022 18.9414C125.772 18.8555 125.56 18.7279 125.386 18.5586C125.211 18.3893 125.077 18.1797 124.983 17.9297C124.892 17.6797 124.847 17.3906 124.847 17.0625C124.847 16.7448 124.896 16.457 124.995 16.1992C125.097 15.9414 125.239 15.7214 125.421 15.5391C125.603 15.3568 125.822 15.2161 126.077 15.1172C126.335 15.0182 126.621 14.9688 126.936 14.9688C127.194 14.9688 127.41 14.9831 127.585 15.0117C127.762 15.0378 127.921 15.0716 128.061 15.1133V16.0391C127.9 15.9583 127.724 15.8958 127.534 15.8516C127.347 15.8073 127.168 15.7852 126.999 15.7852C126.822 15.7852 126.663 15.8151 126.522 15.875C126.382 15.9349 126.263 16.0182 126.167 16.125C126.071 16.2318 125.996 16.362 125.944 16.5156C125.895 16.6667 125.87 16.8333 125.87 17.0156C125.87 17.2057 125.897 17.3763 125.952 17.5273C126.007 17.6784 126.084 17.8073 126.183 17.9141C126.284 18.0182 126.405 18.099 126.546 18.1562C126.686 18.2109 126.843 18.2383 127.015 18.2383C127.098 18.2383 127.185 18.2331 127.276 18.2227C127.37 18.2096 127.463 18.1927 127.554 18.1719C127.647 18.1484 127.739 18.1224 127.827 18.0938C127.918 18.0651 128.003 18.0339 128.081 18V18.8477ZM132.725 18.9609C132.553 19 132.38 19.0312 132.206 19.0547C132.031 19.0781 131.866 19.0898 131.71 19.0898C131.449 19.0898 131.224 19.0625 131.034 19.0078C130.846 18.9531 130.69 18.8698 130.565 18.7578C130.443 18.6458 130.352 18.5039 130.292 18.332C130.234 18.1576 130.206 17.9505 130.206 17.7109V15.7734H129.139V15.0312H130.206V14.0156L131.182 13.7617V15.0312H132.725V15.7734H131.182V17.6406C131.182 17.8672 131.234 18.0391 131.339 18.1562C131.443 18.2708 131.617 18.3281 131.862 18.3281C132.018 18.3281 132.171 18.3151 132.319 18.2891C132.467 18.263 132.603 18.2331 132.725 18.1992V18.9609ZM138.576 19V13.8945H140.225C140.805 13.8945 141.24 13.9961 141.529 14.1992C141.821 14.4023 141.967 14.7096 141.967 15.1211C141.967 15.2487 141.951 15.3737 141.92 15.4961C141.891 15.6159 141.846 15.7266 141.783 15.8281C141.721 15.9297 141.643 16.0195 141.549 16.0977C141.455 16.1758 141.345 16.237 141.217 16.2812C141.345 16.3021 141.466 16.3438 141.58 16.4062C141.697 16.4661 141.799 16.5456 141.885 16.6445C141.973 16.7409 142.042 16.8555 142.092 16.9883C142.144 17.1211 142.17 17.2695 142.17 17.4336C142.17 17.9544 141.996 18.3464 141.647 18.6094C141.298 18.8698 140.794 19 140.135 19H138.576ZM140.967 15.2891C140.967 15.1927 140.951 15.1055 140.92 15.0273C140.889 14.9492 140.838 14.8828 140.768 14.8281C140.7 14.7734 140.611 14.7318 140.502 14.7031C140.395 14.6719 140.265 14.6562 140.111 14.6562H139.529V16.0078H140.111C140.268 16.0078 140.399 15.9896 140.506 15.9531C140.615 15.9141 140.704 15.862 140.772 15.7969C140.842 15.7292 140.891 15.6523 140.92 15.5664C140.951 15.4805 140.967 15.388 140.967 15.2891ZM140.201 18.2148C140.355 18.2148 140.489 18.1953 140.604 18.1562C140.721 18.1172 140.818 18.0638 140.897 17.9961C140.975 17.9258 141.033 17.8438 141.072 17.75C141.114 17.6562 141.135 17.556 141.135 17.4492C141.135 17.2279 141.052 17.0547 140.885 16.9297C140.721 16.8047 140.468 16.7422 140.127 16.7422H139.529V18.2148H140.201Z" fill="#454D58"/>
<rect x="0.5" y="0.5" width="248" height="66" stroke="black"/>
</svg>
