<svg width="344" height="173" viewBox="0 0 344 173" fill="none" xmlns="http://www.w3.org/2000/svg">
<rect x="232" y="34" width="36" height="16" rx="5" fill="#81B29A"/>
<path d="M248.91 45H247.832L249.863 40.8164H247.414V39.8945H250.961V40.7266L248.91 45Z" fill="#454D58"/>
<rect x="34" y="51" width="87" height="16" rx="5" fill="#81B29A"/>
<path d="M68.8164 58.832C68.8164 59.0586 68.7656 59.2526 68.6641 59.4141C68.5651 59.5729 68.4323 59.7031 68.2656 59.8047C68.1016 59.9036 67.9141 59.9753 67.7031 60.0195C67.4948 60.0664 67.2812 60.0898 67.0625 60.0898C66.7708 60.0898 66.5078 60.0755 66.2734 60.0469C66.0391 60.0208 65.8177 59.9818 65.6094 59.9297V59.0703C65.8542 59.1719 66.0977 59.2461 66.3398 59.293C66.5846 59.3372 66.8151 59.3594 67.0312 59.3594C67.2812 59.3594 67.4674 59.3203 67.5898 59.2422C67.7148 59.1615 67.7773 59.0573 67.7773 58.9297C67.7773 58.8698 67.7643 58.8151 67.7383 58.7656C67.7122 58.7161 67.6628 58.6693 67.5898 58.625C67.5195 58.5781 67.4193 58.5312 67.2891 58.4844C67.1589 58.4349 66.9883 58.3802 66.7773 58.3203C66.582 58.2656 66.4102 58.2044 66.2617 58.1367C66.1159 58.0664 65.9948 57.9844 65.8984 57.8906C65.8021 57.7969 65.7292 57.6888 65.6797 57.5664C65.6328 57.4414 65.6094 57.2956 65.6094 57.1289C65.6094 56.9674 65.6458 56.8151 65.7188 56.6719C65.7917 56.5286 65.8997 56.4036 66.043 56.2969C66.1888 56.1875 66.3698 56.1016 66.5859 56.0391C66.8021 55.9766 67.0547 55.9453 67.3438 55.9453C67.5938 55.9453 67.8151 55.9583 68.0078 55.9844C68.2005 56.0104 68.3711 56.0391 68.5195 56.0703V56.8477C68.293 56.7747 68.0794 56.724 67.8789 56.6953C67.681 56.6641 67.4844 56.6484 67.2891 56.6484C67.0938 56.6484 66.9362 56.6836 66.8164 56.7539C66.6992 56.8242 66.6406 56.9219 66.6406 57.0469C66.6406 57.1068 66.6523 57.1602 66.6758 57.207C66.6992 57.2539 66.7448 57.2995 66.8125 57.3438C66.8828 57.388 66.9792 57.4349 67.1016 57.4844C67.2266 57.5312 67.3906 57.5833 67.5938 57.6406C67.8229 57.7057 68.0156 57.776 68.1719 57.8516C68.3281 57.9245 68.4531 58.0078 68.5469 58.1016C68.6432 58.1953 68.7122 58.3021 68.7539 58.4219C68.7956 58.5417 68.8164 58.6784 68.8164 58.832ZM73.5818 57.7109C73.5818 57.776 73.5792 57.8607 73.574 57.9648C73.5714 58.069 73.5661 58.1667 73.5583 58.2578H70.949C70.949 58.4323 70.975 58.5859 71.0271 58.7188C71.0818 58.8516 71.1573 58.9635 71.2536 59.0547C71.3526 59.1432 71.4698 59.2109 71.6052 59.2578C71.7432 59.3047 71.8956 59.3281 72.0622 59.3281C72.2549 59.3281 72.4607 59.3138 72.6794 59.2852C72.9008 59.2539 73.1299 59.2044 73.3669 59.1367V59.8945C73.2654 59.9232 73.1547 59.9492 73.0349 59.9727C72.9151 59.9961 72.7927 60.0169 72.6677 60.0352C72.5427 60.0534 72.4164 60.0664 72.2888 60.0742C72.1612 60.0846 72.0375 60.0898 71.9177 60.0898C71.6156 60.0898 71.3448 60.0469 71.1052 59.9609C70.8656 59.875 70.6625 59.7487 70.4958 59.582C70.3292 59.4128 70.2016 59.2044 70.113 58.957C70.0245 58.7096 69.9802 58.4232 69.9802 58.0977C69.9802 57.7747 70.0245 57.4818 70.113 57.2188C70.2016 56.9531 70.3266 56.7266 70.488 56.5391C70.6495 56.349 70.8448 56.2031 71.074 56.1016C71.3057 55.9974 71.5635 55.9453 71.8474 55.9453C72.1286 55.9453 72.3773 55.9896 72.5935 56.0781C72.8096 56.1641 72.9906 56.2852 73.1365 56.4414C73.2823 56.5977 73.393 56.7839 73.4685 57C73.544 57.2161 73.5818 57.4531 73.5818 57.7109ZM72.613 57.5742C72.6156 57.418 72.5961 57.2826 72.5544 57.168C72.5128 57.0508 72.4555 56.9544 72.3826 56.8789C72.3122 56.8034 72.2289 56.7474 72.1326 56.7109C72.0388 56.6745 71.9372 56.6562 71.8279 56.6562C71.5883 56.6562 71.3917 56.737 71.238 56.8984C71.0844 57.0573 70.9932 57.2826 70.9646 57.5742H72.613ZM77.0737 60V57.4141C77.0737 56.9792 76.9122 56.7617 76.5893 56.7617C76.4279 56.7617 76.2729 56.8268 76.1245 56.957C75.9786 57.0872 75.8237 57.2643 75.6596 57.4883V60H74.7065V56.0312H75.5307L75.5542 56.6172C75.6349 56.5156 75.7182 56.4232 75.8042 56.3398C75.8927 56.2565 75.9878 56.1862 76.0893 56.1289C76.1909 56.069 76.3003 56.0234 76.4174 55.9922C76.5346 55.9609 76.6661 55.9453 76.812 55.9453C77.0151 55.9453 77.1922 55.9792 77.3432 56.0469C77.4943 56.112 77.6206 56.2057 77.7221 56.3281C77.8237 56.4479 77.8992 56.5938 77.9487 56.7656C78.0008 56.9349 78.0268 57.125 78.0268 57.3359V60H77.0737ZM81.7844 60L81.7609 59.4141C81.6776 59.5156 81.5917 59.6081 81.5031 59.6914C81.4146 59.7747 81.3195 59.8464 81.218 59.9062C81.1164 59.9635 81.007 60.0078 80.8898 60.0391C80.7753 60.0729 80.6477 60.0898 80.507 60.0898C80.2727 60.0898 80.0643 60.043 79.882 59.9492C79.6997 59.8555 79.5461 59.7227 79.4211 59.5508C79.2987 59.3763 79.2049 59.1654 79.1398 58.918C79.0747 58.6706 79.0422 58.3945 79.0422 58.0898C79.0422 57.7253 79.093 57.4102 79.1945 57.1445C79.2987 56.8763 79.4419 56.6549 79.6242 56.4805C79.8065 56.3034 80.0227 56.1732 80.2727 56.0898C80.5227 56.0039 80.7948 55.9609 81.0891 55.9609C81.188 55.9609 81.287 55.9674 81.3859 55.9805C81.4875 55.9935 81.5773 56.0104 81.6555 56.0312V54.4805H82.6086V60H81.7844ZM80.0422 58.0469C80.0422 58.2656 80.0565 58.4531 80.0852 58.6094C80.1164 58.763 80.1607 58.8893 80.218 58.9883C80.2779 59.0872 80.3508 59.1602 80.4367 59.207C80.5227 59.2513 80.6203 59.2734 80.7297 59.2734C80.8911 59.2734 81.0448 59.2083 81.1906 59.0781C81.3365 58.9479 81.4914 58.7695 81.6555 58.543V56.8086C81.5799 56.7799 81.4862 56.7565 81.3742 56.7383C81.2648 56.7201 81.1542 56.7109 81.0422 56.7109C80.8885 56.7109 80.7505 56.7422 80.6281 56.8047C80.5057 56.8672 80.4003 56.9557 80.3117 57.0703C80.2258 57.1849 80.1594 57.3255 80.1125 57.4922C80.0656 57.6562 80.0422 57.8411 80.0422 58.0469ZM86.4247 60L85.5185 58.6641L84.6083 60H83.456L84.9443 58L83.5341 56.0312H84.6943L85.5849 57.3359L86.4638 56.0312H87.5341L86.1669 57.9922L87.6083 60H86.4247Z" fill="#454D58"/>
<rect x="158" y="34" width="36" height="16" rx="5" fill="#81B29A"/>
<path d="M172.594 43V42.1523H173.895V38.8711L172.762 39.4961L172.449 38.7188L174.07 37.8633H174.871V42.1523H175.992V43H172.594ZM180.773 40.4258C180.773 40.8451 180.728 41.2201 180.636 41.5508C180.545 41.8815 180.411 42.1615 180.234 42.3906C180.06 42.6172 179.846 42.7904 179.593 42.9102C179.341 43.0299 179.052 43.0898 178.726 43.0898C178.445 43.0898 178.186 43.0404 177.949 42.9414C177.712 42.8424 177.508 42.6875 177.336 42.4766C177.164 42.263 177.03 41.9909 176.933 41.6602C176.837 41.3294 176.789 40.9336 176.789 40.4727C176.789 40.0534 176.834 39.6784 176.926 39.3477C177.019 39.0169 177.153 38.7383 177.328 38.5117C177.502 38.2826 177.717 38.1081 177.972 37.9883C178.228 37.8685 178.517 37.8086 178.84 37.8086C179.121 37.8086 179.38 37.8581 179.617 37.957C179.854 38.056 180.057 38.2109 180.226 38.4219C180.398 38.6328 180.532 38.9036 180.629 39.2344C180.725 39.5651 180.773 39.9622 180.773 40.4258ZM177.75 40.4414C177.75 40.4935 177.75 40.543 177.75 40.5898C177.75 40.6341 177.752 40.6797 177.758 40.7266L179.672 39.3438C179.58 39.0859 179.459 38.8958 179.308 38.7734C179.16 38.6484 178.984 38.5859 178.781 38.5859C178.635 38.5859 178.5 38.6237 178.375 38.6992C178.25 38.7721 178.14 38.8854 178.047 39.0391C177.955 39.1927 177.883 39.3854 177.828 39.6172C177.776 39.849 177.75 40.1237 177.75 40.4414ZM179.812 40.457C179.812 40.4128 179.811 40.3685 179.808 40.3242C179.806 40.2773 179.804 40.2331 179.804 40.1914L177.902 41.5664C177.985 41.819 178.103 42.0065 178.254 42.1289C178.405 42.2513 178.58 42.3125 178.781 42.3125C178.927 42.3125 179.062 42.2747 179.187 42.1992C179.315 42.1237 179.424 42.0104 179.515 41.8594C179.609 41.7057 179.682 41.513 179.734 41.2812C179.786 41.0469 179.812 40.7721 179.812 40.457Z" fill="#454D58"/>
<rect x="195" y="34" width="36" height="16" rx="5" fill="#81B29A"/>
<path d="M213.047 41.2969C213.174 41.3672 213.296 41.4453 213.41 41.5312C213.527 41.6146 213.629 41.7122 213.715 41.8242C213.803 41.9336 213.872 42.0586 213.922 42.1992C213.974 42.3372 214 42.4948 214 42.6719C214 42.9036 213.953 43.1081 213.859 43.2852C213.766 43.4622 213.635 43.6107 213.469 43.7305C213.305 43.8503 213.111 43.9401 212.887 44C212.665 44.0599 212.426 44.0898 212.168 44.0898C211.882 44.0898 211.628 44.0599 211.406 44C211.188 43.9375 211.003 43.8503 210.852 43.7383C210.703 43.6263 210.59 43.4909 210.512 43.332C210.436 43.1732 210.398 42.9961 210.398 42.8008C210.398 42.6263 210.423 42.4714 210.473 42.3359C210.525 42.1979 210.595 42.0729 210.684 41.9609C210.772 41.849 210.874 41.7487 210.988 41.6602C211.105 41.5716 211.229 41.4896 211.359 41.4141C211.242 41.3464 211.132 41.2721 211.027 41.1914C210.926 41.1107 210.836 41.0195 210.758 40.918C210.68 40.8164 210.617 40.7031 210.57 40.5781C210.526 40.4531 210.504 40.3112 210.504 40.1523C210.504 39.9674 210.539 39.7943 210.609 39.6328C210.682 39.4688 210.789 39.3255 210.93 39.2031C211.073 39.0807 211.251 38.9844 211.465 38.9141C211.681 38.8438 211.934 38.8086 212.223 38.8086C212.488 38.8086 212.725 38.8372 212.934 38.8945C213.142 38.9492 213.316 39.0286 213.457 39.1328C213.6 39.237 213.708 39.362 213.781 39.5078C213.857 39.651 213.895 39.8099 213.895 39.9844C213.895 40.1458 213.872 40.2917 213.828 40.4219C213.784 40.5521 213.724 40.6706 213.648 40.7773C213.573 40.8815 213.483 40.9766 213.379 41.0625C213.275 41.1458 213.164 41.224 213.047 41.2969ZM212.297 40.9297C212.391 40.8776 212.478 40.8229 212.559 40.7656C212.642 40.7057 212.714 40.6406 212.773 40.5703C212.833 40.5 212.882 40.4232 212.918 40.3398C212.954 40.2565 212.973 40.1641 212.973 40.0625C212.973 39.8932 212.906 39.7643 212.773 39.6758C212.641 39.5872 212.449 39.543 212.199 39.543C211.954 39.543 211.766 39.5885 211.633 39.6797C211.5 39.7708 211.434 39.9076 211.434 40.0898C211.434 40.1888 211.456 40.2773 211.5 40.3555C211.544 40.4336 211.605 40.5065 211.684 40.5742C211.762 40.6393 211.853 40.7005 211.957 40.7578C212.064 40.8151 212.177 40.8724 212.297 40.9297ZM212.098 41.793C211.996 41.8477 211.9 41.9062 211.809 41.9688C211.72 42.0312 211.642 42.1003 211.574 42.1758C211.509 42.2513 211.457 42.3346 211.418 42.4258C211.379 42.5143 211.359 42.6146 211.359 42.7266C211.359 42.9245 211.436 43.0755 211.59 43.1797C211.743 43.2839 211.947 43.3359 212.199 43.3359C212.314 43.3359 212.422 43.3242 212.523 43.3008C212.625 43.2773 212.714 43.2409 212.789 43.1914C212.867 43.1419 212.928 43.0794 212.973 43.0039C213.017 42.9258 213.039 42.8333 213.039 42.7266C213.039 42.6172 213.014 42.5195 212.965 42.4336C212.915 42.3451 212.848 42.2643 212.762 42.1914C212.676 42.1185 212.576 42.0495 212.461 41.9844C212.346 41.9193 212.225 41.8555 212.098 41.793Z" fill="#454D58"/>
<rect x="269" y="34" width="36" height="16" rx="5" fill="#81B29A"/>
<path d="M289.93 43.3672C289.93 43.6406 289.872 43.8841 289.758 44.0977C289.643 44.3086 289.484 44.487 289.281 44.6328C289.078 44.7786 288.839 44.8893 288.562 44.9648C288.286 45.0404 287.987 45.0781 287.664 45.0781C287.583 45.0781 287.497 45.0755 287.406 45.0703C287.315 45.0651 287.223 45.0586 287.129 45.0508C287.035 45.043 286.944 45.0326 286.855 45.0195C286.767 45.0091 286.685 44.9974 286.609 44.9844V44.1523C286.758 44.1888 286.928 44.2188 287.121 44.2422C287.314 44.263 287.51 44.2734 287.711 44.2734C288.102 44.2734 288.398 44.1992 288.602 44.0508C288.807 43.8997 288.91 43.6914 288.91 43.4258C288.91 43.1497 288.815 42.9453 288.625 42.8125C288.435 42.6771 288.128 42.6094 287.703 42.6094H286.703V39.8945H289.648V40.793H287.594V41.832H287.961C288.221 41.832 288.47 41.8555 288.707 41.9023C288.944 41.9492 289.152 42.0312 289.332 42.1484C289.514 42.263 289.659 42.4193 289.766 42.6172C289.875 42.8151 289.93 43.0651 289.93 43.3672Z" fill="#454D58"/>
<rect x="34" y="68" width="87" height="16" rx="5" fill="#81B29A"/>
<path d="M68.0977 74.5742C68.1029 74.4258 68.0951 74.2995 68.0742 74.1953C68.056 74.0911 68.0247 74.0052 67.9805 73.9375C67.9388 73.8698 67.8867 73.8203 67.8242 73.7891C67.7617 73.7578 67.6901 73.7422 67.6094 73.7422C67.4688 73.7422 67.3229 73.8008 67.1719 73.918C67.0234 74.0326 66.8594 74.2227 66.6797 74.4883V77H65.7031V73.0312H66.5664L66.6016 73.6094C66.6667 73.5078 66.7396 73.4167 66.8203 73.3359C66.9036 73.2552 66.9948 73.1862 67.0938 73.1289C67.1953 73.069 67.3073 73.0234 67.4297 72.9922C67.5521 72.9609 67.6862 72.9453 67.832 72.9453C68.0326 72.9453 68.2096 72.9805 68.3633 73.0508C68.5195 73.1185 68.6497 73.2201 68.7539 73.3555C68.8607 73.4909 68.9388 73.6615 68.9883 73.8672C69.0404 74.0703 69.0625 74.306 69.0547 74.5742H68.0977ZM73.5818 74.7109C73.5818 74.776 73.5792 74.8607 73.574 74.9648C73.5714 75.069 73.5661 75.1667 73.5583 75.2578H70.949C70.949 75.4323 70.975 75.5859 71.0271 75.7188C71.0818 75.8516 71.1573 75.9635 71.2536 76.0547C71.3526 76.1432 71.4698 76.2109 71.6052 76.2578C71.7432 76.3047 71.8956 76.3281 72.0622 76.3281C72.2549 76.3281 72.4607 76.3138 72.6794 76.2852C72.9008 76.2539 73.1299 76.2044 73.3669 76.1367V76.8945C73.2654 76.9232 73.1547 76.9492 73.0349 76.9727C72.9151 76.9961 72.7927 77.0169 72.6677 77.0352C72.5427 77.0534 72.4164 77.0664 72.2888 77.0742C72.1612 77.0846 72.0375 77.0898 71.9177 77.0898C71.6156 77.0898 71.3448 77.0469 71.1052 76.9609C70.8656 76.875 70.6625 76.7487 70.4958 76.582C70.3292 76.4128 70.2016 76.2044 70.113 75.957C70.0245 75.7096 69.9802 75.4232 69.9802 75.0977C69.9802 74.7747 70.0245 74.4818 70.113 74.2188C70.2016 73.9531 70.3266 73.7266 70.488 73.5391C70.6495 73.349 70.8448 73.2031 71.074 73.1016C71.3057 72.9974 71.5635 72.9453 71.8474 72.9453C72.1286 72.9453 72.3773 72.9896 72.5935 73.0781C72.8096 73.1641 72.9906 73.2852 73.1365 73.4414C73.2823 73.5977 73.393 73.7839 73.4685 74C73.544 74.2161 73.5818 74.4531 73.5818 74.7109ZM72.613 74.5742C72.6156 74.418 72.5961 74.2826 72.5544 74.168C72.5128 74.0508 72.4555 73.9544 72.3826 73.8789C72.3122 73.8034 72.2289 73.7474 72.1326 73.7109C72.0388 73.6745 71.9372 73.6562 71.8279 73.6562C71.5883 73.6562 71.3917 73.737 71.238 73.8984C71.0844 74.0573 70.9932 74.2826 70.9646 74.5742H72.613ZM77.9174 76.8477C77.7299 76.9232 77.5359 76.9792 77.3354 77.0156C77.1349 77.0521 76.9253 77.0703 76.7065 77.0703C76.3914 77.0703 76.1089 77.0273 75.8589 76.9414C75.6089 76.8555 75.3966 76.7279 75.2221 76.5586C75.0477 76.3893 74.9135 76.1797 74.8198 75.9297C74.7286 75.6797 74.6831 75.3906 74.6831 75.0625C74.6831 74.7448 74.7326 74.457 74.8315 74.1992C74.9331 73.9414 75.075 73.7214 75.2573 73.5391C75.4396 73.3568 75.6583 73.2161 75.9135 73.1172C76.1714 73.0182 76.4578 72.9688 76.7729 72.9688C77.0307 72.9688 77.2469 72.9831 77.4214 73.0117C77.5984 73.0378 77.7573 73.0716 77.8979 73.1133V74.0391C77.7365 73.9583 77.5607 73.8958 77.3706 73.8516C77.1831 73.8073 77.0047 73.7852 76.8354 73.7852C76.6583 73.7852 76.4995 73.8151 76.3589 73.875C76.2182 73.9349 76.0997 74.0182 76.0034 74.125C75.907 74.2318 75.8328 74.362 75.7807 74.5156C75.7313 74.6667 75.7065 74.8333 75.7065 75.0156C75.7065 75.2057 75.7339 75.3763 75.7885 75.5273C75.8432 75.6784 75.9201 75.8073 76.019 75.9141C76.1206 76.0182 76.2417 76.099 76.3823 76.1562C76.5229 76.2109 76.6792 76.2383 76.851 76.2383C76.9344 76.2383 77.0216 76.2331 77.1128 76.2227C77.2065 76.2096 77.299 76.1927 77.3901 76.1719C77.4839 76.1484 77.575 76.1224 77.6635 76.0938C77.7547 76.0651 77.8393 76.0339 77.9174 76V76.8477ZM81.507 77H80.4094L78.8352 73.0312H79.8977L80.7219 75.2812L80.968 76.0078L81.2102 75.3125L82.0422 73.0312H83.0656L81.507 77ZM86.4247 77L85.5185 75.6641L84.6083 77H83.456L84.9443 75L83.5341 73.0312H84.6943L85.5849 74.3359L86.4638 73.0312H87.5341L86.1669 74.9922L87.6083 77H86.4247Z" fill="#454D58"/>
<rect x="34" y="34" width="87" height="16" rx="5" fill="#81B29A"/>
<path d="M73.1133 41.9453C73.1133 42.3099 73.0612 42.625 72.957 42.8906C72.8555 43.1562 72.7122 43.3776 72.5273 43.5547C72.3451 43.7292 72.1289 43.8594 71.8789 43.9453C71.6289 44.0286 71.3568 44.0703 71.0625 44.0703C70.7734 44.0703 70.5039 44.0482 70.2539 44.0039C70.0065 43.9622 69.7695 43.9049 69.543 43.832V38.4805H70.4961V39.7773L70.457 40.5586C70.6003 40.3737 70.7669 40.2253 70.957 40.1133C71.1497 40.0013 71.3802 39.9453 71.6484 39.9453C71.8828 39.9453 72.0911 39.9922 72.2734 40.0859C72.4557 40.1797 72.6081 40.3138 72.7305 40.4883C72.8555 40.6602 72.9505 40.8698 73.0156 41.1172C73.0807 41.362 73.1133 41.638 73.1133 41.9453ZM72.1133 41.9844C72.1133 41.7656 72.0977 41.5794 72.0664 41.4258C72.0352 41.2721 71.9896 41.1458 71.9297 41.0469C71.8724 40.9479 71.8008 40.8763 71.7148 40.832C71.6315 40.7852 71.5352 40.7617 71.4258 40.7617C71.2643 40.7617 71.1094 40.8268 70.9609 40.957C70.8151 41.0872 70.6602 41.2643 70.4961 41.4883V43.2227C70.5716 43.2513 70.6641 43.2747 70.7734 43.293C70.8854 43.3112 70.9987 43.3203 71.1133 43.3203C71.2643 43.3203 71.401 43.2891 71.5234 43.2266C71.6484 43.1641 71.7539 43.0755 71.8398 42.9609C71.9284 42.8464 71.9961 42.707 72.043 42.543C72.0898 42.3763 72.1133 42.1901 72.1133 41.9844ZM75.0701 40.0312V42.6172C75.0701 42.8333 75.1104 42.9974 75.1911 43.1094C75.2719 43.2188 75.3943 43.2734 75.5583 43.2734C75.7172 43.2734 75.8695 43.2083 76.0154 43.0781C76.1638 42.9453 76.3201 42.7669 76.4841 42.543V40.0312H77.4372V44H76.613L76.5896 43.4141C76.5063 43.5156 76.4216 43.6081 76.3357 43.6914C76.2497 43.7747 76.156 43.8464 76.0544 43.9062C75.9555 43.9635 75.8461 44.0078 75.7263 44.0391C75.6091 44.0729 75.4789 44.0898 75.3357 44.0898C75.1326 44.0898 74.9542 44.0573 74.8005 43.9922C74.6495 43.9245 74.5232 43.8294 74.4216 43.707C74.3201 43.5846 74.2432 43.4388 74.1911 43.2695C74.1417 43.0977 74.1169 42.9062 74.1169 42.6953V40.0312H75.0701ZM82.269 39.2891C82.1544 39.2526 82.0177 39.2227 81.8589 39.1992C81.7026 39.1732 81.5424 39.1602 81.3784 39.1602C81.2664 39.1602 81.1622 39.1758 81.0659 39.207C80.9695 39.2357 80.8862 39.2826 80.8159 39.3477C80.7456 39.4128 80.6896 39.4961 80.6479 39.5977C80.6089 39.6966 80.5893 39.8177 80.5893 39.9609V40.6016H82.1479V41.3438H80.5893V44H79.6284V41.3438H78.476V40.6016H79.6284V40C79.6284 39.7188 79.6688 39.4779 79.7495 39.2773C79.8328 39.0742 79.9487 38.9089 80.0971 38.7812C80.2482 38.651 80.4292 38.556 80.6401 38.4961C80.851 38.4362 81.0867 38.4062 81.3471 38.4062C81.519 38.4062 81.6818 38.418 81.8354 38.4414C81.9917 38.4622 82.1362 38.4883 82.269 38.5195V39.2891Z" fill="#454D58"/>
<line x1="121" y1="40.5" x2="155" y2="40.5" stroke="#454D58" stroke-width="3"/>
<path fill-rule="evenodd" clip-rule="evenodd" d="M158 40.5L153 44V37L158 40.5Z" fill="#454D58"/>
<path d="M178.191 28.4258C178.191 28.8451 178.146 29.2201 178.055 29.5508C177.964 29.8815 177.829 30.1615 177.652 30.3906C177.478 30.6172 177.264 30.7904 177.012 30.9102C176.759 31.0299 176.47 31.0898 176.145 31.0898C175.863 31.0898 175.604 31.0404 175.367 30.9414C175.13 30.8424 174.926 30.6875 174.754 30.4766C174.582 30.263 174.448 29.9909 174.352 29.6602C174.255 29.3294 174.207 28.9336 174.207 28.4727C174.207 28.0534 174.253 27.6784 174.344 27.3477C174.438 27.0169 174.572 26.7383 174.746 26.5117C174.921 26.2826 175.135 26.1081 175.391 25.9883C175.646 25.8685 175.935 25.8086 176.258 25.8086C176.539 25.8086 176.798 25.8581 177.035 25.957C177.272 26.056 177.475 26.2109 177.645 26.4219C177.816 26.6328 177.951 26.9036 178.047 27.2344C178.143 27.5651 178.191 27.9622 178.191 28.4258ZM175.168 28.4414C175.168 28.4935 175.168 28.543 175.168 28.5898C175.168 28.6341 175.171 28.6797 175.176 28.7266L177.09 27.3438C176.999 27.0859 176.878 26.8958 176.727 26.7734C176.578 26.6484 176.402 26.5859 176.199 26.5859C176.053 26.5859 175.918 26.6237 175.793 26.6992C175.668 26.7721 175.559 26.8854 175.465 27.0391C175.374 27.1927 175.301 27.3854 175.246 27.6172C175.194 27.849 175.168 28.1237 175.168 28.4414ZM177.23 28.457C177.23 28.4128 177.229 28.3685 177.227 28.3242C177.224 28.2773 177.223 28.2331 177.223 28.1914L175.32 29.5664C175.404 29.819 175.521 30.0065 175.672 30.1289C175.823 30.2513 175.999 30.3125 176.199 30.3125C176.345 30.3125 176.48 30.2747 176.605 30.1992C176.733 30.1237 176.842 30.0104 176.934 29.8594C177.027 29.7057 177.1 29.513 177.152 29.2812C177.204 29.0469 177.23 28.7721 177.23 28.457Z" fill="#454D58"/>
<path d="M126.113 26.9453C126.113 27.3099 126.061 27.625 125.957 27.8906C125.855 28.1562 125.712 28.3776 125.527 28.5547C125.345 28.7292 125.129 28.8594 124.879 28.9453C124.629 29.0286 124.357 29.0703 124.062 29.0703C123.773 29.0703 123.504 29.0482 123.254 29.0039C123.007 28.9622 122.77 28.9049 122.543 28.832V23.4805H123.496V24.7773L123.457 25.5586C123.6 25.3737 123.767 25.2253 123.957 25.1133C124.15 25.0013 124.38 24.9453 124.648 24.9453C124.883 24.9453 125.091 24.9922 125.273 25.0859C125.456 25.1797 125.608 25.3138 125.73 25.4883C125.855 25.6602 125.951 25.8698 126.016 26.1172C126.081 26.362 126.113 26.638 126.113 26.9453ZM125.113 26.9844C125.113 26.7656 125.098 26.5794 125.066 26.4258C125.035 26.2721 124.99 26.1458 124.93 26.0469C124.872 25.9479 124.801 25.8763 124.715 25.832C124.632 25.7852 124.535 25.7617 124.426 25.7617C124.264 25.7617 124.109 25.8268 123.961 25.957C123.815 26.0872 123.66 26.2643 123.496 26.4883V28.2227C123.572 28.2513 123.664 28.2747 123.773 28.293C123.885 28.3112 123.999 28.3203 124.113 28.3203C124.264 28.3203 124.401 28.2891 124.523 28.2266C124.648 28.1641 124.754 28.0755 124.84 27.9609C124.928 27.8464 124.996 27.707 125.043 27.543C125.09 27.3763 125.113 27.1901 125.113 26.9844ZM128.07 25.0312V27.6172C128.07 27.8333 128.11 27.9974 128.191 28.1094C128.272 28.2188 128.394 28.2734 128.558 28.2734C128.717 28.2734 128.87 28.2083 129.015 28.0781C129.164 27.9453 129.32 27.7669 129.484 27.543V25.0312H130.437V29H129.613L129.59 28.4141C129.506 28.5156 129.422 28.6081 129.336 28.6914C129.25 28.7747 129.156 28.8464 129.054 28.9062C128.955 28.9635 128.846 29.0078 128.726 29.0391C128.609 29.0729 128.479 29.0898 128.336 29.0898C128.133 29.0898 127.954 29.0573 127.801 28.9922C127.649 28.9245 127.523 28.8294 127.422 28.707C127.32 28.5846 127.243 28.4388 127.191 28.2695C127.142 28.0977 127.117 27.9062 127.117 27.6953V25.0312H128.07ZM135.269 24.2891C135.154 24.2526 135.018 24.2227 134.859 24.1992C134.703 24.1732 134.542 24.1602 134.378 24.1602C134.266 24.1602 134.162 24.1758 134.066 24.207C133.97 24.2357 133.886 24.2826 133.816 24.3477C133.746 24.4128 133.69 24.4961 133.648 24.5977C133.609 24.6966 133.589 24.8177 133.589 24.9609V25.6016H135.148V26.3438H133.589V29H132.628V26.3438H131.476V25.6016H132.628V25C132.628 24.7188 132.669 24.4779 132.749 24.2773C132.833 24.0742 132.949 23.9089 133.097 23.7812C133.248 23.651 133.429 23.556 133.64 23.4961C133.851 23.4362 134.087 23.4062 134.347 23.4062C134.519 23.4062 134.682 23.418 134.835 23.4414C134.992 23.4622 135.136 23.4883 135.269 23.5195V24.2891ZM143.206 23.9453C143.206 24.0312 143.19 24.112 143.159 24.1875C143.128 24.263 143.084 24.3294 143.026 24.3867C142.972 24.4414 142.907 24.4857 142.831 24.5195C142.755 24.5508 142.673 24.5664 142.585 24.5664C142.496 24.5664 142.413 24.5508 142.335 24.5195C142.259 24.4857 142.193 24.4414 142.136 24.3867C142.081 24.3294 142.038 24.263 142.007 24.1875C141.976 24.112 141.96 24.0312 141.96 23.9453C141.96 23.8594 141.976 23.7786 142.007 23.7031C142.038 23.6276 142.081 23.5612 142.136 23.5039C142.193 23.4466 142.259 23.4023 142.335 23.3711C142.413 23.3372 142.496 23.3203 142.585 23.3203C142.673 23.3203 142.755 23.3372 142.831 23.3711C142.907 23.4023 142.972 23.4466 143.026 23.5039C143.084 23.5612 143.128 23.6276 143.159 23.7031C143.19 23.7786 143.206 23.8594 143.206 23.9453ZM142.151 25.7734H141.03V25.0312H143.128V28.2578H144.272V29H140.893V28.2578H142.151V25.7734ZM147.819 29V26.4141C147.819 25.9792 147.658 25.7617 147.335 25.7617C147.173 25.7617 147.018 25.8268 146.87 25.957C146.724 26.0872 146.569 26.2643 146.405 26.4883V29H145.452V25.0312H146.276L146.299 25.6172C146.38 25.5156 146.464 25.4232 146.549 25.3398C146.638 25.2565 146.733 25.1862 146.835 25.1289C146.936 25.069 147.046 25.0234 147.163 24.9922C147.28 24.9609 147.411 24.9453 147.557 24.9453C147.76 24.9453 147.938 24.9792 148.089 25.0469C148.24 25.112 148.366 25.2057 148.467 25.3281C148.569 25.4479 148.645 25.5938 148.694 25.7656C148.746 25.9349 148.772 26.125 148.772 26.3359V29H147.819ZM152.53 29L152.506 28.4141C152.423 28.5156 152.337 28.6081 152.248 28.6914C152.16 28.7747 152.065 28.8464 151.963 28.9062C151.862 28.9635 151.752 29.0078 151.635 29.0391C151.521 29.0729 151.393 29.0898 151.252 29.0898C151.018 29.0898 150.81 29.043 150.627 28.9492C150.445 28.8555 150.291 28.7227 150.166 28.5508C150.044 28.3763 149.95 28.1654 149.885 27.918C149.82 27.6706 149.788 27.3945 149.788 27.0898C149.788 26.7253 149.838 26.4102 149.94 26.1445C150.044 25.8763 150.187 25.6549 150.37 25.4805C150.552 25.3034 150.768 25.1732 151.018 25.0898C151.268 25.0039 151.54 24.9609 151.834 24.9609C151.933 24.9609 152.032 24.9674 152.131 24.9805C152.233 24.9935 152.323 25.0104 152.401 25.0312V23.4805H153.354V29H152.53ZM150.788 27.0469C150.788 27.2656 150.802 27.4531 150.83 27.6094C150.862 27.763 150.906 27.8893 150.963 27.9883C151.023 28.0872 151.096 28.1602 151.182 28.207C151.268 28.2513 151.366 28.2734 151.475 28.2734C151.636 28.2734 151.79 28.2083 151.936 28.0781C152.082 27.9479 152.237 27.7695 152.401 27.543V25.8086C152.325 25.7799 152.232 25.7565 152.12 25.7383C152.01 25.7201 151.899 25.7109 151.788 25.7109C151.634 25.7109 151.496 25.7422 151.373 25.8047C151.251 25.8672 151.146 25.9557 151.057 26.0703C150.971 26.1849 150.905 26.3255 150.858 26.4922C150.811 26.6562 150.788 26.8411 150.788 27.0469ZM158.072 26.7109C158.072 26.776 158.07 26.8607 158.065 26.9648C158.062 27.069 158.057 27.1667 158.049 27.2578H155.44C155.44 27.4323 155.466 27.5859 155.518 27.7188C155.572 27.8516 155.648 27.9635 155.744 28.0547C155.843 28.1432 155.96 28.2109 156.096 28.2578C156.234 28.3047 156.386 28.3281 156.553 28.3281C156.746 28.3281 156.951 28.3138 157.17 28.2852C157.391 28.2539 157.621 28.2044 157.858 28.1367V28.8945C157.756 28.9232 157.645 28.9492 157.526 28.9727C157.406 28.9961 157.283 29.0169 157.158 29.0352C157.033 29.0534 156.907 29.0664 156.779 29.0742C156.652 29.0846 156.528 29.0898 156.408 29.0898C156.106 29.0898 155.835 29.0469 155.596 28.9609C155.356 28.875 155.153 28.7487 154.986 28.582C154.82 28.4128 154.692 28.2044 154.604 27.957C154.515 27.7096 154.471 27.4232 154.471 27.0977C154.471 26.7747 154.515 26.4818 154.604 26.2188C154.692 25.9531 154.817 25.7266 154.979 25.5391C155.14 25.349 155.335 25.2031 155.565 25.1016C155.796 24.9974 156.054 24.9453 156.338 24.9453C156.619 24.9453 156.868 24.9896 157.084 25.0781C157.3 25.1641 157.481 25.2852 157.627 25.4414C157.773 25.5977 157.884 25.7839 157.959 26C158.035 26.2161 158.072 26.4531 158.072 26.7109ZM157.104 26.5742C157.106 26.418 157.087 26.2826 157.045 26.168C157.003 26.0508 156.946 25.9544 156.873 25.8789C156.803 25.8034 156.72 25.7474 156.623 25.7109C156.529 25.6745 156.428 25.6562 156.318 25.6562C156.079 25.6562 155.882 25.737 155.729 25.8984C155.575 26.0573 155.484 26.2826 155.455 26.5742H157.104ZM161.752 29L160.846 27.6641L159.935 29H158.783L160.271 27L158.861 25.0312H160.021L160.912 26.3359L161.791 25.0312H162.861L161.494 26.9922L162.935 29H161.752Z" fill="#454D58"/>
<path d="M29.1914 58.4258C29.1914 58.8451 29.1458 59.2201 29.0547 59.5508C28.9635 59.8815 28.8294 60.1615 28.6523 60.3906C28.4779 60.6172 28.2643 60.7904 28.0117 60.9102C27.7591 61.0299 27.4701 61.0898 27.1445 61.0898C26.8633 61.0898 26.6042 61.0404 26.3672 60.9414C26.1302 60.8424 25.9258 60.6875 25.7539 60.4766C25.582 60.263 25.4479 59.9909 25.3516 59.6602C25.2552 59.3294 25.207 58.9336 25.207 58.4727C25.207 58.0534 25.2526 57.6784 25.3438 57.3477C25.4375 57.0169 25.5716 56.7383 25.7461 56.5117C25.9206 56.2826 26.1354 56.1081 26.3906 55.9883C26.6458 55.8685 26.9349 55.8086 27.2578 55.8086C27.5391 55.8086 27.7982 55.8581 28.0352 55.957C28.2721 56.056 28.4753 56.2109 28.6445 56.4219C28.8164 56.6328 28.9505 56.9036 29.0469 57.2344C29.1432 57.5651 29.1914 57.9622 29.1914 58.4258ZM26.168 58.4414C26.168 58.4935 26.168 58.543 26.168 58.5898C26.168 58.6341 26.1706 58.6797 26.1758 58.7266L28.0898 57.3438C27.9987 57.0859 27.8776 56.8958 27.7266 56.7734C27.5781 56.6484 27.4023 56.5859 27.1992 56.5859C27.0534 56.5859 26.918 56.6237 26.793 56.6992C26.668 56.7721 26.5586 56.8854 26.4648 57.0391C26.3737 57.1927 26.3008 57.3854 26.2461 57.6172C26.194 57.849 26.168 58.1237 26.168 58.4414ZM28.2305 58.457C28.2305 58.4128 28.2292 58.3685 28.2266 58.3242C28.224 58.2773 28.2227 58.2331 28.2227 58.1914L26.3203 59.5664C26.4036 59.819 26.5208 60.0065 26.6719 60.1289C26.8229 60.2513 26.9987 60.3125 27.1992 60.3125C27.3451 60.3125 27.4805 60.2747 27.6055 60.1992C27.7331 60.1237 27.8424 60.0104 27.9336 59.8594C28.0273 59.7057 28.1003 59.513 28.1523 59.2812C28.2044 59.0469 28.2305 58.7721 28.2305 58.457Z" fill="#454D58"/>
<path d="M29.1914 77.4258C29.1914 77.8451 29.1458 78.2201 29.0547 78.5508C28.9635 78.8815 28.8294 79.1615 28.6523 79.3906C28.4779 79.6172 28.2643 79.7904 28.0117 79.9102C27.7591 80.0299 27.4701 80.0898 27.1445 80.0898C26.8633 80.0898 26.6042 80.0404 26.3672 79.9414C26.1302 79.8424 25.9258 79.6875 25.7539 79.4766C25.582 79.263 25.4479 78.9909 25.3516 78.6602C25.2552 78.3294 25.207 77.9336 25.207 77.4727C25.207 77.0534 25.2526 76.6784 25.3438 76.3477C25.4375 76.0169 25.5716 75.7383 25.7461 75.5117C25.9206 75.2826 26.1354 75.1081 26.3906 74.9883C26.6458 74.8685 26.9349 74.8086 27.2578 74.8086C27.5391 74.8086 27.7982 74.8581 28.0352 74.957C28.2721 75.056 28.4753 75.2109 28.6445 75.4219C28.8164 75.6328 28.9505 75.9036 29.0469 76.2344C29.1432 76.5651 29.1914 76.9622 29.1914 77.4258ZM26.168 77.4414C26.168 77.4935 26.168 77.543 26.168 77.5898C26.168 77.6341 26.1706 77.6797 26.1758 77.7266L28.0898 76.3438C27.9987 76.0859 27.8776 75.8958 27.7266 75.7734C27.5781 75.6484 27.4023 75.5859 27.1992 75.5859C27.0534 75.5859 26.918 75.6237 26.793 75.6992C26.668 75.7721 26.5586 75.8854 26.4648 76.0391C26.3737 76.1927 26.3008 76.3854 26.2461 76.6172C26.194 76.849 26.168 77.1237 26.168 77.4414ZM28.2305 77.457C28.2305 77.4128 28.2292 77.3685 28.2266 77.3242C28.224 77.2773 28.2227 77.2331 28.2227 77.1914L26.3203 78.5664C26.4036 78.819 26.5208 79.0065 26.6719 79.1289C26.8229 79.2513 26.9987 79.3125 27.1992 79.3125C27.3451 79.3125 27.4805 79.2747 27.6055 79.1992C27.7331 79.1237 27.8424 79.0104 27.9336 78.8594C28.0273 78.7057 28.1003 78.513 28.1523 78.2812C28.2044 78.0469 28.2305 77.7721 28.2305 77.457Z" fill="#454D58"/>
<path d="M209.594 31V30.1523H210.895V26.8711L209.762 27.4961L209.449 26.7188L211.07 25.8633H211.871V30.1523H212.992V31H209.594Z" fill="#454D58"/>
<path d="M247.504 31V30.2969L248.711 29.0898C248.938 28.8633 249.118 28.668 249.254 28.5039C249.392 28.3398 249.497 28.194 249.57 28.0664C249.646 27.9362 249.695 27.8164 249.719 27.707C249.742 27.5977 249.754 27.4844 249.754 27.3672C249.754 27.2708 249.738 27.1797 249.707 27.0938C249.676 27.0052 249.63 26.9297 249.57 26.8672C249.51 26.8021 249.435 26.7513 249.344 26.7148C249.253 26.6758 249.148 26.6562 249.031 26.6562C248.831 26.6562 248.645 26.7005 248.473 26.7891C248.301 26.875 248.138 26.9909 247.984 27.1367L247.48 26.4883C247.702 26.2826 247.951 26.1185 248.227 25.9961C248.505 25.8711 248.806 25.8086 249.129 25.8086C249.379 25.8086 249.605 25.8411 249.809 25.9062C250.012 25.9688 250.185 26.0625 250.328 26.1875C250.474 26.3125 250.586 26.4688 250.664 26.6562C250.745 26.8438 250.785 27.0599 250.785 27.3047C250.785 27.5078 250.758 27.6979 250.703 27.875C250.648 28.0495 250.569 28.2201 250.465 28.3867C250.361 28.5534 250.232 28.7201 250.078 28.8867C249.927 29.0534 249.754 29.2292 249.559 29.4141L248.816 30.1211H250.969V31H247.504Z" fill="#454D58"/>
<path d="M288.984 29.4414C288.984 29.694 288.938 29.9219 288.844 30.125C288.75 30.3255 288.605 30.4974 288.41 30.6406C288.217 30.7812 287.974 30.8893 287.68 30.9648C287.385 31.0404 287.039 31.0781 286.641 31.0781C286.552 31.0781 286.458 31.0755 286.359 31.0703C286.263 31.0677 286.167 31.0625 286.07 31.0547C285.974 31.0495 285.88 31.0417 285.789 31.0312C285.698 31.0234 285.616 31.013 285.543 31V30.1719C285.707 30.2031 285.891 30.2292 286.094 30.25C286.299 30.2682 286.513 30.2773 286.734 30.2773C286.951 30.2773 287.137 30.2591 287.293 30.2227C287.449 30.1862 287.578 30.1341 287.68 30.0664C287.781 29.9961 287.855 29.9102 287.902 29.8086C287.952 29.707 287.977 29.5924 287.977 29.4648C287.977 29.3529 287.952 29.2513 287.902 29.1602C287.853 29.069 287.777 28.9922 287.676 28.9297C287.574 28.8646 287.444 28.8151 287.285 28.7812C287.129 28.7448 286.943 28.7266 286.727 28.7266H286.16V28H286.68C286.883 28 287.051 27.9805 287.184 27.9414C287.319 27.8997 287.426 27.8451 287.504 27.7773C287.585 27.7096 287.642 27.6302 287.676 27.5391C287.71 27.4453 287.727 27.3477 287.727 27.2461C287.727 27.0378 287.659 26.8802 287.523 26.7734C287.388 26.6641 287.178 26.6094 286.895 26.6094C286.691 26.6094 286.491 26.6289 286.293 26.668C286.095 26.707 285.891 26.7591 285.68 26.8242V26.0234C285.797 25.9844 285.909 25.9518 286.016 25.9258C286.122 25.8997 286.229 25.8776 286.336 25.8594C286.443 25.8411 286.551 25.8281 286.66 25.8203C286.77 25.8125 286.883 25.8086 287 25.8086C287.281 25.8086 287.527 25.8385 287.738 25.8984C287.952 25.9583 288.13 26.0443 288.273 26.1562C288.419 26.2656 288.529 26.3997 288.602 26.5586C288.674 26.7174 288.711 26.8945 288.711 27.0898C288.711 27.3997 288.639 27.651 288.496 27.8438C288.355 28.0339 288.158 28.1797 287.902 28.2812C288.066 28.3073 288.215 28.3529 288.348 28.418C288.48 28.4805 288.594 28.5625 288.688 28.6641C288.784 28.763 288.857 28.8776 288.906 29.0078C288.958 29.138 288.984 29.2826 288.984 29.4414Z" fill="#454D58"/>
<path d="M9.87891 39.9453C9.87891 40.0312 9.86328 40.112 9.83203 40.1875C9.80078 40.263 9.75651 40.3294 9.69922 40.3867C9.64453 40.4414 9.57943 40.4857 9.50391 40.5195C9.42839 40.5508 9.34635 40.5664 9.25781 40.5664C9.16927 40.5664 9.08594 40.5508 9.00781 40.5195C8.93229 40.4857 8.86589 40.4414 8.80859 40.3867C8.75391 40.3294 8.71094 40.263 8.67969 40.1875C8.64844 40.112 8.63281 40.0312 8.63281 39.9453C8.63281 39.8594 8.64844 39.7786 8.67969 39.7031C8.71094 39.6276 8.75391 39.5612 8.80859 39.5039C8.86589 39.4466 8.93229 39.4023 9.00781 39.3711C9.08594 39.3372 9.16927 39.3203 9.25781 39.3203C9.34635 39.3203 9.42839 39.3372 9.50391 39.3711C9.57943 39.4023 9.64453 39.4466 9.69922 39.5039C9.75651 39.5612 9.80078 39.6276 9.83203 39.7031C9.86328 39.7786 9.87891 39.8594 9.87891 39.9453ZM8.82422 41.7734H7.70312V41.0312H9.80078V44.2578H10.9453V45H7.56641V44.2578H8.82422V41.7734ZM14.4919 45V42.4141C14.4919 41.9792 14.3305 41.7617 14.0076 41.7617C13.8461 41.7617 13.6911 41.8268 13.5427 41.957C13.3969 42.0872 13.2419 42.2643 13.0779 42.4883V45H12.1247V41.0312H12.949L12.9724 41.6172C13.0531 41.5156 13.1365 41.4232 13.2224 41.3398C13.3109 41.2565 13.406 41.1862 13.5076 41.1289C13.6091 41.069 13.7185 41.0234 13.8357 40.9922C13.9529 40.9609 14.0844 40.9453 14.2302 40.9453C14.4333 40.9453 14.6104 40.9792 14.7615 41.0469C14.9125 41.112 15.0388 41.2057 15.1404 41.3281C15.2419 41.4479 15.3174 41.5938 15.3669 41.7656C15.419 41.9349 15.4451 42.125 15.4451 42.3359V45H14.4919ZM19.2026 45L19.1792 44.4141C19.0958 44.5156 19.0099 44.6081 18.9214 44.6914C18.8328 44.7747 18.7378 44.8464 18.6362 44.9062C18.5346 44.9635 18.4253 45.0078 18.3081 45.0391C18.1935 45.0729 18.0659 45.0898 17.9253 45.0898C17.6909 45.0898 17.4826 45.043 17.3003 44.9492C17.118 44.8555 16.9643 44.7227 16.8393 44.5508C16.7169 44.3763 16.6232 44.1654 16.5581 43.918C16.493 43.6706 16.4604 43.3945 16.4604 43.0898C16.4604 42.7253 16.5112 42.4102 16.6128 42.1445C16.7169 41.8763 16.8602 41.6549 17.0424 41.4805C17.2247 41.3034 17.4409 41.1732 17.6909 41.0898C17.9409 41.0039 18.213 40.9609 18.5073 40.9609C18.6063 40.9609 18.7052 40.9674 18.8042 40.9805C18.9057 40.9935 18.9956 41.0104 19.0737 41.0312V39.4805H20.0268V45H19.2026ZM17.4604 43.0469C17.4604 43.2656 17.4747 43.4531 17.5034 43.6094C17.5346 43.763 17.5789 43.8893 17.6362 43.9883C17.6961 44.0872 17.769 44.1602 17.8549 44.207C17.9409 44.2513 18.0385 44.2734 18.1479 44.2734C18.3094 44.2734 18.463 44.2083 18.6089 44.0781C18.7547 43.9479 18.9096 43.7695 19.0737 43.543V41.8086C18.9982 41.7799 18.9044 41.7565 18.7924 41.7383C18.6831 41.7201 18.5724 41.7109 18.4604 41.7109C18.3068 41.7109 18.1688 41.7422 18.0464 41.8047C17.924 41.8672 17.8185 41.9557 17.7299 42.0703C17.644 42.1849 17.5776 42.3255 17.5307 42.4922C17.4839 42.6562 17.4604 42.8411 17.4604 43.0469ZM24.7453 42.7109C24.7453 42.776 24.7427 42.8607 24.7375 42.9648C24.7349 43.069 24.7297 43.1667 24.7219 43.2578H22.1125C22.1125 43.4323 22.1385 43.5859 22.1906 43.7188C22.2453 43.8516 22.3208 43.9635 22.4172 44.0547C22.5161 44.1432 22.6333 44.2109 22.7688 44.2578C22.9068 44.3047 23.0591 44.3281 23.2258 44.3281C23.4185 44.3281 23.6242 44.3138 23.843 44.2852C24.0643 44.2539 24.2935 44.2044 24.5305 44.1367V44.8945C24.4289 44.9232 24.3182 44.9492 24.1984 44.9727C24.0786 44.9961 23.9563 45.0169 23.8313 45.0352C23.7063 45.0534 23.5799 45.0664 23.4523 45.0742C23.3247 45.0846 23.201 45.0898 23.0813 45.0898C22.7792 45.0898 22.5083 45.0469 22.2688 44.9609C22.0292 44.875 21.826 44.7487 21.6594 44.582C21.4927 44.4128 21.3651 44.2044 21.2766 43.957C21.188 43.7096 21.1438 43.4232 21.1438 43.0977C21.1438 42.7747 21.188 42.4818 21.2766 42.2188C21.3651 41.9531 21.4901 41.7266 21.6516 41.5391C21.813 41.349 22.0083 41.2031 22.2375 41.1016C22.4693 40.9974 22.7271 40.9453 23.0109 40.9453C23.2922 40.9453 23.5409 40.9896 23.757 41.0781C23.9732 41.1641 24.1542 41.2852 24.3 41.4414C24.4458 41.5977 24.5565 41.7839 24.632 42C24.7076 42.2161 24.7453 42.4531 24.7453 42.7109ZM23.7766 42.5742C23.7792 42.418 23.7596 42.2826 23.718 42.168C23.6763 42.0508 23.619 41.9544 23.5461 41.8789C23.4758 41.8034 23.3924 41.7474 23.2961 41.7109C23.2023 41.6745 23.1008 41.6562 22.9914 41.6562C22.7518 41.6562 22.5552 41.737 22.4016 41.8984C22.2479 42.0573 22.1568 42.2826 22.1281 42.5742H23.7766ZM28.4247 45L27.5185 43.6641L26.6083 45H25.456L26.9443 43L25.5341 41.0312H26.6943L27.5849 42.3359L28.4638 41.0312H29.5341L28.1669 42.9922L29.6083 45H28.4247Z" fill="#454D58"/>
<rect x="232" y="111" width="36" height="16" rx="5" fill="#81B29A"/>
<path d="M248.91 122H247.832L249.863 117.816H247.414V116.895H250.961V117.727L248.91 122Z" fill="#454D58"/>
<rect x="34" y="128" width="87" height="16" rx="5" fill="#81B29A"/>
<path d="M68.8164 135.832C68.8164 136.059 68.7656 136.253 68.6641 136.414C68.5651 136.573 68.4323 136.703 68.2656 136.805C68.1016 136.904 67.9141 136.975 67.7031 137.02C67.4948 137.066 67.2812 137.09 67.0625 137.09C66.7708 137.09 66.5078 137.076 66.2734 137.047C66.0391 137.021 65.8177 136.982 65.6094 136.93V136.07C65.8542 136.172 66.0977 136.246 66.3398 136.293C66.5846 136.337 66.8151 136.359 67.0312 136.359C67.2812 136.359 67.4674 136.32 67.5898 136.242C67.7148 136.161 67.7773 136.057 67.7773 135.93C67.7773 135.87 67.7643 135.815 67.7383 135.766C67.7122 135.716 67.6628 135.669 67.5898 135.625C67.5195 135.578 67.4193 135.531 67.2891 135.484C67.1589 135.435 66.9883 135.38 66.7773 135.32C66.582 135.266 66.4102 135.204 66.2617 135.137C66.1159 135.066 65.9948 134.984 65.8984 134.891C65.8021 134.797 65.7292 134.689 65.6797 134.566C65.6328 134.441 65.6094 134.296 65.6094 134.129C65.6094 133.967 65.6458 133.815 65.7188 133.672C65.7917 133.529 65.8997 133.404 66.043 133.297C66.1888 133.188 66.3698 133.102 66.5859 133.039C66.8021 132.977 67.0547 132.945 67.3438 132.945C67.5938 132.945 67.8151 132.958 68.0078 132.984C68.2005 133.01 68.3711 133.039 68.5195 133.07V133.848C68.293 133.775 68.0794 133.724 67.8789 133.695C67.681 133.664 67.4844 133.648 67.2891 133.648C67.0938 133.648 66.9362 133.684 66.8164 133.754C66.6992 133.824 66.6406 133.922 66.6406 134.047C66.6406 134.107 66.6523 134.16 66.6758 134.207C66.6992 134.254 66.7448 134.299 66.8125 134.344C66.8828 134.388 66.9792 134.435 67.1016 134.484C67.2266 134.531 67.3906 134.583 67.5938 134.641C67.8229 134.706 68.0156 134.776 68.1719 134.852C68.3281 134.924 68.4531 135.008 68.5469 135.102C68.6432 135.195 68.7122 135.302 68.7539 135.422C68.7956 135.542 68.8164 135.678 68.8164 135.832ZM73.5818 134.711C73.5818 134.776 73.5792 134.861 73.574 134.965C73.5714 135.069 73.5661 135.167 73.5583 135.258H70.949C70.949 135.432 70.975 135.586 71.0271 135.719C71.0818 135.852 71.1573 135.964 71.2536 136.055C71.3526 136.143 71.4698 136.211 71.6052 136.258C71.7432 136.305 71.8956 136.328 72.0622 136.328C72.2549 136.328 72.4607 136.314 72.6794 136.285C72.9008 136.254 73.1299 136.204 73.3669 136.137V136.895C73.2654 136.923 73.1547 136.949 73.0349 136.973C72.9151 136.996 72.7927 137.017 72.6677 137.035C72.5427 137.053 72.4164 137.066 72.2888 137.074C72.1612 137.085 72.0375 137.09 71.9177 137.09C71.6156 137.09 71.3448 137.047 71.1052 136.961C70.8656 136.875 70.6625 136.749 70.4958 136.582C70.3292 136.413 70.2016 136.204 70.113 135.957C70.0245 135.71 69.9802 135.423 69.9802 135.098C69.9802 134.775 70.0245 134.482 70.113 134.219C70.2016 133.953 70.3266 133.727 70.488 133.539C70.6495 133.349 70.8448 133.203 71.074 133.102C71.3057 132.997 71.5635 132.945 71.8474 132.945C72.1286 132.945 72.3773 132.99 72.5935 133.078C72.8096 133.164 72.9906 133.285 73.1365 133.441C73.2823 133.598 73.393 133.784 73.4685 134C73.544 134.216 73.5818 134.453 73.5818 134.711ZM72.613 134.574C72.6156 134.418 72.5961 134.283 72.5544 134.168C72.5128 134.051 72.4555 133.954 72.3826 133.879C72.3122 133.803 72.2289 133.747 72.1326 133.711C72.0388 133.674 71.9372 133.656 71.8279 133.656C71.5883 133.656 71.3917 133.737 71.238 133.898C71.0844 134.057 70.9932 134.283 70.9646 134.574H72.613ZM77.0737 137V134.414C77.0737 133.979 76.9122 133.762 76.5893 133.762C76.4279 133.762 76.2729 133.827 76.1245 133.957C75.9786 134.087 75.8237 134.264 75.6596 134.488V137H74.7065V133.031H75.5307L75.5542 133.617C75.6349 133.516 75.7182 133.423 75.8042 133.34C75.8927 133.257 75.9878 133.186 76.0893 133.129C76.1909 133.069 76.3003 133.023 76.4174 132.992C76.5346 132.961 76.6661 132.945 76.812 132.945C77.0151 132.945 77.1922 132.979 77.3432 133.047C77.4943 133.112 77.6206 133.206 77.7221 133.328C77.8237 133.448 77.8992 133.594 77.9487 133.766C78.0008 133.935 78.0268 134.125 78.0268 134.336V137H77.0737ZM81.7844 137L81.7609 136.414C81.6776 136.516 81.5917 136.608 81.5031 136.691C81.4146 136.775 81.3195 136.846 81.218 136.906C81.1164 136.964 81.007 137.008 80.8898 137.039C80.7753 137.073 80.6477 137.09 80.507 137.09C80.2727 137.09 80.0643 137.043 79.882 136.949C79.6997 136.855 79.5461 136.723 79.4211 136.551C79.2987 136.376 79.2049 136.165 79.1398 135.918C79.0747 135.671 79.0422 135.395 79.0422 135.09C79.0422 134.725 79.093 134.41 79.1945 134.145C79.2987 133.876 79.4419 133.655 79.6242 133.48C79.8065 133.303 80.0227 133.173 80.2727 133.09C80.5227 133.004 80.7948 132.961 81.0891 132.961C81.188 132.961 81.287 132.967 81.3859 132.98C81.4875 132.993 81.5773 133.01 81.6555 133.031V131.48H82.6086V137H81.7844ZM80.0422 135.047C80.0422 135.266 80.0565 135.453 80.0852 135.609C80.1164 135.763 80.1607 135.889 80.218 135.988C80.2779 136.087 80.3508 136.16 80.4367 136.207C80.5227 136.251 80.6203 136.273 80.7297 136.273C80.8911 136.273 81.0448 136.208 81.1906 136.078C81.3365 135.948 81.4914 135.77 81.6555 135.543V133.809C81.5799 133.78 81.4862 133.757 81.3742 133.738C81.2648 133.72 81.1542 133.711 81.0422 133.711C80.8885 133.711 80.7505 133.742 80.6281 133.805C80.5057 133.867 80.4003 133.956 80.3117 134.07C80.2258 134.185 80.1594 134.326 80.1125 134.492C80.0656 134.656 80.0422 134.841 80.0422 135.047ZM86.4247 137L85.5185 135.664L84.6083 137H83.456L84.9443 135L83.5341 133.031H84.6943L85.5849 134.336L86.4638 133.031H87.5341L86.1669 134.992L87.6083 137H86.4247Z" fill="#454D58"/>
<rect x="158" y="111" width="36" height="16" rx="5" fill="#F6A9BD"/>
<path d="M175.984 118.441C175.984 118.694 175.938 118.922 175.844 119.125C175.75 119.326 175.605 119.497 175.41 119.641C175.217 119.781 174.974 119.889 174.68 119.965C174.385 120.04 174.039 120.078 173.641 120.078C173.552 120.078 173.458 120.076 173.359 120.07C173.263 120.068 173.167 120.062 173.07 120.055C172.974 120.049 172.88 120.042 172.789 120.031C172.698 120.023 172.616 120.013 172.543 120V119.172C172.707 119.203 172.891 119.229 173.094 119.25C173.299 119.268 173.513 119.277 173.734 119.277C173.951 119.277 174.137 119.259 174.293 119.223C174.449 119.186 174.578 119.134 174.68 119.066C174.781 118.996 174.855 118.91 174.902 118.809C174.952 118.707 174.977 118.592 174.977 118.465C174.977 118.353 174.952 118.251 174.902 118.16C174.853 118.069 174.777 117.992 174.676 117.93C174.574 117.865 174.444 117.815 174.285 117.781C174.129 117.745 173.943 117.727 173.727 117.727H173.16V117H173.68C173.883 117 174.051 116.98 174.184 116.941C174.319 116.9 174.426 116.845 174.504 116.777C174.585 116.71 174.642 116.63 174.676 116.539C174.71 116.445 174.727 116.348 174.727 116.246C174.727 116.038 174.659 115.88 174.523 115.773C174.388 115.664 174.178 115.609 173.895 115.609C173.691 115.609 173.491 115.629 173.293 115.668C173.095 115.707 172.891 115.759 172.68 115.824V115.023C172.797 114.984 172.909 114.952 173.016 114.926C173.122 114.9 173.229 114.878 173.336 114.859C173.443 114.841 173.551 114.828 173.66 114.82C173.77 114.812 173.883 114.809 174 114.809C174.281 114.809 174.527 114.839 174.738 114.898C174.952 114.958 175.13 115.044 175.273 115.156C175.419 115.266 175.529 115.4 175.602 115.559C175.674 115.717 175.711 115.895 175.711 116.09C175.711 116.4 175.639 116.651 175.496 116.844C175.355 117.034 175.158 117.18 174.902 117.281C175.066 117.307 175.215 117.353 175.348 117.418C175.48 117.48 175.594 117.562 175.688 117.664C175.784 117.763 175.857 117.878 175.906 118.008C175.958 118.138 175.984 118.283 175.984 118.441Z" fill="#454D58"/>
<rect x="195" y="111" width="36" height="16" rx="5" fill="#81B29A"/>
<path d="M213.047 118.297C213.174 118.367 213.296 118.445 213.41 118.531C213.527 118.615 213.629 118.712 213.715 118.824C213.803 118.934 213.872 119.059 213.922 119.199C213.974 119.337 214 119.495 214 119.672C214 119.904 213.953 120.108 213.859 120.285C213.766 120.462 213.635 120.611 213.469 120.73C213.305 120.85 213.111 120.94 212.887 121C212.665 121.06 212.426 121.09 212.168 121.09C211.882 121.09 211.628 121.06 211.406 121C211.188 120.938 211.003 120.85 210.852 120.738C210.703 120.626 210.59 120.491 210.512 120.332C210.436 120.173 210.398 119.996 210.398 119.801C210.398 119.626 210.423 119.471 210.473 119.336C210.525 119.198 210.595 119.073 210.684 118.961C210.772 118.849 210.874 118.749 210.988 118.66C211.105 118.572 211.229 118.49 211.359 118.414C211.242 118.346 211.132 118.272 211.027 118.191C210.926 118.111 210.836 118.02 210.758 117.918C210.68 117.816 210.617 117.703 210.57 117.578C210.526 117.453 210.504 117.311 210.504 117.152C210.504 116.967 210.539 116.794 210.609 116.633C210.682 116.469 210.789 116.326 210.93 116.203C211.073 116.081 211.251 115.984 211.465 115.914C211.681 115.844 211.934 115.809 212.223 115.809C212.488 115.809 212.725 115.837 212.934 115.895C213.142 115.949 213.316 116.029 213.457 116.133C213.6 116.237 213.708 116.362 213.781 116.508C213.857 116.651 213.895 116.81 213.895 116.984C213.895 117.146 213.872 117.292 213.828 117.422C213.784 117.552 213.724 117.671 213.648 117.777C213.573 117.882 213.483 117.977 213.379 118.062C213.275 118.146 213.164 118.224 213.047 118.297ZM212.297 117.93C212.391 117.878 212.478 117.823 212.559 117.766C212.642 117.706 212.714 117.641 212.773 117.57C212.833 117.5 212.882 117.423 212.918 117.34C212.954 117.257 212.973 117.164 212.973 117.062C212.973 116.893 212.906 116.764 212.773 116.676C212.641 116.587 212.449 116.543 212.199 116.543C211.954 116.543 211.766 116.589 211.633 116.68C211.5 116.771 211.434 116.908 211.434 117.09C211.434 117.189 211.456 117.277 211.5 117.355C211.544 117.434 211.605 117.507 211.684 117.574C211.762 117.639 211.853 117.701 211.957 117.758C212.064 117.815 212.177 117.872 212.297 117.93ZM212.098 118.793C211.996 118.848 211.9 118.906 211.809 118.969C211.72 119.031 211.642 119.1 211.574 119.176C211.509 119.251 211.457 119.335 211.418 119.426C211.379 119.514 211.359 119.615 211.359 119.727C211.359 119.924 211.436 120.076 211.59 120.18C211.743 120.284 211.947 120.336 212.199 120.336C212.314 120.336 212.422 120.324 212.523 120.301C212.625 120.277 212.714 120.241 212.789 120.191C212.867 120.142 212.928 120.079 212.973 120.004C213.017 119.926 213.039 119.833 213.039 119.727C213.039 119.617 213.014 119.52 212.965 119.434C212.915 119.345 212.848 119.264 212.762 119.191C212.676 119.118 212.576 119.049 212.461 118.984C212.346 118.919 212.225 118.855 212.098 118.793Z" fill="#454D58"/>
<rect x="269" y="111" width="36" height="16" rx="5" fill="#81B29A"/>
<path d="M289.93 120.367C289.93 120.641 289.872 120.884 289.758 121.098C289.643 121.309 289.484 121.487 289.281 121.633C289.078 121.779 288.839 121.889 288.562 121.965C288.286 122.04 287.987 122.078 287.664 122.078C287.583 122.078 287.497 122.076 287.406 122.07C287.315 122.065 287.223 122.059 287.129 122.051C287.035 122.043 286.944 122.033 286.855 122.02C286.767 122.009 286.685 121.997 286.609 121.984V121.152C286.758 121.189 286.928 121.219 287.121 121.242C287.314 121.263 287.51 121.273 287.711 121.273C288.102 121.273 288.398 121.199 288.602 121.051C288.807 120.9 288.91 120.691 288.91 120.426C288.91 120.15 288.815 119.945 288.625 119.812C288.435 119.677 288.128 119.609 287.703 119.609H286.703V116.895H289.648V117.793H287.594V118.832H287.961C288.221 118.832 288.47 118.855 288.707 118.902C288.944 118.949 289.152 119.031 289.332 119.148C289.514 119.263 289.659 119.419 289.766 119.617C289.875 119.815 289.93 120.065 289.93 120.367Z" fill="#454D58"/>
<rect x="34" y="145" width="87" height="16" rx="5" fill="#81B29A"/>
<path d="M68.0977 151.574C68.1029 151.426 68.0951 151.299 68.0742 151.195C68.056 151.091 68.0247 151.005 67.9805 150.938C67.9388 150.87 67.8867 150.82 67.8242 150.789C67.7617 150.758 67.6901 150.742 67.6094 150.742C67.4688 150.742 67.3229 150.801 67.1719 150.918C67.0234 151.033 66.8594 151.223 66.6797 151.488V154H65.7031V150.031H66.5664L66.6016 150.609C66.6667 150.508 66.7396 150.417 66.8203 150.336C66.9036 150.255 66.9948 150.186 67.0938 150.129C67.1953 150.069 67.3073 150.023 67.4297 149.992C67.5521 149.961 67.6862 149.945 67.832 149.945C68.0326 149.945 68.2096 149.98 68.3633 150.051C68.5195 150.118 68.6497 150.22 68.7539 150.355C68.8607 150.491 68.9388 150.661 68.9883 150.867C69.0404 151.07 69.0625 151.306 69.0547 151.574H68.0977ZM73.5818 151.711C73.5818 151.776 73.5792 151.861 73.574 151.965C73.5714 152.069 73.5661 152.167 73.5583 152.258H70.949C70.949 152.432 70.975 152.586 71.0271 152.719C71.0818 152.852 71.1573 152.964 71.2536 153.055C71.3526 153.143 71.4698 153.211 71.6052 153.258C71.7432 153.305 71.8956 153.328 72.0622 153.328C72.2549 153.328 72.4607 153.314 72.6794 153.285C72.9008 153.254 73.1299 153.204 73.3669 153.137V153.895C73.2654 153.923 73.1547 153.949 73.0349 153.973C72.9151 153.996 72.7927 154.017 72.6677 154.035C72.5427 154.053 72.4164 154.066 72.2888 154.074C72.1612 154.085 72.0375 154.09 71.9177 154.09C71.6156 154.09 71.3448 154.047 71.1052 153.961C70.8656 153.875 70.6625 153.749 70.4958 153.582C70.3292 153.413 70.2016 153.204 70.113 152.957C70.0245 152.71 69.9802 152.423 69.9802 152.098C69.9802 151.775 70.0245 151.482 70.113 151.219C70.2016 150.953 70.3266 150.727 70.488 150.539C70.6495 150.349 70.8448 150.203 71.074 150.102C71.3057 149.997 71.5635 149.945 71.8474 149.945C72.1286 149.945 72.3773 149.99 72.5935 150.078C72.8096 150.164 72.9906 150.285 73.1365 150.441C73.2823 150.598 73.393 150.784 73.4685 151C73.544 151.216 73.5818 151.453 73.5818 151.711ZM72.613 151.574C72.6156 151.418 72.5961 151.283 72.5544 151.168C72.5128 151.051 72.4555 150.954 72.3826 150.879C72.3122 150.803 72.2289 150.747 72.1326 150.711C72.0388 150.674 71.9372 150.656 71.8279 150.656C71.5883 150.656 71.3917 150.737 71.238 150.898C71.0844 151.057 70.9932 151.283 70.9646 151.574H72.613ZM77.9174 153.848C77.7299 153.923 77.5359 153.979 77.3354 154.016C77.1349 154.052 76.9253 154.07 76.7065 154.07C76.3914 154.07 76.1089 154.027 75.8589 153.941C75.6089 153.855 75.3966 153.728 75.2221 153.559C75.0477 153.389 74.9135 153.18 74.8198 152.93C74.7286 152.68 74.6831 152.391 74.6831 152.062C74.6831 151.745 74.7326 151.457 74.8315 151.199C74.9331 150.941 75.075 150.721 75.2573 150.539C75.4396 150.357 75.6583 150.216 75.9135 150.117C76.1714 150.018 76.4578 149.969 76.7729 149.969C77.0307 149.969 77.2469 149.983 77.4214 150.012C77.5984 150.038 77.7573 150.072 77.8979 150.113V151.039C77.7365 150.958 77.5607 150.896 77.3706 150.852C77.1831 150.807 77.0047 150.785 76.8354 150.785C76.6583 150.785 76.4995 150.815 76.3589 150.875C76.2182 150.935 76.0997 151.018 76.0034 151.125C75.907 151.232 75.8328 151.362 75.7807 151.516C75.7313 151.667 75.7065 151.833 75.7065 152.016C75.7065 152.206 75.7339 152.376 75.7885 152.527C75.8432 152.678 75.9201 152.807 76.019 152.914C76.1206 153.018 76.2417 153.099 76.3823 153.156C76.5229 153.211 76.6792 153.238 76.851 153.238C76.9344 153.238 77.0216 153.233 77.1128 153.223C77.2065 153.21 77.299 153.193 77.3901 153.172C77.4839 153.148 77.575 153.122 77.6635 153.094C77.7547 153.065 77.8393 153.034 77.9174 153V153.848ZM81.507 154H80.4094L78.8352 150.031H79.8977L80.7219 152.281L80.968 153.008L81.2102 152.312L82.0422 150.031H83.0656L81.507 154ZM86.4247 154L85.5185 152.664L84.6083 154H83.456L84.9443 152L83.5341 150.031H84.6943L85.5849 151.336L86.4638 150.031H87.5341L86.1669 151.992L87.6083 154H86.4247Z" fill="#454D58"/>
<rect x="34" y="111" width="87" height="16" rx="5" fill="#81B29A"/>
<path d="M73.1133 118.945C73.1133 119.31 73.0612 119.625 72.957 119.891C72.8555 120.156 72.7122 120.378 72.5273 120.555C72.3451 120.729 72.1289 120.859 71.8789 120.945C71.6289 121.029 71.3568 121.07 71.0625 121.07C70.7734 121.07 70.5039 121.048 70.2539 121.004C70.0065 120.962 69.7695 120.905 69.543 120.832V115.48H70.4961V116.777L70.457 117.559C70.6003 117.374 70.7669 117.225 70.957 117.113C71.1497 117.001 71.3802 116.945 71.6484 116.945C71.8828 116.945 72.0911 116.992 72.2734 117.086C72.4557 117.18 72.6081 117.314 72.7305 117.488C72.8555 117.66 72.9505 117.87 73.0156 118.117C73.0807 118.362 73.1133 118.638 73.1133 118.945ZM72.1133 118.984C72.1133 118.766 72.0977 118.579 72.0664 118.426C72.0352 118.272 71.9896 118.146 71.9297 118.047C71.8724 117.948 71.8008 117.876 71.7148 117.832C71.6315 117.785 71.5352 117.762 71.4258 117.762C71.2643 117.762 71.1094 117.827 70.9609 117.957C70.8151 118.087 70.6602 118.264 70.4961 118.488V120.223C70.5716 120.251 70.6641 120.275 70.7734 120.293C70.8854 120.311 70.9987 120.32 71.1133 120.32C71.2643 120.32 71.401 120.289 71.5234 120.227C71.6484 120.164 71.7539 120.076 71.8398 119.961C71.9284 119.846 71.9961 119.707 72.043 119.543C72.0898 119.376 72.1133 119.19 72.1133 118.984ZM75.0701 117.031V119.617C75.0701 119.833 75.1104 119.997 75.1911 120.109C75.2719 120.219 75.3943 120.273 75.5583 120.273C75.7172 120.273 75.8695 120.208 76.0154 120.078C76.1638 119.945 76.3201 119.767 76.4841 119.543V117.031H77.4372V121H76.613L76.5896 120.414C76.5063 120.516 76.4216 120.608 76.3357 120.691C76.2497 120.775 76.156 120.846 76.0544 120.906C75.9555 120.964 75.8461 121.008 75.7263 121.039C75.6091 121.073 75.4789 121.09 75.3357 121.09C75.1326 121.09 74.9542 121.057 74.8005 120.992C74.6495 120.924 74.5232 120.829 74.4216 120.707C74.3201 120.585 74.2432 120.439 74.1911 120.27C74.1417 120.098 74.1169 119.906 74.1169 119.695V117.031H75.0701ZM82.269 116.289C82.1544 116.253 82.0177 116.223 81.8589 116.199C81.7026 116.173 81.5424 116.16 81.3784 116.16C81.2664 116.16 81.1622 116.176 81.0659 116.207C80.9695 116.236 80.8862 116.283 80.8159 116.348C80.7456 116.413 80.6896 116.496 80.6479 116.598C80.6089 116.697 80.5893 116.818 80.5893 116.961V117.602H82.1479V118.344H80.5893V121H79.6284V118.344H78.476V117.602H79.6284V117C79.6284 116.719 79.6688 116.478 79.7495 116.277C79.8328 116.074 79.9487 115.909 80.0971 115.781C80.2482 115.651 80.4292 115.556 80.6401 115.496C80.851 115.436 81.0867 115.406 81.3471 115.406C81.519 115.406 81.6818 115.418 81.8354 115.441C81.9917 115.462 82.1362 115.488 82.269 115.52V116.289Z" fill="#454D58"/>
<line x1="121" y1="117.5" x2="155" y2="117.5" stroke="#454D58" stroke-width="3"/>
<path fill-rule="evenodd" clip-rule="evenodd" d="M158 117.5L153 121V114L158 117.5Z" fill="#454D58"/>
<path d="M178.191 105.426C178.191 105.845 178.146 106.22 178.055 106.551C177.964 106.882 177.829 107.161 177.652 107.391C177.478 107.617 177.264 107.79 177.012 107.91C176.759 108.03 176.47 108.09 176.145 108.09C175.863 108.09 175.604 108.04 175.367 107.941C175.13 107.842 174.926 107.688 174.754 107.477C174.582 107.263 174.448 106.991 174.352 106.66C174.255 106.329 174.207 105.934 174.207 105.473C174.207 105.053 174.253 104.678 174.344 104.348C174.438 104.017 174.572 103.738 174.746 103.512C174.921 103.283 175.135 103.108 175.391 102.988C175.646 102.868 175.935 102.809 176.258 102.809C176.539 102.809 176.798 102.858 177.035 102.957C177.272 103.056 177.475 103.211 177.645 103.422C177.816 103.633 177.951 103.904 178.047 104.234C178.143 104.565 178.191 104.962 178.191 105.426ZM175.168 105.441C175.168 105.493 175.168 105.543 175.168 105.59C175.168 105.634 175.171 105.68 175.176 105.727L177.09 104.344C176.999 104.086 176.878 103.896 176.727 103.773C176.578 103.648 176.402 103.586 176.199 103.586C176.053 103.586 175.918 103.624 175.793 103.699C175.668 103.772 175.559 103.885 175.465 104.039C175.374 104.193 175.301 104.385 175.246 104.617C175.194 104.849 175.168 105.124 175.168 105.441ZM177.23 105.457C177.23 105.413 177.229 105.368 177.227 105.324C177.224 105.277 177.223 105.233 177.223 105.191L175.32 106.566C175.404 106.819 175.521 107.007 175.672 107.129C175.823 107.251 175.999 107.312 176.199 107.312C176.345 107.312 176.48 107.275 176.605 107.199C176.733 107.124 176.842 107.01 176.934 106.859C177.027 106.706 177.1 106.513 177.152 106.281C177.204 106.047 177.23 105.772 177.23 105.457Z" fill="#454D58"/>
<path d="M126.113 103.945C126.113 104.31 126.061 104.625 125.957 104.891C125.855 105.156 125.712 105.378 125.527 105.555C125.345 105.729 125.129 105.859 124.879 105.945C124.629 106.029 124.357 106.07 124.062 106.07C123.773 106.07 123.504 106.048 123.254 106.004C123.007 105.962 122.77 105.905 122.543 105.832V100.48H123.496V101.777L123.457 102.559C123.6 102.374 123.767 102.225 123.957 102.113C124.15 102.001 124.38 101.945 124.648 101.945C124.883 101.945 125.091 101.992 125.273 102.086C125.456 102.18 125.608 102.314 125.73 102.488C125.855 102.66 125.951 102.87 126.016 103.117C126.081 103.362 126.113 103.638 126.113 103.945ZM125.113 103.984C125.113 103.766 125.098 103.579 125.066 103.426C125.035 103.272 124.99 103.146 124.93 103.047C124.872 102.948 124.801 102.876 124.715 102.832C124.632 102.785 124.535 102.762 124.426 102.762C124.264 102.762 124.109 102.827 123.961 102.957C123.815 103.087 123.66 103.264 123.496 103.488V105.223C123.572 105.251 123.664 105.275 123.773 105.293C123.885 105.311 123.999 105.32 124.113 105.32C124.264 105.32 124.401 105.289 124.523 105.227C124.648 105.164 124.754 105.076 124.84 104.961C124.928 104.846 124.996 104.707 125.043 104.543C125.09 104.376 125.113 104.19 125.113 103.984ZM128.07 102.031V104.617C128.07 104.833 128.11 104.997 128.191 105.109C128.272 105.219 128.394 105.273 128.558 105.273C128.717 105.273 128.87 105.208 129.015 105.078C129.164 104.945 129.32 104.767 129.484 104.543V102.031H130.437V106H129.613L129.59 105.414C129.506 105.516 129.422 105.608 129.336 105.691C129.25 105.775 129.156 105.846 129.054 105.906C128.955 105.964 128.846 106.008 128.726 106.039C128.609 106.073 128.479 106.09 128.336 106.09C128.133 106.09 127.954 106.057 127.801 105.992C127.649 105.924 127.523 105.829 127.422 105.707C127.32 105.585 127.243 105.439 127.191 105.27C127.142 105.098 127.117 104.906 127.117 104.695V102.031H128.07ZM135.269 101.289C135.154 101.253 135.018 101.223 134.859 101.199C134.703 101.173 134.542 101.16 134.378 101.16C134.266 101.16 134.162 101.176 134.066 101.207C133.97 101.236 133.886 101.283 133.816 101.348C133.746 101.413 133.69 101.496 133.648 101.598C133.609 101.697 133.589 101.818 133.589 101.961V102.602H135.148V103.344H133.589V106H132.628V103.344H131.476V102.602H132.628V102C132.628 101.719 132.669 101.478 132.749 101.277C132.833 101.074 132.949 100.909 133.097 100.781C133.248 100.651 133.429 100.556 133.64 100.496C133.851 100.436 134.087 100.406 134.347 100.406C134.519 100.406 134.682 100.418 134.835 100.441C134.992 100.462 135.136 100.488 135.269 100.52V101.289ZM143.206 100.945C143.206 101.031 143.19 101.112 143.159 101.188C143.128 101.263 143.084 101.329 143.026 101.387C142.972 101.441 142.907 101.486 142.831 101.52C142.755 101.551 142.673 101.566 142.585 101.566C142.496 101.566 142.413 101.551 142.335 101.52C142.259 101.486 142.193 101.441 142.136 101.387C142.081 101.329 142.038 101.263 142.007 101.188C141.976 101.112 141.96 101.031 141.96 100.945C141.96 100.859 141.976 100.779 142.007 100.703C142.038 100.628 142.081 100.561 142.136 100.504C142.193 100.447 142.259 100.402 142.335 100.371C142.413 100.337 142.496 100.32 142.585 100.32C142.673 100.32 142.755 100.337 142.831 100.371C142.907 100.402 142.972 100.447 143.026 100.504C143.084 100.561 143.128 100.628 143.159 100.703C143.19 100.779 143.206 100.859 143.206 100.945ZM142.151 102.773H141.03V102.031H143.128V105.258H144.272V106H140.893V105.258H142.151V102.773ZM147.819 106V103.414C147.819 102.979 147.658 102.762 147.335 102.762C147.173 102.762 147.018 102.827 146.87 102.957C146.724 103.087 146.569 103.264 146.405 103.488V106H145.452V102.031H146.276L146.299 102.617C146.38 102.516 146.464 102.423 146.549 102.34C146.638 102.257 146.733 102.186 146.835 102.129C146.936 102.069 147.046 102.023 147.163 101.992C147.28 101.961 147.411 101.945 147.557 101.945C147.76 101.945 147.938 101.979 148.089 102.047C148.24 102.112 148.366 102.206 148.467 102.328C148.569 102.448 148.645 102.594 148.694 102.766C148.746 102.935 148.772 103.125 148.772 103.336V106H147.819ZM152.53 106L152.506 105.414C152.423 105.516 152.337 105.608 152.248 105.691C152.16 105.775 152.065 105.846 151.963 105.906C151.862 105.964 151.752 106.008 151.635 106.039C151.521 106.073 151.393 106.09 151.252 106.09C151.018 106.09 150.81 106.043 150.627 105.949C150.445 105.855 150.291 105.723 150.166 105.551C150.044 105.376 149.95 105.165 149.885 104.918C149.82 104.671 149.788 104.395 149.788 104.09C149.788 103.725 149.838 103.41 149.94 103.145C150.044 102.876 150.187 102.655 150.37 102.48C150.552 102.303 150.768 102.173 151.018 102.09C151.268 102.004 151.54 101.961 151.834 101.961C151.933 101.961 152.032 101.967 152.131 101.98C152.233 101.993 152.323 102.01 152.401 102.031V100.48H153.354V106H152.53ZM150.788 104.047C150.788 104.266 150.802 104.453 150.83 104.609C150.862 104.763 150.906 104.889 150.963 104.988C151.023 105.087 151.096 105.16 151.182 105.207C151.268 105.251 151.366 105.273 151.475 105.273C151.636 105.273 151.79 105.208 151.936 105.078C152.082 104.948 152.237 104.77 152.401 104.543V102.809C152.325 102.78 152.232 102.757 152.12 102.738C152.01 102.72 151.899 102.711 151.788 102.711C151.634 102.711 151.496 102.742 151.373 102.805C151.251 102.867 151.146 102.956 151.057 103.07C150.971 103.185 150.905 103.326 150.858 103.492C150.811 103.656 150.788 103.841 150.788 104.047ZM158.072 103.711C158.072 103.776 158.07 103.861 158.065 103.965C158.062 104.069 158.057 104.167 158.049 104.258H155.44C155.44 104.432 155.466 104.586 155.518 104.719C155.572 104.852 155.648 104.964 155.744 105.055C155.843 105.143 155.96 105.211 156.096 105.258C156.234 105.305 156.386 105.328 156.553 105.328C156.746 105.328 156.951 105.314 157.17 105.285C157.391 105.254 157.621 105.204 157.858 105.137V105.895C157.756 105.923 157.645 105.949 157.526 105.973C157.406 105.996 157.283 106.017 157.158 106.035C157.033 106.053 156.907 106.066 156.779 106.074C156.652 106.085 156.528 106.09 156.408 106.09C156.106 106.09 155.835 106.047 155.596 105.961C155.356 105.875 155.153 105.749 154.986 105.582C154.82 105.413 154.692 105.204 154.604 104.957C154.515 104.71 154.471 104.423 154.471 104.098C154.471 103.775 154.515 103.482 154.604 103.219C154.692 102.953 154.817 102.727 154.979 102.539C155.14 102.349 155.335 102.203 155.565 102.102C155.796 101.997 156.054 101.945 156.338 101.945C156.619 101.945 156.868 101.99 157.084 102.078C157.3 102.164 157.481 102.285 157.627 102.441C157.773 102.598 157.884 102.784 157.959 103C158.035 103.216 158.072 103.453 158.072 103.711ZM157.104 103.574C157.106 103.418 157.087 103.283 157.045 103.168C157.003 103.051 156.946 102.954 156.873 102.879C156.803 102.803 156.72 102.747 156.623 102.711C156.529 102.674 156.428 102.656 156.318 102.656C156.079 102.656 155.882 102.737 155.729 102.898C155.575 103.057 155.484 103.283 155.455 103.574H157.104ZM161.752 106L160.846 104.664L159.935 106H158.783L160.271 104L158.861 102.031H160.021L160.912 103.336L161.791 102.031H162.861L161.494 103.992L162.935 106H161.752Z" fill="#454D58"/>
<path d="M25.5938 138V137.152H26.8945V133.871L25.7617 134.496L25.4492 133.719L27.0703 132.863H27.8711V137.152H28.9922V138H25.5938Z" fill="#454D58"/>
<path d="M25.5938 157V156.152H26.8945V152.871L25.7617 153.496L25.4492 152.719L27.0703 151.863H27.8711V156.152H28.9922V157H25.5938Z" fill="#454D58"/>
<path d="M209.594 108V107.152H210.895V103.871L209.762 104.496L209.449 103.719L211.07 102.863H211.871V107.152H212.992V108H209.594Z" fill="#454D58"/>
<path d="M247.504 108V107.297L248.711 106.09C248.938 105.863 249.118 105.668 249.254 105.504C249.392 105.34 249.497 105.194 249.57 105.066C249.646 104.936 249.695 104.816 249.719 104.707C249.742 104.598 249.754 104.484 249.754 104.367C249.754 104.271 249.738 104.18 249.707 104.094C249.676 104.005 249.63 103.93 249.57 103.867C249.51 103.802 249.435 103.751 249.344 103.715C249.253 103.676 249.148 103.656 249.031 103.656C248.831 103.656 248.645 103.701 248.473 103.789C248.301 103.875 248.138 103.991 247.984 104.137L247.48 103.488C247.702 103.283 247.951 103.118 248.227 102.996C248.505 102.871 248.806 102.809 249.129 102.809C249.379 102.809 249.605 102.841 249.809 102.906C250.012 102.969 250.185 103.062 250.328 103.188C250.474 103.312 250.586 103.469 250.664 103.656C250.745 103.844 250.785 104.06 250.785 104.305C250.785 104.508 250.758 104.698 250.703 104.875C250.648 105.049 250.569 105.22 250.465 105.387C250.361 105.553 250.232 105.72 250.078 105.887C249.927 106.053 249.754 106.229 249.559 106.414L248.816 107.121H250.969V108H247.504Z" fill="#454D58"/>
<path d="M288.984 106.441C288.984 106.694 288.938 106.922 288.844 107.125C288.75 107.326 288.605 107.497 288.41 107.641C288.217 107.781 287.974 107.889 287.68 107.965C287.385 108.04 287.039 108.078 286.641 108.078C286.552 108.078 286.458 108.076 286.359 108.07C286.263 108.068 286.167 108.062 286.07 108.055C285.974 108.049 285.88 108.042 285.789 108.031C285.698 108.023 285.616 108.013 285.543 108V107.172C285.707 107.203 285.891 107.229 286.094 107.25C286.299 107.268 286.513 107.277 286.734 107.277C286.951 107.277 287.137 107.259 287.293 107.223C287.449 107.186 287.578 107.134 287.68 107.066C287.781 106.996 287.855 106.91 287.902 106.809C287.952 106.707 287.977 106.592 287.977 106.465C287.977 106.353 287.952 106.251 287.902 106.16C287.853 106.069 287.777 105.992 287.676 105.93C287.574 105.865 287.444 105.815 287.285 105.781C287.129 105.745 286.943 105.727 286.727 105.727H286.16V105H286.68C286.883 105 287.051 104.98 287.184 104.941C287.319 104.9 287.426 104.845 287.504 104.777C287.585 104.71 287.642 104.63 287.676 104.539C287.71 104.445 287.727 104.348 287.727 104.246C287.727 104.038 287.659 103.88 287.523 103.773C287.388 103.664 287.178 103.609 286.895 103.609C286.691 103.609 286.491 103.629 286.293 103.668C286.095 103.707 285.891 103.759 285.68 103.824V103.023C285.797 102.984 285.909 102.952 286.016 102.926C286.122 102.9 286.229 102.878 286.336 102.859C286.443 102.841 286.551 102.828 286.66 102.82C286.77 102.812 286.883 102.809 287 102.809C287.281 102.809 287.527 102.839 287.738 102.898C287.952 102.958 288.13 103.044 288.273 103.156C288.419 103.266 288.529 103.4 288.602 103.559C288.674 103.717 288.711 103.895 288.711 104.09C288.711 104.4 288.639 104.651 288.496 104.844C288.355 105.034 288.158 105.18 287.902 105.281C288.066 105.307 288.215 105.353 288.348 105.418C288.48 105.48 288.594 105.562 288.688 105.664C288.784 105.763 288.857 105.878 288.906 106.008C288.958 106.138 288.984 106.283 288.984 106.441Z" fill="#454D58"/>
<path d="M9.87891 116.945C9.87891 117.031 9.86328 117.112 9.83203 117.188C9.80078 117.263 9.75651 117.329 9.69922 117.387C9.64453 117.441 9.57943 117.486 9.50391 117.52C9.42839 117.551 9.34635 117.566 9.25781 117.566C9.16927 117.566 9.08594 117.551 9.00781 117.52C8.93229 117.486 8.86589 117.441 8.80859 117.387C8.75391 117.329 8.71094 117.263 8.67969 117.188C8.64844 117.112 8.63281 117.031 8.63281 116.945C8.63281 116.859 8.64844 116.779 8.67969 116.703C8.71094 116.628 8.75391 116.561 8.80859 116.504C8.86589 116.447 8.93229 116.402 9.00781 116.371C9.08594 116.337 9.16927 116.32 9.25781 116.32C9.34635 116.32 9.42839 116.337 9.50391 116.371C9.57943 116.402 9.64453 116.447 9.69922 116.504C9.75651 116.561 9.80078 116.628 9.83203 116.703C9.86328 116.779 9.87891 116.859 9.87891 116.945ZM8.82422 118.773H7.70312V118.031H9.80078V121.258H10.9453V122H7.56641V121.258H8.82422V118.773ZM14.4919 122V119.414C14.4919 118.979 14.3305 118.762 14.0076 118.762C13.8461 118.762 13.6911 118.827 13.5427 118.957C13.3969 119.087 13.2419 119.264 13.0779 119.488V122H12.1247V118.031H12.949L12.9724 118.617C13.0531 118.516 13.1365 118.423 13.2224 118.34C13.3109 118.257 13.406 118.186 13.5076 118.129C13.6091 118.069 13.7185 118.023 13.8357 117.992C13.9529 117.961 14.0844 117.945 14.2302 117.945C14.4333 117.945 14.6104 117.979 14.7615 118.047C14.9125 118.112 15.0388 118.206 15.1404 118.328C15.2419 118.448 15.3174 118.594 15.3669 118.766C15.419 118.935 15.4451 119.125 15.4451 119.336V122H14.4919ZM19.2026 122L19.1792 121.414C19.0958 121.516 19.0099 121.608 18.9214 121.691C18.8328 121.775 18.7378 121.846 18.6362 121.906C18.5346 121.964 18.4253 122.008 18.3081 122.039C18.1935 122.073 18.0659 122.09 17.9253 122.09C17.6909 122.09 17.4826 122.043 17.3003 121.949C17.118 121.855 16.9643 121.723 16.8393 121.551C16.7169 121.376 16.6232 121.165 16.5581 120.918C16.493 120.671 16.4604 120.395 16.4604 120.09C16.4604 119.725 16.5112 119.41 16.6128 119.145C16.7169 118.876 16.8602 118.655 17.0424 118.48C17.2247 118.303 17.4409 118.173 17.6909 118.09C17.9409 118.004 18.213 117.961 18.5073 117.961C18.6063 117.961 18.7052 117.967 18.8042 117.98C18.9057 117.993 18.9956 118.01 19.0737 118.031V116.48H20.0268V122H19.2026ZM17.4604 120.047C17.4604 120.266 17.4747 120.453 17.5034 120.609C17.5346 120.763 17.5789 120.889 17.6362 120.988C17.6961 121.087 17.769 121.16 17.8549 121.207C17.9409 121.251 18.0385 121.273 18.1479 121.273C18.3094 121.273 18.463 121.208 18.6089 121.078C18.7547 120.948 18.9096 120.77 19.0737 120.543V118.809C18.9982 118.78 18.9044 118.757 18.7924 118.738C18.6831 118.72 18.5724 118.711 18.4604 118.711C18.3068 118.711 18.1688 118.742 18.0464 118.805C17.924 118.867 17.8185 118.956 17.7299 119.07C17.644 119.185 17.5776 119.326 17.5307 119.492C17.4839 119.656 17.4604 119.841 17.4604 120.047ZM24.7453 119.711C24.7453 119.776 24.7427 119.861 24.7375 119.965C24.7349 120.069 24.7297 120.167 24.7219 120.258H22.1125C22.1125 120.432 22.1385 120.586 22.1906 120.719C22.2453 120.852 22.3208 120.964 22.4172 121.055C22.5161 121.143 22.6333 121.211 22.7688 121.258C22.9068 121.305 23.0591 121.328 23.2258 121.328C23.4185 121.328 23.6242 121.314 23.843 121.285C24.0643 121.254 24.2935 121.204 24.5305 121.137V121.895C24.4289 121.923 24.3182 121.949 24.1984 121.973C24.0786 121.996 23.9563 122.017 23.8313 122.035C23.7063 122.053 23.5799 122.066 23.4523 122.074C23.3247 122.085 23.201 122.09 23.0813 122.09C22.7792 122.09 22.5083 122.047 22.2688 121.961C22.0292 121.875 21.826 121.749 21.6594 121.582C21.4927 121.413 21.3651 121.204 21.2766 120.957C21.188 120.71 21.1438 120.423 21.1438 120.098C21.1438 119.775 21.188 119.482 21.2766 119.219C21.3651 118.953 21.4901 118.727 21.6516 118.539C21.813 118.349 22.0083 118.203 22.2375 118.102C22.4693 117.997 22.7271 117.945 23.0109 117.945C23.2922 117.945 23.5409 117.99 23.757 118.078C23.9732 118.164 24.1542 118.285 24.3 118.441C24.4458 118.598 24.5565 118.784 24.632 119C24.7076 119.216 24.7453 119.453 24.7453 119.711ZM23.7766 119.574C23.7792 119.418 23.7596 119.283 23.718 119.168C23.6763 119.051 23.619 118.954 23.5461 118.879C23.4758 118.803 23.3924 118.747 23.2961 118.711C23.2023 118.674 23.1008 118.656 22.9914 118.656C22.7518 118.656 22.5552 118.737 22.4016 118.898C22.2479 119.057 22.1568 119.283 22.1281 119.574H23.7766ZM28.4247 122L27.5185 120.664L26.6083 122H25.456L26.9443 120L25.5341 118.031H26.6943L27.5849 119.336L28.4638 118.031H29.5341L28.1669 119.992L29.6083 122H28.4247Z" fill="#454D58"/>
<rect x="1.5" y="1.5" width="341" height="170" stroke="#454D58" stroke-width="3"/>
<path d="M14.7539 15.8477C14.5664 15.9232 14.3724 15.9792 14.1719 16.0156C13.9714 16.0521 13.7617 16.0703 13.543 16.0703C13.2279 16.0703 12.9453 16.0273 12.6953 15.9414C12.4453 15.8555 12.2331 15.7279 12.0586 15.5586C11.8841 15.3893 11.75 15.1797 11.6562 14.9297C11.5651 14.6797 11.5195 14.3906 11.5195 14.0625C11.5195 13.7448 11.569 13.457 11.668 13.1992C11.7695 12.9414 11.9115 12.7214 12.0938 12.5391C12.276 12.3568 12.4948 12.2161 12.75 12.1172C13.0078 12.0182 13.2943 11.9688 13.6094 11.9688C13.8672 11.9688 14.0833 11.9831 14.2578 12.0117C14.4349 12.0378 14.5938 12.0716 14.7344 12.1133V13.0391C14.5729 12.9583 14.3971 12.8958 14.207 12.8516C14.0195 12.8073 13.8411 12.7852 13.6719 12.7852C13.4948 12.7852 13.3359 12.8151 13.1953 12.875C13.0547 12.9349 12.9362 13.0182 12.8398 13.125C12.7435 13.2318 12.6693 13.362 12.6172 13.5156C12.5677 13.6667 12.543 13.8333 12.543 14.0156C12.543 14.2057 12.5703 14.3763 12.625 14.5273C12.6797 14.6784 12.7565 14.8073 12.8555 14.9141C12.957 15.0182 13.0781 15.099 13.2188 15.1562C13.3594 15.2109 13.5156 15.2383 13.6875 15.2383C13.7708 15.2383 13.8581 15.2331 13.9492 15.2227C14.043 15.2096 14.1354 15.1927 14.2266 15.1719C14.3203 15.1484 14.4115 15.1224 14.5 15.0938C14.5911 15.0651 14.6758 15.0339 14.7539 15V15.8477ZM18.4919 16V13.4141C18.4919 12.9792 18.3305 12.7617 18.0076 12.7617C17.8461 12.7617 17.6911 12.8268 17.5427 12.957C17.3969 13.0872 17.2419 13.2643 17.0779 13.4883V16H16.1247V10.4805H17.0779V11.8398L17.031 12.5586C17.1117 12.4622 17.1938 12.3763 17.2771 12.3008C17.3604 12.2227 17.4503 12.1576 17.5466 12.1055C17.643 12.0534 17.7471 12.0143 17.8591 11.9883C17.9711 11.9596 18.0948 11.9453 18.2302 11.9453C18.4333 11.9453 18.6104 11.9792 18.7615 12.0469C18.9125 12.112 19.0388 12.2057 19.1404 12.3281C19.2419 12.4479 19.3174 12.5938 19.3669 12.7656C19.419 12.9349 19.4451 13.125 19.4451 13.3359V16H18.4919ZM23.1948 16L23.1714 15.4805C23.088 15.569 23.0008 15.651 22.9096 15.7266C22.8185 15.7995 22.7182 15.8633 22.6089 15.918C22.4995 15.9727 22.3797 16.0143 22.2495 16.043C22.1219 16.0742 21.9813 16.0898 21.8276 16.0898C21.6245 16.0898 21.4461 16.0599 21.2924 16C21.1388 15.9401 21.0099 15.8568 20.9057 15.75C20.8016 15.6432 20.7221 15.5143 20.6674 15.3633C20.6154 15.2122 20.5893 15.0456 20.5893 14.8633C20.5893 14.6758 20.6284 14.5026 20.7065 14.3438C20.7872 14.1849 20.9083 14.0482 21.0698 13.9336C21.2339 13.819 21.437 13.7292 21.6792 13.6641C21.924 13.599 22.2104 13.5664 22.5385 13.5664H23.0581V13.3281C23.0581 13.2266 23.0438 13.1354 23.0151 13.0547C22.9865 12.9714 22.9396 12.901 22.8745 12.8438C22.812 12.7865 22.7299 12.7422 22.6284 12.7109C22.5268 12.6797 22.4018 12.6641 22.2534 12.6641C22.019 12.6641 21.7872 12.6914 21.5581 12.7461C21.3315 12.7982 21.1115 12.8724 20.8979 12.9688V12.207C21.088 12.1315 21.3068 12.069 21.5542 12.0195C21.8042 11.9701 22.0633 11.9453 22.3315 11.9453C22.6258 11.9453 22.8784 11.974 23.0893 12.0312C23.3003 12.0859 23.4734 12.1693 23.6089 12.2812C23.7469 12.3932 23.8484 12.5339 23.9135 12.7031C23.9786 12.8698 24.0112 13.0651 24.0112 13.2891V16H23.1948ZM23.0581 14.2461H22.476C22.3146 14.2461 22.1779 14.2617 22.0659 14.293C21.9539 14.3242 21.8628 14.3672 21.7924 14.4219C21.7221 14.4766 21.6701 14.5404 21.6362 14.6133C21.6049 14.6836 21.5893 14.7591 21.5893 14.8398C21.5893 15.0013 21.6414 15.125 21.7456 15.2109C21.8497 15.2943 21.9917 15.3359 22.1714 15.3359C22.3042 15.3359 22.4422 15.2878 22.5854 15.1914C22.7286 15.0951 22.8862 14.957 23.0581 14.7773V14.2461ZM27.6555 16V13.4141C27.6555 12.9792 27.494 12.7617 27.1711 12.7617C27.0096 12.7617 26.8547 12.8268 26.7063 12.957C26.5604 13.0872 26.4055 13.2643 26.2414 13.4883V16H25.2883V12.0312H26.1125L26.1359 12.6172C26.2167 12.5156 26.3 12.4232 26.3859 12.3398C26.4745 12.2565 26.5695 12.1862 26.6711 12.1289C26.7727 12.069 26.882 12.0234 26.9992 11.9922C27.1164 11.9609 27.2479 11.9453 27.3938 11.9453C27.5969 11.9453 27.774 11.9792 27.925 12.0469C28.076 12.112 28.2023 12.2057 28.3039 12.3281C28.4055 12.4479 28.481 12.5938 28.5305 12.7656C28.5826 12.9349 28.6086 13.125 28.6086 13.3359V16H27.6555ZM32.4247 13.5742C32.4299 13.4258 32.4221 13.2995 32.4013 13.1953C32.3831 13.0911 32.3518 13.0052 32.3076 12.9375C32.2659 12.8698 32.2138 12.8203 32.1513 12.7891C32.0888 12.7578 32.0172 12.7422 31.9365 12.7422C31.7958 12.7422 31.65 12.8008 31.499 12.918C31.3505 13.0326 31.1865 13.2227 31.0068 13.4883V16H30.0302V12.0312H30.8935L30.9286 12.6094C30.9938 12.5078 31.0667 12.4167 31.1474 12.3359C31.2307 12.2552 31.3219 12.1862 31.4208 12.1289C31.5224 12.069 31.6344 12.0234 31.7568 11.9922C31.8792 11.9609 32.0133 11.9453 32.1591 11.9453C32.3596 11.9453 32.5367 11.9805 32.6904 12.0508C32.8466 12.1185 32.9768 12.2201 33.081 12.3555C33.1878 12.4909 33.2659 12.6615 33.3154 12.8672C33.3674 13.0703 33.3896 13.306 33.3818 13.5742H32.4247ZM37.9089 13.7109C37.9089 13.776 37.9063 13.8607 37.901 13.9648C37.8984 14.069 37.8932 14.1667 37.8854 14.2578H35.276C35.276 14.4323 35.3021 14.5859 35.3542 14.7188C35.4089 14.8516 35.4844 14.9635 35.5807 15.0547C35.6797 15.1432 35.7969 15.2109 35.9323 15.2578C36.0703 15.3047 36.2227 15.3281 36.3893 15.3281C36.582 15.3281 36.7878 15.3138 37.0065 15.2852C37.2279 15.2539 37.457 15.2044 37.694 15.1367V15.8945C37.5924 15.9232 37.4818 15.9492 37.362 15.9727C37.2422 15.9961 37.1198 16.0169 36.9948 16.0352C36.8698 16.0534 36.7435 16.0664 36.6159 16.0742C36.4883 16.0846 36.3646 16.0898 36.2448 16.0898C35.9427 16.0898 35.6719 16.0469 35.4323 15.9609C35.1927 15.875 34.9896 15.7487 34.8229 15.582C34.6563 15.4128 34.5286 15.2044 34.4401 14.957C34.3516 14.7096 34.3073 14.4232 34.3073 14.0977C34.3073 13.7747 34.3516 13.4818 34.4401 13.2188C34.5286 12.9531 34.6536 12.7266 34.8151 12.5391C34.9766 12.349 35.1719 12.2031 35.401 12.1016C35.6328 11.9974 35.8906 11.9453 36.1745 11.9453C36.4557 11.9453 36.7044 11.9896 36.9206 12.0781C37.1367 12.1641 37.3177 12.2852 37.4635 12.4414C37.6094 12.5977 37.7201 12.7839 37.7956 13C37.8711 13.2161 37.9089 13.4531 37.9089 13.7109ZM36.9401 13.5742C36.9427 13.418 36.9232 13.2826 36.8815 13.168C36.8398 13.0508 36.7826 12.9544 36.7096 12.8789C36.6393 12.8034 36.556 12.7474 36.4596 12.7109C36.3659 12.6745 36.2643 12.6562 36.1549 12.6562C35.9154 12.6562 35.7188 12.737 35.5651 12.8984C35.4115 13.0573 35.3203 13.2826 35.2917 13.5742H36.9401ZM42.2445 15.8477C42.057 15.9232 41.863 15.9792 41.6625 16.0156C41.462 16.0521 41.2523 16.0703 41.0336 16.0703C40.7185 16.0703 40.4359 16.0273 40.1859 15.9414C39.9359 15.8555 39.7237 15.7279 39.5492 15.5586C39.3747 15.3893 39.2406 15.1797 39.1469 14.9297C39.0557 14.6797 39.0102 14.3906 39.0102 14.0625C39.0102 13.7448 39.0596 13.457 39.1586 13.1992C39.2602 12.9414 39.4021 12.7214 39.5844 12.5391C39.7667 12.3568 39.9854 12.2161 40.2406 12.1172C40.4984 12.0182 40.7849 11.9688 41.1 11.9688C41.3578 11.9688 41.574 11.9831 41.7484 12.0117C41.9255 12.0378 42.0844 12.0716 42.225 12.1133V13.0391C42.0635 12.9583 41.8878 12.8958 41.6977 12.8516C41.5102 12.8073 41.3318 12.7852 41.1625 12.7852C40.9854 12.7852 40.8266 12.8151 40.6859 12.875C40.5453 12.9349 40.4268 13.0182 40.3305 13.125C40.2341 13.2318 40.1599 13.362 40.1078 13.5156C40.0583 13.6667 40.0336 13.8333 40.0336 14.0156C40.0336 14.2057 40.0609 14.3763 40.1156 14.5273C40.1703 14.6784 40.2471 14.8073 40.3461 14.9141C40.4477 15.0182 40.5688 15.099 40.7094 15.1562C40.85 15.2109 41.0063 15.2383 41.1781 15.2383C41.2615 15.2383 41.3487 15.2331 41.4398 15.2227C41.5336 15.2096 41.626 15.1927 41.7172 15.1719C41.8109 15.1484 41.9021 15.1224 41.9906 15.0938C42.0818 15.0651 42.1664 15.0339 42.2445 15V15.8477ZM45.8341 16H44.7365L43.1622 12.0312H44.2247L45.049 14.2812L45.2951 15.0078L45.5372 14.3125L46.3693 12.0312H47.3927L45.8341 16Z" fill="#454D58"/>
</svg>
