<svg width="439" height="143" viewBox="0 0 439 143" fill="none" xmlns="http://www.w3.org/2000/svg">
<rect x="38" y="8" width="99" height="30" rx="5" fill="#FEE4A7"/>
<path d="M54.326 16.5742C54.3313 16.4258 54.3234 16.2995 54.3026 16.1953C54.2844 16.0911 54.2531 16.0052 54.2089 15.9375C54.1672 15.8698 54.1151 15.8203 54.0526 15.7891C53.9901 15.7578 53.9185 15.7422 53.8378 15.7422C53.6971 15.7422 53.5513 15.8008 53.4003 15.918C53.2518 16.0326 53.0878 16.2227 52.9081 16.4883V19H51.9315V15.0312H52.7948L52.8299 15.6094C52.8951 15.5078 52.968 15.4167 53.0487 15.3359C53.132 15.2552 53.2232 15.1862 53.3221 15.1289C53.4237 15.069 53.5357 15.0234 53.6581 14.9922C53.7805 14.9609 53.9146 14.9453 54.0604 14.9453C54.2609 14.9453 54.438 14.9805 54.5917 15.0508C54.7479 15.1185 54.8781 15.2201 54.9823 15.3555C55.0891 15.4909 55.1672 15.6615 55.2167 15.8672C55.2688 16.0703 55.2909 16.306 55.2831 16.5742H54.326ZM59.8102 16.7109C59.8102 16.776 59.8076 16.8607 59.8023 16.9648C59.7997 17.069 59.7945 17.1667 59.7867 17.2578H57.1773C57.1773 17.4323 57.2034 17.5859 57.2555 17.7188C57.3102 17.8516 57.3857 17.9635 57.482 18.0547C57.581 18.1432 57.6982 18.2109 57.8336 18.2578C57.9716 18.3047 58.124 18.3281 58.2906 18.3281C58.4833 18.3281 58.6891 18.3138 58.9078 18.2852C59.1292 18.2539 59.3583 18.2044 59.5953 18.1367V18.8945C59.4938 18.9232 59.3831 18.9492 59.2633 18.9727C59.1435 18.9961 59.0211 19.0169 58.8961 19.0352C58.7711 19.0534 58.6448 19.0664 58.5172 19.0742C58.3896 19.0846 58.2659 19.0898 58.1461 19.0898C57.844 19.0898 57.5732 19.0469 57.3336 18.9609C57.094 18.875 56.8909 18.7487 56.7242 18.582C56.5576 18.4128 56.4299 18.2044 56.3414 17.957C56.2529 17.7096 56.2086 17.4232 56.2086 17.0977C56.2086 16.7747 56.2529 16.4818 56.3414 16.2188C56.4299 15.9531 56.5549 15.7266 56.7164 15.5391C56.8779 15.349 57.0732 15.2031 57.3023 15.1016C57.5341 14.9974 57.7919 14.9453 58.0758 14.9453C58.357 14.9453 58.6057 14.9896 58.8219 15.0781C59.038 15.1641 59.219 15.2852 59.3648 15.4414C59.5107 15.5977 59.6214 15.7839 59.6969 16C59.7724 16.2161 59.8102 16.4531 59.8102 16.7109ZM58.8414 16.5742C58.844 16.418 58.8245 16.2826 58.7828 16.168C58.7411 16.0508 58.6839 15.9544 58.6109 15.8789C58.5406 15.8034 58.4573 15.7474 58.3609 15.7109C58.2672 15.6745 58.1656 15.6562 58.0563 15.6562C57.8167 15.6562 57.6201 15.737 57.4664 15.8984C57.3128 16.0573 57.2216 16.2826 57.193 16.5742H58.8414ZM64.1458 18.8477C63.9583 18.9232 63.7643 18.9792 63.5638 19.0156C63.3633 19.0521 63.1536 19.0703 62.9349 19.0703C62.6198 19.0703 62.3372 19.0273 62.0872 18.9414C61.8372 18.8555 61.625 18.7279 61.4505 18.5586C61.276 18.3893 61.1419 18.1797 61.0482 17.9297C60.957 17.6797 60.9115 17.3906 60.9115 17.0625C60.9115 16.7448 60.9609 16.457 61.0599 16.1992C61.1615 15.9414 61.3034 15.7214 61.4857 15.5391C61.668 15.3568 61.8867 15.2161 62.1419 15.1172C62.3997 15.0182 62.6862 14.9688 63.0013 14.9688C63.2591 14.9688 63.4753 14.9831 63.6497 15.0117C63.8268 15.0378 63.9857 15.0716 64.1263 15.1133V16.0391C63.9648 15.9583 63.7891 15.8958 63.599 15.8516C63.4115 15.8073 63.2331 15.7852 63.0638 15.7852C62.8867 15.7852 62.7279 15.8151 62.5872 15.875C62.4466 15.9349 62.3281 16.0182 62.2318 16.125C62.1354 16.2318 62.0612 16.362 62.0091 16.5156C61.9596 16.6667 61.9349 16.8333 61.9349 17.0156C61.9349 17.2057 61.9622 17.3763 62.0169 17.5273C62.0716 17.6784 62.1484 17.8073 62.2474 17.9141C62.349 18.0182 62.4701 18.099 62.6107 18.1562C62.7513 18.2109 62.9076 18.2383 63.0794 18.2383C63.1628 18.2383 63.25 18.2331 63.3411 18.2227C63.4349 18.2096 63.5273 18.1927 63.6185 18.1719C63.7122 18.1484 63.8034 18.1224 63.8919 18.0938C63.9831 18.0651 64.0677 18.0339 64.1458 18V18.8477ZM67.7354 19H66.6378L65.0635 15.0312H66.126L66.9503 17.2812L67.1964 18.0078L67.4385 17.3125L68.2706 15.0312H69.294L67.7354 19ZM72.4656 20.5508V19.2461L72.5086 18.4727C72.4357 18.5638 72.3576 18.6471 72.2742 18.7227C72.1935 18.7982 72.1036 18.8633 72.0047 18.918C71.9083 18.9727 71.8029 19.0143 71.6883 19.043C71.5737 19.0742 71.45 19.0898 71.3172 19.0898C71.0828 19.0898 70.8745 19.043 70.6922 18.9492C70.5099 18.8555 70.3563 18.7227 70.2313 18.5508C70.1089 18.3763 70.0151 18.1654 69.95 17.918C69.8849 17.6706 69.8523 17.3945 69.8523 17.0898C69.8523 16.7747 69.8953 16.487 69.9813 16.2266C70.0672 15.9635 70.1948 15.7383 70.3641 15.5508C70.5359 15.3633 70.7495 15.2188 71.0047 15.1172C71.2599 15.013 71.5581 14.9609 71.8992 14.9609C71.9643 14.9609 72.0359 14.9648 72.1141 14.9727C72.1922 14.9805 72.2703 14.9909 72.3484 15.0039C72.4266 15.0143 72.5008 15.0286 72.5711 15.0469C72.644 15.0625 72.7078 15.0794 72.7625 15.0977L73.4188 14.9531V20.5508H72.4656ZM70.8523 17.0469C70.8523 17.2656 70.8667 17.4531 70.8953 17.6094C70.9266 17.763 70.9708 17.8893 71.0281 17.9883C71.088 18.0872 71.1609 18.1602 71.2469 18.207C71.3328 18.2513 71.4305 18.2734 71.5398 18.2734C71.7013 18.2734 71.8549 18.2083 72.0008 18.0781C72.1466 17.9479 72.3016 17.7695 72.4656 17.543V15.8086C72.3901 15.7799 72.2964 15.7565 72.1844 15.7383C72.075 15.7201 71.9643 15.7109 71.8523 15.7109C71.6987 15.7109 71.5607 15.7422 71.4383 15.8047C71.3159 15.8672 71.2104 15.9557 71.1219 16.0703C71.0359 16.1849 70.9695 16.3255 70.9227 16.4922C70.8758 16.6562 70.8523 16.8411 70.8523 17.0469ZM75.7857 13.4805L76.8091 14.5039H75.856L74.4966 13.4805H75.7857ZM82.5354 17.832C82.5354 18.0586 82.4846 18.2526 82.3831 18.4141C82.2841 18.5729 82.1513 18.7031 81.9846 18.8047C81.8206 18.9036 81.6331 18.9753 81.4221 19.0195C81.2138 19.0664 81.0003 19.0898 80.7815 19.0898C80.4898 19.0898 80.2268 19.0755 79.9924 19.0469C79.7581 19.0208 79.5367 18.9818 79.3284 18.9297V18.0703C79.5732 18.1719 79.8167 18.2461 80.0589 18.293C80.3036 18.3372 80.5341 18.3594 80.7503 18.3594C81.0003 18.3594 81.1865 18.3203 81.3089 18.2422C81.4339 18.1615 81.4964 18.0573 81.4964 17.9297C81.4964 17.8698 81.4833 17.8151 81.4573 17.7656C81.4313 17.7161 81.3818 17.6693 81.3089 17.625C81.2385 17.5781 81.1383 17.5312 81.0081 17.4844C80.8779 17.4349 80.7073 17.3802 80.4964 17.3203C80.301 17.2656 80.1292 17.2044 79.9807 17.1367C79.8349 17.0664 79.7138 16.9844 79.6174 16.8906C79.5211 16.7969 79.4482 16.6888 79.3987 16.5664C79.3518 16.4414 79.3284 16.2956 79.3284 16.1289C79.3284 15.9674 79.3648 15.8151 79.4378 15.6719C79.5107 15.5286 79.6188 15.4036 79.762 15.2969C79.9078 15.1875 80.0888 15.1016 80.3049 15.0391C80.5211 14.9766 80.7737 14.9453 81.0628 14.9453C81.3128 14.9453 81.5341 14.9583 81.7268 14.9844C81.9195 15.0104 82.0901 15.0391 82.2385 15.0703V15.8477C82.012 15.7747 81.7984 15.724 81.5979 15.6953C81.4 15.6641 81.2034 15.6484 81.0081 15.6484C80.8128 15.6484 80.6552 15.6836 80.5354 15.7539C80.4182 15.8242 80.3596 15.9219 80.3596 16.0469C80.3596 16.1068 80.3714 16.1602 80.3948 16.207C80.4182 16.2539 80.4638 16.2995 80.5315 16.3438C80.6018 16.388 80.6982 16.4349 80.8206 16.4844C80.9456 16.5312 81.1096 16.5833 81.3128 16.6406C81.5419 16.7057 81.7346 16.776 81.8909 16.8516C82.0471 16.9245 82.1721 17.0078 82.2659 17.1016C82.3622 17.1953 82.4313 17.3021 82.4729 17.4219C82.5146 17.5417 82.5354 17.6784 82.5354 17.832ZM89.7068 14.2227H88.5857V13.4805H90.6833V18.2578H91.8279V19H88.449V18.2578H89.7068V14.2227ZM96.4643 16.7109C96.4643 16.776 96.4617 16.8607 96.4565 16.9648C96.4539 17.069 96.4487 17.1667 96.4409 17.2578H93.8315C93.8315 17.4323 93.8576 17.5859 93.9096 17.7188C93.9643 17.8516 94.0398 17.9635 94.1362 18.0547C94.2352 18.1432 94.3523 18.2109 94.4878 18.2578C94.6258 18.3047 94.7781 18.3281 94.9448 18.3281C95.1375 18.3281 95.3432 18.3138 95.562 18.2852C95.7833 18.2539 96.0125 18.2044 96.2495 18.1367V18.8945C96.1479 18.9232 96.0372 18.9492 95.9174 18.9727C95.7977 18.9961 95.6753 19.0169 95.5503 19.0352C95.4253 19.0534 95.299 19.0664 95.1714 19.0742C95.0438 19.0846 94.9201 19.0898 94.8003 19.0898C94.4982 19.0898 94.2273 19.0469 93.9878 18.9609C93.7482 18.875 93.5451 18.7487 93.3784 18.582C93.2117 18.4128 93.0841 18.2044 92.9956 17.957C92.907 17.7096 92.8628 17.4232 92.8628 17.0977C92.8628 16.7747 92.907 16.4818 92.9956 16.2188C93.0841 15.9531 93.2091 15.7266 93.3706 15.5391C93.532 15.349 93.7273 15.2031 93.9565 15.1016C94.1883 14.9974 94.4461 14.9453 94.7299 14.9453C95.0112 14.9453 95.2599 14.9896 95.476 15.0781C95.6922 15.1641 95.8732 15.2852 96.019 15.4414C96.1648 15.5977 96.2755 15.7839 96.351 16C96.4266 16.2161 96.4643 16.4531 96.4643 16.7109ZM95.4956 16.5742C95.4982 16.418 95.4786 16.2826 95.437 16.168C95.3953 16.0508 95.338 15.9544 95.2651 15.8789C95.1948 15.8034 95.1115 15.7474 95.0151 15.7109C94.9214 15.6745 94.8198 15.6562 94.7104 15.6562C94.4708 15.6562 94.2742 15.737 94.1206 15.8984C93.9669 16.0573 93.8758 16.2826 93.8471 16.5742H95.4956ZM99.9563 19V16.4141C99.9563 15.9792 99.7948 15.7617 99.4719 15.7617C99.3104 15.7617 99.1555 15.8268 99.007 15.957C98.8612 16.0872 98.7063 16.2643 98.5422 16.4883V19H97.5891V15.0312H98.4133L98.4367 15.6172C98.5175 15.5156 98.6008 15.4232 98.6867 15.3398C98.7753 15.2565 98.8703 15.1862 98.9719 15.1289C99.0734 15.069 99.1828 15.0234 99.3 14.9922C99.4172 14.9609 99.5487 14.9453 99.6945 14.9453C99.8977 14.9453 100.075 14.9792 100.226 15.0469C100.377 15.112 100.503 15.2057 100.605 15.3281C100.706 15.4479 100.782 15.5938 100.831 15.7656C100.883 15.9349 100.909 16.125 100.909 16.3359V19H99.9563ZM105.147 15.7266C105.22 15.8177 105.271 15.9141 105.3 16.0156C105.331 16.1146 105.347 16.2161 105.347 16.3203C105.347 16.5417 105.308 16.737 105.229 16.9062C105.154 17.0755 105.046 17.2174 104.905 17.332C104.767 17.4466 104.601 17.5339 104.405 17.5938C104.213 17.651 103.999 17.6797 103.765 17.6797C103.627 17.6797 103.499 17.6667 103.382 17.6406C103.265 17.612 103.176 17.5794 103.116 17.543C103.072 17.5872 103.034 17.6367 103.003 17.6914C102.972 17.7435 102.956 17.8034 102.956 17.8711C102.956 17.9128 102.966 17.9544 102.987 17.9961C103.008 18.0378 103.038 18.0755 103.077 18.1094C103.119 18.1406 103.167 18.1667 103.222 18.1875C103.279 18.2083 103.343 18.2201 103.413 18.2227L104.354 18.2578C104.565 18.263 104.755 18.2904 104.925 18.3398C105.097 18.3867 105.244 18.4544 105.366 18.543C105.489 18.6315 105.582 18.7396 105.647 18.8672C105.715 18.9922 105.749 19.1354 105.749 19.2969C105.749 19.4818 105.707 19.6562 105.624 19.8203C105.541 19.9844 105.414 20.1263 105.245 20.2461C105.078 20.3685 104.87 20.4648 104.62 20.5352C104.37 20.6055 104.08 20.6406 103.749 20.6406C103.429 20.6406 103.153 20.6146 102.921 20.5625C102.692 20.513 102.503 20.4427 102.354 20.3516C102.209 20.2604 102.101 20.151 102.03 20.0234C101.96 19.8984 101.925 19.7604 101.925 19.6094C101.925 19.5182 101.936 19.4336 101.96 19.3555C101.983 19.2773 102.018 19.2018 102.065 19.1289C102.112 19.0586 102.171 18.9896 102.241 18.9219C102.311 18.8542 102.395 18.7865 102.491 18.7188C102.364 18.6458 102.266 18.5521 102.198 18.4375C102.133 18.3229 102.101 18.2005 102.101 18.0703C102.101 17.9818 102.112 17.8997 102.136 17.8242C102.159 17.7461 102.189 17.6719 102.226 17.6016C102.265 17.5312 102.309 17.4635 102.358 17.3984C102.408 17.3333 102.46 17.2695 102.515 17.207C102.418 17.1107 102.338 16.9948 102.272 16.8594C102.21 16.7214 102.179 16.5495 102.179 16.3438C102.179 16.1224 102.218 15.9258 102.296 15.7539C102.377 15.5794 102.487 15.4336 102.628 15.3164C102.768 15.1966 102.935 15.1068 103.128 15.0469C103.323 14.9844 103.535 14.9531 103.765 14.9531C103.882 14.9531 103.994 14.9596 104.101 14.9727C104.21 14.9831 104.309 15.0026 104.397 15.0312H105.772V15.7266H105.147ZM102.901 19.5273C102.901 19.681 102.978 19.7943 103.132 19.8672C103.288 19.9401 103.507 19.9766 103.788 19.9766C103.968 19.9766 104.119 19.9596 104.241 19.9258C104.366 19.8919 104.468 19.8477 104.546 19.793C104.624 19.7383 104.68 19.6745 104.714 19.6016C104.748 19.5286 104.765 19.4531 104.765 19.375C104.765 19.3047 104.748 19.2448 104.714 19.1953C104.683 19.1484 104.637 19.1081 104.577 19.0742C104.52 19.043 104.451 19.0182 104.37 19C104.292 18.9844 104.205 18.974 104.108 18.9688L103.268 18.9531C103.193 19.0052 103.13 19.0547 103.081 19.1016C103.034 19.1484 102.996 19.194 102.968 19.2383C102.942 19.2852 102.923 19.332 102.913 19.3789C102.905 19.4258 102.901 19.4753 102.901 19.5273ZM103.061 16.3438C103.061 16.5547 103.123 16.7227 103.245 16.8477C103.37 16.9701 103.543 17.0312 103.765 17.0312C103.882 17.0312 103.983 17.0117 104.069 16.9727C104.158 16.9336 104.231 16.8815 104.288 16.8164C104.345 16.7513 104.388 16.6758 104.417 16.5898C104.446 16.5039 104.46 16.4141 104.46 16.3203C104.46 16.099 104.397 15.9271 104.272 15.8047C104.15 15.6797 103.978 15.6172 103.757 15.6172C103.64 15.6172 103.537 15.6367 103.448 15.6758C103.362 15.7148 103.291 15.7682 103.233 15.8359C103.176 15.901 103.133 15.9779 103.104 16.0664C103.076 16.1549 103.061 16.2474 103.061 16.3438ZM110.026 18.9609C109.854 19 109.681 19.0312 109.507 19.0547C109.332 19.0781 109.167 19.0898 109.01 19.0898C108.75 19.0898 108.525 19.0625 108.335 19.0078C108.147 18.9531 107.991 18.8698 107.866 18.7578C107.743 18.6458 107.652 18.5039 107.592 18.332C107.535 18.1576 107.507 17.9505 107.507 17.7109V15.7734H106.44V15.0312H107.507V14.0156L108.483 13.7617V15.0312H110.026V15.7734H108.483V17.6406C108.483 17.8672 108.535 18.0391 108.639 18.1562C108.743 18.2708 108.918 18.3281 109.163 18.3281C109.319 18.3281 109.471 18.3151 109.62 18.2891C109.768 18.263 109.904 18.2331 110.026 18.1992V18.9609ZM113.702 19V16.4141C113.702 15.9792 113.54 15.7617 113.217 15.7617C113.056 15.7617 112.901 15.8268 112.752 15.957C112.607 16.0872 112.452 16.2643 112.288 16.4883V19H111.334V13.4805H112.288V14.8398L112.241 15.5586C112.321 15.4622 112.403 15.3763 112.487 15.3008C112.57 15.2227 112.66 15.1576 112.756 15.1055C112.853 15.0534 112.957 15.0143 113.069 14.9883C113.181 14.9596 113.304 14.9453 113.44 14.9453C113.643 14.9453 113.82 14.9792 113.971 15.0469C114.122 15.112 114.248 15.2057 114.35 15.3281C114.452 15.4479 114.527 15.5938 114.577 15.7656C114.629 15.9349 114.655 16.125 114.655 16.3359V19H113.702ZM70.0518 26.9453C70.0518 27.0312 70.0362 27.112 70.0049 27.1875C69.9737 27.263 69.9294 27.3294 69.8721 27.3867C69.8174 27.4414 69.7523 27.4857 69.6768 27.5195C69.6013 27.5508 69.5193 27.5664 69.4307 27.5664C69.3422 27.5664 69.2589 27.5508 69.1807 27.5195C69.1052 27.4857 69.0388 27.4414 68.9815 27.3867C68.9268 27.3294 68.8839 27.263 68.8526 27.1875C68.8214 27.112 68.8057 27.0312 68.8057 26.9453C68.8057 26.8594 68.8214 26.7786 68.8526 26.7031C68.8839 26.6276 68.9268 26.5612 68.9815 26.5039C69.0388 26.4466 69.1052 26.4023 69.1807 26.3711C69.2589 26.3372 69.3422 26.3203 69.4307 26.3203C69.5193 26.3203 69.6013 26.3372 69.6768 26.3711C69.7523 26.4023 69.8174 26.4466 69.8721 26.5039C69.9294 26.5612 69.9737 26.6276 70.0049 26.7031C70.0362 26.7786 70.0518 26.8594 70.0518 26.9453ZM68.9971 28.7734H67.876V28.0312H69.9737V31.2578H71.1182V32H67.7393V31.2578H68.9971V28.7734ZM75.5711 30.832C75.5711 31.0586 75.5203 31.2526 75.4188 31.4141C75.3198 31.5729 75.187 31.7031 75.0203 31.8047C74.8563 31.9036 74.6688 31.9753 74.4578 32.0195C74.2495 32.0664 74.0359 32.0898 73.8172 32.0898C73.5255 32.0898 73.2625 32.0755 73.0281 32.0469C72.7938 32.0208 72.5724 31.9818 72.3641 31.9297V31.0703C72.6089 31.1719 72.8523 31.2461 73.0945 31.293C73.3393 31.3372 73.5698 31.3594 73.7859 31.3594C74.0359 31.3594 74.2221 31.3203 74.3445 31.2422C74.4695 31.1615 74.532 31.0573 74.532 30.9297C74.532 30.8698 74.519 30.8151 74.493 30.7656C74.4669 30.7161 74.4174 30.6693 74.3445 30.625C74.2742 30.5781 74.174 30.5312 74.0438 30.4844C73.9135 30.4349 73.743 30.3802 73.532 30.3203C73.3367 30.2656 73.1648 30.2044 73.0164 30.1367C72.8706 30.0664 72.7495 29.9844 72.6531 29.8906C72.5568 29.7969 72.4839 29.6888 72.4344 29.5664C72.3875 29.4414 72.3641 29.2956 72.3641 29.1289C72.3641 28.9674 72.4005 28.8151 72.4734 28.6719C72.5464 28.5286 72.6544 28.4036 72.7977 28.2969C72.9435 28.1875 73.1245 28.1016 73.3406 28.0391C73.5568 27.9766 73.8094 27.9453 74.0984 27.9453C74.3484 27.9453 74.5698 27.9583 74.7625 27.9844C74.9552 28.0104 75.1258 28.0391 75.2742 28.0703V28.8477C75.0477 28.7747 74.8341 28.724 74.6336 28.6953C74.4357 28.6641 74.2391 28.6484 74.0438 28.6484C73.8484 28.6484 73.6909 28.6836 73.5711 28.7539C73.4539 28.8242 73.3953 28.9219 73.3953 29.0469C73.3953 29.1068 73.407 29.1602 73.4305 29.207C73.4539 29.2539 73.4995 29.2995 73.5672 29.3438C73.6375 29.388 73.7339 29.4349 73.8563 29.4844C73.9813 29.5312 74.1453 29.5833 74.3484 29.6406C74.5776 29.7057 74.7703 29.776 74.9266 29.8516C75.0828 29.9245 75.2078 30.0078 75.3016 30.1016C75.3979 30.1953 75.4669 30.3021 75.5086 30.4219C75.5503 30.5417 75.5711 30.6784 75.5711 30.832ZM81.5042 32V31.3359L83.4456 28.8477H81.551V28.0312H84.7034V28.7031L82.8049 31.1602H84.7346V32H81.5042ZM89.5 29.7109C89.5 29.776 89.4974 29.8607 89.4922 29.9648C89.4896 30.069 89.4844 30.1667 89.4766 30.2578H86.8672C86.8672 30.4323 86.8932 30.5859 86.9453 30.7188C87 30.8516 87.0755 30.9635 87.1719 31.0547C87.2708 31.1432 87.388 31.2109 87.5234 31.2578C87.6615 31.3047 87.8138 31.3281 87.9805 31.3281C88.1732 31.3281 88.3789 31.3138 88.5977 31.2852C88.819 31.2539 89.0482 31.2044 89.2852 31.1367V31.8945C89.1836 31.9232 89.0729 31.9492 88.9531 31.9727C88.8333 31.9961 88.7109 32.0169 88.5859 32.0352C88.4609 32.0534 88.3346 32.0664 88.207 32.0742C88.0794 32.0846 87.9557 32.0898 87.8359 32.0898C87.5339 32.0898 87.263 32.0469 87.0234 31.9609C86.7839 31.875 86.5807 31.7487 86.4141 31.582C86.2474 31.4128 86.1198 31.2044 86.0312 30.957C85.9427 30.7096 85.8984 30.4232 85.8984 30.0977C85.8984 29.7747 85.9427 29.4818 86.0312 29.2188C86.1198 28.9531 86.2448 28.7266 86.4062 28.5391C86.5677 28.349 86.763 28.2031 86.9922 28.1016C87.224 27.9974 87.4818 27.9453 87.7656 27.9453C88.0469 27.9453 88.2956 27.9896 88.5117 28.0781C88.7279 28.1641 88.9089 28.2852 89.0547 28.4414C89.2005 28.5977 89.3112 28.7839 89.3867 29C89.4622 29.2161 89.5 29.4531 89.5 29.7109ZM88.5312 29.5742C88.5339 29.418 88.5143 29.2826 88.4727 29.168C88.431 29.0508 88.3737 28.9544 88.3008 28.8789C88.2305 28.8034 88.1471 28.7474 88.0508 28.7109C87.957 28.6745 87.8555 28.6562 87.7461 28.6562C87.5065 28.6562 87.3099 28.737 87.1562 28.8984C87.0026 29.0573 86.9115 29.2826 86.8828 29.5742H88.5312ZM93.1794 29.5742C93.1846 29.4258 93.1768 29.2995 93.156 29.1953C93.1378 29.0911 93.1065 29.0052 93.0622 28.9375C93.0206 28.8698 92.9685 28.8203 92.906 28.7891C92.8435 28.7578 92.7719 28.7422 92.6911 28.7422C92.5505 28.7422 92.4047 28.8008 92.2536 28.918C92.1052 29.0326 91.9411 29.2227 91.7615 29.4883V32H90.7849V28.0312H91.6482L91.6833 28.6094C91.7484 28.5078 91.8214 28.4167 91.9021 28.3359C91.9854 28.2552 92.0766 28.1862 92.1755 28.1289C92.2771 28.069 92.3891 28.0234 92.5115 27.9922C92.6339 27.9609 92.768 27.9453 92.9138 27.9453C93.1143 27.9453 93.2914 27.9805 93.4451 28.0508C93.6013 28.1185 93.7315 28.2201 93.8357 28.3555C93.9424 28.4909 94.0206 28.6615 94.0701 28.8672C94.1221 29.0703 94.1443 29.306 94.1365 29.5742H93.1794ZM98.7807 29.9844C98.7807 30.2969 98.7365 30.5833 98.6479 30.8438C98.5594 31.1016 98.4318 31.3229 98.2651 31.5078C98.0984 31.6927 97.894 31.8359 97.6518 31.9375C97.4096 32.0391 97.1336 32.0898 96.8237 32.0898C96.5294 32.0898 96.2664 32.0469 96.0346 31.9609C95.8029 31.875 95.6063 31.7474 95.4448 31.5781C95.2833 31.4062 95.1596 31.1927 95.0737 30.9375C94.9878 30.6797 94.9448 30.3802 94.9448 30.0391C94.9448 29.724 94.9891 29.4375 95.0776 29.1797C95.1688 28.9219 95.2977 28.7018 95.4643 28.5195C95.6336 28.3372 95.8393 28.1966 96.0815 28.0977C96.3237 27.9961 96.5971 27.9453 96.9018 27.9453C97.1987 27.9453 97.463 27.9896 97.6948 28.0781C97.9266 28.1641 98.1232 28.293 98.2846 28.4648C98.4461 28.6367 98.5685 28.8503 98.6518 29.1055C98.7378 29.3581 98.7807 29.651 98.7807 29.9844ZM97.7885 30.0078C97.7885 29.5964 97.7104 29.2878 97.5542 29.082C97.4005 28.8737 97.1727 28.7695 96.8706 28.7695C96.7039 28.7695 96.562 28.8021 96.4448 28.8672C96.3276 28.9323 96.2313 29.0221 96.1557 29.1367C96.0802 29.2487 96.0242 29.3802 95.9878 29.5312C95.9539 29.6823 95.937 29.8438 95.937 30.0156C95.937 30.4297 96.0203 30.7422 96.187 30.9531C96.3536 31.1615 96.5815 31.2656 96.8706 31.2656C97.0294 31.2656 97.1674 31.2344 97.2846 31.1719C97.4018 31.1068 97.4969 31.0182 97.5698 30.9062C97.6427 30.7917 97.6974 30.6576 97.7339 30.5039C97.7703 30.3503 97.7885 30.1849 97.7885 30.0078ZM103.015 28.1758C103.015 28.3945 102.981 28.5911 102.913 28.7656C102.848 28.9375 102.753 29.0872 102.628 29.2148C102.506 29.3398 102.357 29.4414 102.183 29.5195C102.008 29.5977 101.813 29.651 101.597 29.6797L101.558 30.4141H100.741L100.671 28.9453H101.237C101.365 28.9453 101.474 28.9271 101.566 28.8906C101.659 28.8542 101.735 28.8047 101.792 28.7422C101.852 28.6797 101.895 28.6081 101.921 28.5273C101.95 28.444 101.964 28.3568 101.964 28.2656C101.964 28.1406 101.937 28.0247 101.882 27.918C101.83 27.8086 101.747 27.7135 101.632 27.6328C101.52 27.5495 101.377 27.4844 101.202 27.4375C101.028 27.3906 100.818 27.3672 100.573 27.3672H100.343V26.4805H100.612C101.014 26.4805 101.364 26.5286 101.663 26.625C101.963 26.7188 102.213 26.8451 102.413 27.0039C102.614 27.1602 102.764 27.3398 102.862 27.543C102.964 27.7461 103.015 27.957 103.015 28.1758ZM101.796 31.4648C101.796 31.5508 101.779 31.6315 101.745 31.707C101.711 31.7826 101.666 31.849 101.609 31.9062C101.551 31.9635 101.484 32.0078 101.405 32.0391C101.327 32.0729 101.244 32.0898 101.155 32.0898C101.067 32.0898 100.984 32.0729 100.905 32.0391C100.83 32.0078 100.764 31.9635 100.706 31.9062C100.649 31.849 100.603 31.7826 100.57 31.707C100.536 31.6315 100.519 31.5508 100.519 31.4648C100.519 31.3789 100.536 31.2982 100.57 31.2227C100.603 31.1471 100.649 31.0807 100.706 31.0234C100.764 30.9661 100.83 30.9219 100.905 30.8906C100.984 30.8568 101.067 30.8398 101.155 30.8398C101.244 30.8398 101.327 30.8568 101.405 30.8906C101.484 30.9219 101.551 30.9661 101.609 31.0234C101.666 31.0807 101.711 31.1471 101.745 31.2227C101.779 31.2982 101.796 31.3789 101.796 31.4648Z" fill="#454D58"/>
<rect x="214" y="12" width="93" height="20" rx="5" fill="#C4C4C4"/>
<rect x="221.62" y="16.0556" width="7.89952" height="11.8889" rx="3.94976" stroke="#454D58" stroke-dasharray="2 2"/>
<rect x="234.914" y="15.5556" width="8.89952" height="12.8889" rx="4.44976" fill="#50A6C5"/>
<rect x="248.708" y="15.5556" width="8.89952" height="12.8889" rx="4.44976" fill="#50A6C5"/>
<rect x="262.502" y="15.5556" width="8.89952" height="12.8889" rx="4.44976" fill="#50A6C5"/>
<rect x="276.297" y="15.5556" width="8.89952" height="12.8889" rx="4.44976" fill="#50A6C5"/>
<rect x="290.091" y="15.5556" width="8.89952" height="12.8889" rx="4.44976" fill="#50A6C5"/>
<rect y="123" width="93" height="20" rx="5" fill="#C4C4C4"/>
<rect x="7.11962" y="126.556" width="8.89952" height="12.8889" rx="4.44976" fill="#50A6C5"/>
<rect x="20.9139" y="126.556" width="8.89952" height="12.8889" rx="4.44976" fill="#50A6C5"/>
<rect x="34.7081" y="126.556" width="8.89952" height="12.8889" rx="4.44976" fill="#50A6C5"/>
<rect x="48.5024" y="126.556" width="8.89952" height="12.8889" rx="4.44976" fill="#50A6C5"/>
<rect x="62.2967" y="126.556" width="8.89952" height="12.8889" rx="4.44976" fill="#50A6C5"/>
<rect x="76.5909" y="127.056" width="7.89952" height="11.8889" rx="3.94976" stroke="black" stroke-dasharray="2 2"/>
<path d="M138.332 22.5H216.679" stroke="#454D58" stroke-width="3" stroke-linecap="square"/>
<path fill-rule="evenodd" clip-rule="evenodd" d="M221 22.5L216 26V19L221 22.5Z" fill="#454D58"/>
<path d="M81.5 39.3319L81.5 117.679" stroke="#454D58" stroke-width="3" stroke-linecap="square"/>
<path fill-rule="evenodd" clip-rule="evenodd" d="M81.5 122L78 117L85 117L81.5 122Z" fill="#454D58"/>
<path d="M156.816 29.832C156.816 30.0586 156.766 30.2526 156.664 30.4141C156.565 30.5729 156.432 30.7031 156.266 30.8047C156.102 30.9036 155.914 30.9753 155.703 31.0195C155.495 31.0664 155.281 31.0898 155.062 31.0898C154.771 31.0898 154.508 31.0755 154.273 31.0469C154.039 31.0208 153.818 30.9818 153.609 30.9297V30.0703C153.854 30.1719 154.098 30.2461 154.34 30.293C154.585 30.3372 154.815 30.3594 155.031 30.3594C155.281 30.3594 155.467 30.3203 155.59 30.2422C155.715 30.1615 155.777 30.0573 155.777 29.9297C155.777 29.8698 155.764 29.8151 155.738 29.7656C155.712 29.7161 155.663 29.6693 155.59 29.625C155.52 29.5781 155.419 29.5312 155.289 29.4844C155.159 29.4349 154.988 29.3802 154.777 29.3203C154.582 29.2656 154.41 29.2044 154.262 29.1367C154.116 29.0664 153.995 28.9844 153.898 28.8906C153.802 28.7969 153.729 28.6888 153.68 28.5664C153.633 28.4414 153.609 28.2956 153.609 28.1289C153.609 27.9674 153.646 27.8151 153.719 27.6719C153.792 27.5286 153.9 27.4036 154.043 27.2969C154.189 27.1875 154.37 27.1016 154.586 27.0391C154.802 26.9766 155.055 26.9453 155.344 26.9453C155.594 26.9453 155.815 26.9583 156.008 26.9844C156.201 27.0104 156.371 27.0391 156.52 27.0703V27.8477C156.293 27.7747 156.079 27.724 155.879 27.6953C155.681 27.6641 155.484 27.6484 155.289 27.6484C155.094 27.6484 154.936 27.6836 154.816 27.7539C154.699 27.8242 154.641 27.9219 154.641 28.0469C154.641 28.1068 154.652 28.1602 154.676 28.207C154.699 28.2539 154.745 28.2995 154.812 28.3438C154.883 28.388 154.979 28.4349 155.102 28.4844C155.227 28.5312 155.391 28.5833 155.594 28.6406C155.823 28.7057 156.016 28.776 156.172 28.8516C156.328 28.9245 156.453 29.0078 156.547 29.1016C156.643 29.1953 156.712 29.3021 156.754 29.4219C156.796 29.5417 156.816 29.6784 156.816 29.832ZM161.582 28.7109C161.582 28.776 161.579 28.8607 161.574 28.9648C161.571 29.069 161.566 29.1667 161.558 29.2578H158.949C158.949 29.4323 158.975 29.5859 159.027 29.7188C159.082 29.8516 159.157 29.9635 159.254 30.0547C159.353 30.1432 159.47 30.2109 159.605 30.2578C159.743 30.3047 159.896 30.3281 160.062 30.3281C160.255 30.3281 160.461 30.3138 160.679 30.2852C160.901 30.2539 161.13 30.2044 161.367 30.1367V30.8945C161.265 30.9232 161.155 30.9492 161.035 30.9727C160.915 30.9961 160.793 31.0169 160.668 31.0352C160.543 31.0534 160.416 31.0664 160.289 31.0742C160.161 31.0846 160.038 31.0898 159.918 31.0898C159.616 31.0898 159.345 31.0469 159.105 30.9609C158.866 30.875 158.663 30.7487 158.496 30.582C158.329 30.4128 158.202 30.2044 158.113 29.957C158.024 29.7096 157.98 29.4232 157.98 29.0977C157.98 28.7747 158.024 28.4818 158.113 28.2188C158.202 27.9531 158.327 27.7266 158.488 27.5391C158.649 27.349 158.845 27.2031 159.074 27.1016C159.306 26.9974 159.564 26.9453 159.847 26.9453C160.129 26.9453 160.377 26.9896 160.593 27.0781C160.81 27.1641 160.991 27.2852 161.136 27.4414C161.282 27.5977 161.393 27.7839 161.468 28C161.544 28.2161 161.582 28.4531 161.582 28.7109ZM160.613 28.5742C160.616 28.418 160.596 28.2826 160.554 28.168C160.513 28.0508 160.455 27.9544 160.383 27.8789C160.312 27.8034 160.229 27.7474 160.133 27.7109C160.039 27.6745 159.937 27.6562 159.828 27.6562C159.588 27.6562 159.392 27.737 159.238 27.8984C159.084 28.0573 158.993 28.2826 158.965 28.5742H160.613ZM165.074 31V28.4141C165.074 27.9792 164.912 27.7617 164.589 27.7617C164.428 27.7617 164.273 27.8268 164.124 27.957C163.979 28.0872 163.824 28.2643 163.66 28.4883V31H162.707V27.0312H163.531L163.554 27.6172C163.635 27.5156 163.718 27.4232 163.804 27.3398C163.893 27.2565 163.988 27.1862 164.089 27.1289C164.191 27.069 164.3 27.0234 164.417 26.9922C164.535 26.9609 164.666 26.9453 164.812 26.9453C165.015 26.9453 165.192 26.9792 165.343 27.0469C165.494 27.112 165.621 27.2057 165.722 27.3281C165.824 27.4479 165.899 27.5938 165.949 27.7656C166.001 27.9349 166.027 28.125 166.027 28.3359V31H165.074ZM169.784 31L169.761 30.4141C169.678 30.5156 169.592 30.6081 169.503 30.6914C169.415 30.7747 169.32 30.8464 169.218 30.9062C169.116 30.9635 169.007 31.0078 168.89 31.0391C168.775 31.0729 168.648 31.0898 168.507 31.0898C168.273 31.0898 168.064 31.043 167.882 30.9492C167.7 30.8555 167.546 30.7227 167.421 30.5508C167.299 30.3763 167.205 30.1654 167.14 29.918C167.075 29.6706 167.042 29.3945 167.042 29.0898C167.042 28.7253 167.093 28.4102 167.195 28.1445C167.299 27.8763 167.442 27.6549 167.624 27.4805C167.807 27.3034 168.023 27.1732 168.273 27.0898C168.523 27.0039 168.795 26.9609 169.089 26.9609C169.188 26.9609 169.287 26.9674 169.386 26.9805C169.488 26.9935 169.577 27.0104 169.655 27.0312V25.4805H170.609V31H169.784ZM168.042 29.0469C168.042 29.2656 168.057 29.4531 168.085 29.6094C168.116 29.763 168.161 29.8893 168.218 29.9883C168.278 30.0872 168.351 30.1602 168.437 30.207C168.523 30.2513 168.62 30.2734 168.73 30.2734C168.891 30.2734 169.045 30.2083 169.191 30.0781C169.336 29.9479 169.491 29.7695 169.655 29.543V27.8086C169.58 27.7799 169.486 27.7565 169.374 27.7383C169.265 27.7201 169.154 27.7109 169.042 27.7109C168.889 27.7109 168.751 27.7422 168.628 27.8047C168.506 27.8672 168.4 27.9557 168.312 28.0703C168.226 28.1849 168.159 28.3255 168.113 28.4922C168.066 28.6562 168.042 28.8411 168.042 29.0469ZM178.948 31L178.924 30.4141C178.841 30.5156 178.755 30.6081 178.667 30.6914C178.578 30.7747 178.483 30.8464 178.382 30.9062C178.28 30.9635 178.171 31.0078 178.053 31.0391C177.939 31.0729 177.811 31.0898 177.671 31.0898C177.436 31.0898 177.228 31.043 177.046 30.9492C176.863 30.8555 176.71 30.7227 176.585 30.5508C176.462 30.3763 176.368 30.1654 176.303 29.918C176.238 29.6706 176.206 29.3945 176.206 29.0898C176.206 28.7253 176.257 28.4102 176.358 28.1445C176.462 27.8763 176.605 27.6549 176.788 27.4805C176.97 27.3034 177.186 27.1732 177.436 27.0898C177.686 27.0039 177.958 26.9609 178.253 26.9609C178.352 26.9609 178.451 26.9674 178.549 26.9805C178.651 26.9935 178.741 27.0104 178.819 27.0312V25.4805H179.772V31H178.948ZM177.206 29.0469C177.206 29.2656 177.22 29.4531 177.249 29.6094C177.28 29.763 177.324 29.8893 177.382 29.9883C177.441 30.0872 177.514 30.1602 177.6 30.207C177.686 30.2513 177.784 30.2734 177.893 30.2734C178.055 30.2734 178.208 30.2083 178.354 30.0781C178.5 29.9479 178.655 29.7695 178.819 29.543V27.8086C178.743 27.7799 178.65 27.7565 178.538 27.7383C178.428 27.7201 178.318 27.7109 178.206 27.7109C178.052 27.7109 177.914 27.7422 177.792 27.8047C177.669 27.8672 177.564 27.9557 177.475 28.0703C177.389 28.1849 177.323 28.3255 177.276 28.4922C177.229 28.6562 177.206 28.8411 177.206 29.0469ZM183.522 31L183.498 30.4805C183.415 30.569 183.328 30.651 183.237 30.7266C183.146 30.7995 183.045 30.8633 182.936 30.918C182.827 30.9727 182.707 31.0143 182.577 31.043C182.449 31.0742 182.308 31.0898 182.155 31.0898C181.952 31.0898 181.773 31.0599 181.62 31C181.466 30.9401 181.337 30.8568 181.233 30.75C181.129 30.6432 181.049 30.5143 180.995 30.3633C180.942 30.2122 180.916 30.0456 180.916 29.8633C180.916 29.6758 180.955 29.5026 181.034 29.3438C181.114 29.1849 181.235 29.0482 181.397 28.9336C181.561 28.819 181.764 28.7292 182.006 28.6641C182.251 28.599 182.538 28.5664 182.866 28.5664H183.385V28.3281C183.385 28.2266 183.371 28.1354 183.342 28.0547C183.314 27.9714 183.267 27.901 183.202 27.8438C183.139 27.7865 183.057 27.7422 182.955 27.7109C182.854 27.6797 182.729 27.6641 182.58 27.6641C182.346 27.6641 182.114 27.6914 181.885 27.7461C181.659 27.7982 181.439 27.8724 181.225 27.9688V27.207C181.415 27.1315 181.634 27.069 181.881 27.0195C182.131 26.9701 182.39 26.9453 182.659 26.9453C182.953 26.9453 183.205 26.974 183.416 27.0312C183.627 27.0859 183.801 27.1693 183.936 27.2812C184.074 27.3932 184.176 27.5339 184.241 27.7031C184.306 27.8698 184.338 28.0651 184.338 28.2891V31H183.522ZM183.385 29.2461H182.803C182.642 29.2461 182.505 29.2617 182.393 29.293C182.281 29.3242 182.19 29.3672 182.12 29.4219C182.049 29.4766 181.997 29.5404 181.963 29.6133C181.932 29.6836 181.916 29.7591 181.916 29.8398C181.916 30.0013 181.968 30.125 182.073 30.2109C182.177 30.2943 182.319 30.3359 182.498 30.3359C182.631 30.3359 182.769 30.2878 182.913 30.1914C183.056 30.0951 183.213 29.957 183.385 29.7773V29.2461ZM188.889 30.9609C188.717 31 188.544 31.0312 188.369 31.0547C188.195 31.0781 188.029 31.0898 187.873 31.0898C187.613 31.0898 187.387 31.0625 187.197 31.0078C187.01 30.9531 186.854 30.8698 186.729 30.7578C186.606 30.6458 186.515 30.5039 186.455 30.332C186.398 30.1576 186.369 29.9505 186.369 29.7109V27.7734H185.303V27.0312H186.369V26.0156L187.346 25.7617V27.0312H188.889V27.7734H187.346V29.6406C187.346 29.8672 187.398 30.0391 187.502 30.1562C187.606 30.2708 187.781 30.3281 188.026 30.3281C188.182 30.3281 188.334 30.3151 188.483 30.2891C188.631 30.263 188.766 30.2331 188.889 30.1992V30.9609ZM192.685 31L192.662 30.4805C192.579 30.569 192.491 30.651 192.4 30.7266C192.309 30.7995 192.209 30.8633 192.099 30.918C191.99 30.9727 191.87 31.0143 191.74 31.043C191.613 31.0742 191.472 31.0898 191.318 31.0898C191.115 31.0898 190.937 31.0599 190.783 31C190.629 30.9401 190.501 30.8568 190.396 30.75C190.292 30.6432 190.213 30.5143 190.158 30.3633C190.106 30.2122 190.08 30.0456 190.08 29.8633C190.08 29.6758 190.119 29.5026 190.197 29.3438C190.278 29.1849 190.399 29.0482 190.56 28.9336C190.724 28.819 190.928 28.7292 191.17 28.6641C191.415 28.599 191.701 28.5664 192.029 28.5664H192.549V28.3281C192.549 28.2266 192.534 28.1354 192.506 28.0547C192.477 27.9714 192.43 27.901 192.365 27.8438C192.303 27.7865 192.221 27.7422 192.119 27.7109C192.017 27.6797 191.892 27.6641 191.744 27.6641C191.51 27.6641 191.278 27.6914 191.049 27.7461C190.822 27.7982 190.602 27.8724 190.389 27.9688V27.207C190.579 27.1315 190.797 27.069 191.045 27.0195C191.295 26.9701 191.554 26.9453 191.822 26.9453C192.116 26.9453 192.369 26.974 192.58 27.0312C192.791 27.0859 192.964 27.1693 193.099 27.2812C193.238 27.3932 193.339 27.5339 193.404 27.7031C193.469 27.8698 193.502 28.0651 193.502 28.2891V31H192.685ZM192.549 29.2461H191.967C191.805 29.2461 191.668 29.2617 191.557 29.293C191.445 29.3242 191.353 29.3672 191.283 29.4219C191.213 29.4766 191.161 29.5404 191.127 29.6133C191.096 29.6836 191.08 29.7591 191.08 29.8398C191.08 30.0013 191.132 30.125 191.236 30.2109C191.34 30.2943 191.482 30.3359 191.662 30.3359C191.795 30.3359 191.933 30.2878 192.076 30.1914C192.219 30.0951 192.377 29.957 192.549 29.7773V29.2461Z" fill="#454D58"/>
<path d="M170.91 15V12.4141C170.91 11.9792 170.749 11.7617 170.426 11.7617C170.264 11.7617 170.109 11.8268 169.961 11.957C169.815 12.0872 169.66 12.2643 169.496 12.4883V15H168.543V11.0312H169.367L169.391 11.6172C169.471 11.5156 169.555 11.4232 169.641 11.3398C169.729 11.2565 169.824 11.1862 169.926 11.1289C170.027 11.069 170.137 11.0234 170.254 10.9922C170.371 10.9609 170.503 10.9453 170.648 10.9453C170.852 10.9453 171.029 10.9792 171.18 11.0469C171.331 11.112 171.457 11.2057 171.559 11.3281C171.66 11.4479 171.736 11.5938 171.785 11.7656C171.837 11.9349 171.863 12.125 171.863 12.3359V15H170.91ZM176.699 12.9844C176.699 13.2969 176.655 13.5833 176.566 13.8438C176.478 14.1016 176.35 14.3229 176.183 14.5078C176.017 14.6927 175.812 14.8359 175.57 14.9375C175.328 15.0391 175.052 15.0898 174.742 15.0898C174.448 15.0898 174.185 15.0469 173.953 14.9609C173.721 14.875 173.524 14.7474 173.363 14.5781C173.202 14.4062 173.078 14.1927 172.992 13.9375C172.906 13.6797 172.863 13.3802 172.863 13.0391C172.863 12.724 172.907 12.4375 172.996 12.1797C173.087 11.9219 173.216 11.7018 173.383 11.5195C173.552 11.3372 173.758 11.1966 174 11.0977C174.242 10.9961 174.515 10.9453 174.82 10.9453C175.117 10.9453 175.381 10.9896 175.613 11.0781C175.845 11.1641 176.041 11.293 176.203 11.4648C176.364 11.6367 176.487 11.8503 176.57 12.1055C176.656 12.3581 176.699 12.651 176.699 12.9844ZM175.707 13.0078C175.707 12.5964 175.629 12.2878 175.472 12.082C175.319 11.8737 175.091 11.7695 174.789 11.7695C174.622 11.7695 174.48 11.8021 174.363 11.8672C174.246 11.9323 174.149 12.0221 174.074 12.1367C173.998 12.2487 173.942 12.3802 173.906 12.5312C173.872 12.6823 173.855 12.8438 173.855 13.0156C173.855 13.4297 173.939 13.7422 174.105 13.9531C174.272 14.1615 174.5 14.2656 174.789 14.2656C174.948 14.2656 175.086 14.2344 175.203 14.1719C175.32 14.1068 175.415 14.0182 175.488 13.9062C175.561 13.7917 175.616 13.6576 175.652 13.5039C175.689 13.3503 175.707 13.1849 175.707 13.0078Z" fill="#454D58"/>
<path d="M250.098 5.57422C250.103 5.42578 250.095 5.29948 250.074 5.19531C250.056 5.09115 250.025 5.00521 249.98 4.9375C249.939 4.86979 249.887 4.82031 249.824 4.78906C249.762 4.75781 249.69 4.74219 249.609 4.74219C249.469 4.74219 249.323 4.80078 249.172 4.91797C249.023 5.03255 248.859 5.22266 248.68 5.48828V8H247.703V4.03125H248.566L248.602 4.60938C248.667 4.50781 248.74 4.41667 248.82 4.33594C248.904 4.25521 248.995 4.1862 249.094 4.12891C249.195 4.06901 249.307 4.02344 249.43 3.99219C249.552 3.96094 249.686 3.94531 249.832 3.94531C250.033 3.94531 250.21 3.98047 250.363 4.05078C250.52 4.11849 250.65 4.22005 250.754 4.35547C250.861 4.49089 250.939 4.66146 250.988 4.86719C251.04 5.07031 251.062 5.30599 251.055 5.57422H250.098ZM255.582 5.71094C255.582 5.77604 255.579 5.86068 255.574 5.96484C255.571 6.06901 255.566 6.16667 255.558 6.25781H252.949C252.949 6.43229 252.975 6.58594 253.027 6.71875C253.082 6.85156 253.157 6.96354 253.254 7.05469C253.353 7.14323 253.47 7.21094 253.605 7.25781C253.743 7.30469 253.896 7.32812 254.062 7.32812C254.255 7.32812 254.461 7.3138 254.679 7.28516C254.901 7.25391 255.13 7.20443 255.367 7.13672V7.89453C255.265 7.92318 255.155 7.94922 255.035 7.97266C254.915 7.99609 254.793 8.01693 254.668 8.03516C254.543 8.05339 254.416 8.06641 254.289 8.07422C254.161 8.08464 254.038 8.08984 253.918 8.08984C253.616 8.08984 253.345 8.04688 253.105 7.96094C252.866 7.875 252.663 7.7487 252.496 7.58203C252.329 7.41276 252.202 7.20443 252.113 6.95703C252.024 6.70964 251.98 6.42318 251.98 6.09766C251.98 5.77474 252.024 5.48177 252.113 5.21875C252.202 4.95312 252.327 4.72656 252.488 4.53906C252.649 4.34896 252.845 4.20312 253.074 4.10156C253.306 3.9974 253.564 3.94531 253.847 3.94531C254.129 3.94531 254.377 3.98958 254.593 4.07812C254.81 4.16406 254.991 4.28516 255.136 4.44141C255.282 4.59766 255.393 4.78385 255.468 5C255.544 5.21615 255.582 5.45312 255.582 5.71094ZM254.613 5.57422C254.616 5.41797 254.596 5.28255 254.554 5.16797C254.513 5.05078 254.455 4.95443 254.383 4.87891C254.312 4.80339 254.229 4.7474 254.133 4.71094C254.039 4.67448 253.937 4.65625 253.828 4.65625C253.588 4.65625 253.392 4.73698 253.238 4.89844C253.084 5.05729 252.993 5.28255 252.965 5.57422H254.613ZM259.917 7.84766C259.73 7.92318 259.536 7.97917 259.335 8.01562C259.135 8.05208 258.925 8.07031 258.707 8.07031C258.391 8.07031 258.109 8.02734 257.859 7.94141C257.609 7.85547 257.397 7.72786 257.222 7.55859C257.048 7.38932 256.914 7.17969 256.82 6.92969C256.729 6.67969 256.683 6.39062 256.683 6.0625C256.683 5.74479 256.733 5.45703 256.832 5.19922C256.933 4.94141 257.075 4.72135 257.257 4.53906C257.44 4.35677 257.658 4.21615 257.914 4.11719C258.171 4.01823 258.458 3.96875 258.773 3.96875C259.031 3.96875 259.247 3.98307 259.421 4.01172C259.598 4.03776 259.757 4.07161 259.898 4.11328V5.03906C259.736 4.95833 259.561 4.89583 259.371 4.85156C259.183 4.80729 259.005 4.78516 258.835 4.78516C258.658 4.78516 258.499 4.8151 258.359 4.875C258.218 4.9349 258.1 5.01823 258.003 5.125C257.907 5.23177 257.833 5.36198 257.781 5.51562C257.731 5.66667 257.707 5.83333 257.707 6.01562C257.707 6.20573 257.734 6.3763 257.789 6.52734C257.843 6.67839 257.92 6.80729 258.019 6.91406C258.121 7.01823 258.242 7.09896 258.382 7.15625C258.523 7.21094 258.679 7.23828 258.851 7.23828C258.934 7.23828 259.022 7.23307 259.113 7.22266C259.207 7.20964 259.299 7.19271 259.39 7.17188C259.484 7.14844 259.575 7.1224 259.664 7.09375C259.755 7.0651 259.839 7.03385 259.917 7V7.84766ZM263.507 8H262.409L260.835 4.03125H261.898L262.722 6.28125L262.968 7.00781L263.21 6.3125L264.042 4.03125H265.066L263.507 8ZM268.237 9.55078V8.24609L268.28 7.47266C268.207 7.5638 268.129 7.64714 268.046 7.72266C267.965 7.79818 267.875 7.86328 267.776 7.91797C267.68 7.97266 267.574 8.01432 267.46 8.04297C267.345 8.07422 267.222 8.08984 267.089 8.08984C266.854 8.08984 266.646 8.04297 266.464 7.94922C266.282 7.85547 266.128 7.72266 266.003 7.55078C265.88 7.3763 265.787 7.16536 265.722 6.91797C265.657 6.67057 265.624 6.39453 265.624 6.08984C265.624 5.77474 265.667 5.48698 265.753 5.22656C265.839 4.96354 265.966 4.73828 266.136 4.55078C266.308 4.36328 266.521 4.21875 266.776 4.11719C267.032 4.01302 267.33 3.96094 267.671 3.96094C267.736 3.96094 267.808 3.96484 267.886 3.97266C267.964 3.98047 268.042 3.99089 268.12 4.00391C268.198 4.01432 268.272 4.02865 268.343 4.04688C268.416 4.0625 268.479 4.07943 268.534 4.09766L269.19 3.95312V9.55078H268.237ZM266.624 6.04688C266.624 6.26562 266.638 6.45312 266.667 6.60938C266.698 6.76302 266.742 6.88932 266.8 6.98828C266.86 7.08724 266.933 7.16016 267.018 7.20703C267.104 7.2513 267.202 7.27344 267.311 7.27344C267.473 7.27344 267.627 7.20833 267.772 7.07812C267.918 6.94792 268.073 6.76953 268.237 6.54297V4.80859C268.162 4.77995 268.068 4.75651 267.956 4.73828C267.847 4.72005 267.736 4.71094 267.624 4.71094C267.47 4.71094 267.332 4.74219 267.21 4.80469C267.088 4.86719 266.982 4.95573 266.893 5.07031C266.808 5.1849 266.741 5.32552 266.694 5.49219C266.647 5.65625 266.624 5.84115 266.624 6.04688Z" fill="#454D58"/>
<path d="M36.8164 117.832C36.8164 118.059 36.7656 118.253 36.6641 118.414C36.5651 118.573 36.4323 118.703 36.2656 118.805C36.1016 118.904 35.9141 118.975 35.7031 119.02C35.4948 119.066 35.2812 119.09 35.0625 119.09C34.7708 119.09 34.5078 119.076 34.2734 119.047C34.0391 119.021 33.8177 118.982 33.6094 118.93V118.07C33.8542 118.172 34.0977 118.246 34.3398 118.293C34.5846 118.337 34.8151 118.359 35.0312 118.359C35.2812 118.359 35.4674 118.32 35.5898 118.242C35.7148 118.161 35.7773 118.057 35.7773 117.93C35.7773 117.87 35.7643 117.815 35.7383 117.766C35.7122 117.716 35.6628 117.669 35.5898 117.625C35.5195 117.578 35.4193 117.531 35.2891 117.484C35.1589 117.435 34.9883 117.38 34.7773 117.32C34.582 117.266 34.4102 117.204 34.2617 117.137C34.1159 117.066 33.9948 116.984 33.8984 116.891C33.8021 116.797 33.7292 116.689 33.6797 116.566C33.6328 116.441 33.6094 116.296 33.6094 116.129C33.6094 115.967 33.6458 115.815 33.7188 115.672C33.7917 115.529 33.8997 115.404 34.043 115.297C34.1888 115.188 34.3698 115.102 34.5859 115.039C34.8021 114.977 35.0547 114.945 35.3438 114.945C35.5938 114.945 35.8151 114.958 36.0078 114.984C36.2005 115.01 36.3711 115.039 36.5195 115.07V115.848C36.293 115.775 36.0794 115.724 35.8789 115.695C35.681 115.664 35.4844 115.648 35.2891 115.648C35.0938 115.648 34.9362 115.684 34.8164 115.754C34.6992 115.824 34.6406 115.922 34.6406 116.047C34.6406 116.107 34.6523 116.16 34.6758 116.207C34.6992 116.254 34.7448 116.299 34.8125 116.344C34.8828 116.388 34.9792 116.435 35.1016 116.484C35.2266 116.531 35.3906 116.583 35.5938 116.641C35.8229 116.706 36.0156 116.776 36.1719 116.852C36.3281 116.924 36.4531 117.008 36.5469 117.102C36.6432 117.195 36.7122 117.302 36.7539 117.422C36.7956 117.542 36.8164 117.678 36.8164 117.832ZM41.5818 116.711C41.5818 116.776 41.5792 116.861 41.574 116.965C41.5714 117.069 41.5661 117.167 41.5583 117.258H38.949C38.949 117.432 38.975 117.586 39.0271 117.719C39.0818 117.852 39.1573 117.964 39.2536 118.055C39.3526 118.143 39.4698 118.211 39.6052 118.258C39.7432 118.305 39.8956 118.328 40.0622 118.328C40.2549 118.328 40.4607 118.314 40.6794 118.285C40.9008 118.254 41.1299 118.204 41.3669 118.137V118.895C41.2654 118.923 41.1547 118.949 41.0349 118.973C40.9151 118.996 40.7927 119.017 40.6677 119.035C40.5427 119.053 40.4164 119.066 40.2888 119.074C40.1612 119.085 40.0375 119.09 39.9177 119.09C39.6156 119.09 39.3448 119.047 39.1052 118.961C38.8656 118.875 38.6625 118.749 38.4958 118.582C38.3292 118.413 38.2016 118.204 38.113 117.957C38.0245 117.71 37.9802 117.423 37.9802 117.098C37.9802 116.775 38.0245 116.482 38.113 116.219C38.2016 115.953 38.3266 115.727 38.488 115.539C38.6495 115.349 38.8448 115.203 39.074 115.102C39.3057 114.997 39.5635 114.945 39.8474 114.945C40.1286 114.945 40.3773 114.99 40.5935 115.078C40.8096 115.164 40.9906 115.285 41.1365 115.441C41.2823 115.598 41.393 115.784 41.4685 116C41.544 116.216 41.5818 116.453 41.5818 116.711ZM40.613 116.574C40.6156 116.418 40.5961 116.283 40.5544 116.168C40.5128 116.051 40.4555 115.954 40.3826 115.879C40.3122 115.803 40.2289 115.747 40.1326 115.711C40.0388 115.674 39.9372 115.656 39.8279 115.656C39.5883 115.656 39.3917 115.737 39.238 115.898C39.0844 116.057 38.9932 116.283 38.9646 116.574H40.613ZM45.0737 119V116.414C45.0737 115.979 44.9122 115.762 44.5893 115.762C44.4279 115.762 44.2729 115.827 44.1245 115.957C43.9786 116.087 43.8237 116.264 43.6596 116.488V119H42.7065V115.031H43.5307L43.5542 115.617C43.6349 115.516 43.7182 115.423 43.8042 115.34C43.8927 115.257 43.9878 115.186 44.0893 115.129C44.1909 115.069 44.3003 115.023 44.4174 114.992C44.5346 114.961 44.6661 114.945 44.812 114.945C45.0151 114.945 45.1922 114.979 45.3432 115.047C45.4943 115.112 45.6206 115.206 45.7221 115.328C45.8237 115.448 45.8992 115.594 45.9487 115.766C46.0008 115.935 46.0268 116.125 46.0268 116.336V119H45.0737ZM49.7844 119L49.7609 118.414C49.6776 118.516 49.5917 118.608 49.5031 118.691C49.4146 118.775 49.3195 118.846 49.218 118.906C49.1164 118.964 49.007 119.008 48.8898 119.039C48.7753 119.073 48.6477 119.09 48.507 119.09C48.2727 119.09 48.0643 119.043 47.882 118.949C47.6997 118.855 47.5461 118.723 47.4211 118.551C47.2987 118.376 47.2049 118.165 47.1398 117.918C47.0747 117.671 47.0422 117.395 47.0422 117.09C47.0422 116.725 47.093 116.41 47.1945 116.145C47.2987 115.876 47.4419 115.655 47.6242 115.48C47.8065 115.303 48.0227 115.173 48.2727 115.09C48.5227 115.004 48.7948 114.961 49.0891 114.961C49.188 114.961 49.287 114.967 49.3859 114.98C49.4875 114.993 49.5773 115.01 49.6555 115.031V113.48H50.6086V119H49.7844ZM48.0422 117.047C48.0422 117.266 48.0565 117.453 48.0852 117.609C48.1164 117.763 48.1607 117.889 48.218 117.988C48.2779 118.087 48.3508 118.16 48.4367 118.207C48.5227 118.251 48.6203 118.273 48.7297 118.273C48.8911 118.273 49.0448 118.208 49.1906 118.078C49.3365 117.948 49.4914 117.77 49.6555 117.543V115.809C49.5799 115.78 49.4862 115.757 49.3742 115.738C49.2648 115.72 49.1542 115.711 49.0422 115.711C48.8885 115.711 48.7505 115.742 48.6281 115.805C48.5057 115.867 48.4003 115.956 48.3117 116.07C48.2258 116.185 48.1594 116.326 48.1125 116.492C48.0656 116.656 48.0422 116.841 48.0422 117.047ZM54.2372 120.551V119.246L54.2802 118.473C54.2073 118.564 54.1292 118.647 54.0458 118.723C53.9651 118.798 53.8753 118.863 53.7763 118.918C53.6799 118.973 53.5745 119.014 53.4599 119.043C53.3453 119.074 53.2216 119.09 53.0888 119.09C52.8544 119.09 52.6461 119.043 52.4638 118.949C52.2815 118.855 52.1279 118.723 52.0029 118.551C51.8805 118.376 51.7867 118.165 51.7216 117.918C51.6565 117.671 51.624 117.395 51.624 117.09C51.624 116.775 51.6669 116.487 51.7529 116.227C51.8388 115.964 51.9664 115.738 52.1357 115.551C52.3076 115.363 52.5211 115.219 52.7763 115.117C53.0315 115.013 53.3297 114.961 53.6708 114.961C53.7359 114.961 53.8076 114.965 53.8857 114.973C53.9638 114.98 54.0419 114.991 54.1201 115.004C54.1982 115.014 54.2724 115.029 54.3427 115.047C54.4156 115.062 54.4794 115.079 54.5341 115.098L55.1904 114.953V120.551H54.2372ZM52.624 117.047C52.624 117.266 52.6383 117.453 52.6669 117.609C52.6982 117.763 52.7424 117.889 52.7997 117.988C52.8596 118.087 52.9326 118.16 53.0185 118.207C53.1044 118.251 53.2021 118.273 53.3115 118.273C53.4729 118.273 53.6266 118.208 53.7724 118.078C53.9182 117.948 54.0732 117.77 54.2372 117.543V115.809C54.1617 115.78 54.068 115.757 53.956 115.738C53.8466 115.72 53.7359 115.711 53.624 115.711C53.4703 115.711 53.3323 115.742 53.2099 115.805C53.0875 115.867 52.982 115.956 52.8935 116.07C52.8076 116.185 52.7411 116.326 52.6943 116.492C52.6474 116.656 52.624 116.841 52.624 117.047Z" fill="#454D58"/>
<rect x="366" y="69" width="36" height="16" rx="5" fill="#81B29A"/>
<rect x="168" y="86" width="87" height="16" rx="5" fill="#81B29A"/>
<path d="M202.816 93.832C202.816 94.0586 202.766 94.2526 202.664 94.4141C202.565 94.5729 202.432 94.7031 202.266 94.8047C202.102 94.9036 201.914 94.9753 201.703 95.0195C201.495 95.0664 201.281 95.0898 201.062 95.0898C200.771 95.0898 200.508 95.0755 200.273 95.0469C200.039 95.0208 199.818 94.9818 199.609 94.9297V94.0703C199.854 94.1719 200.098 94.2461 200.34 94.293C200.585 94.3372 200.815 94.3594 201.031 94.3594C201.281 94.3594 201.467 94.3203 201.59 94.2422C201.715 94.1615 201.777 94.0573 201.777 93.9297C201.777 93.8698 201.764 93.8151 201.738 93.7656C201.712 93.7161 201.663 93.6693 201.59 93.625C201.52 93.5781 201.419 93.5312 201.289 93.4844C201.159 93.4349 200.988 93.3802 200.777 93.3203C200.582 93.2656 200.41 93.2044 200.262 93.1367C200.116 93.0664 199.995 92.9844 199.898 92.8906C199.802 92.7969 199.729 92.6888 199.68 92.5664C199.633 92.4414 199.609 92.2956 199.609 92.1289C199.609 91.9674 199.646 91.8151 199.719 91.6719C199.792 91.5286 199.9 91.4036 200.043 91.2969C200.189 91.1875 200.37 91.1016 200.586 91.0391C200.802 90.9766 201.055 90.9453 201.344 90.9453C201.594 90.9453 201.815 90.9583 202.008 90.9844C202.201 91.0104 202.371 91.0391 202.52 91.0703V91.8477C202.293 91.7747 202.079 91.724 201.879 91.6953C201.681 91.6641 201.484 91.6484 201.289 91.6484C201.094 91.6484 200.936 91.6836 200.816 91.7539C200.699 91.8242 200.641 91.9219 200.641 92.0469C200.641 92.1068 200.652 92.1602 200.676 92.207C200.699 92.2539 200.745 92.2995 200.812 92.3438C200.883 92.388 200.979 92.4349 201.102 92.4844C201.227 92.5312 201.391 92.5833 201.594 92.6406C201.823 92.7057 202.016 92.776 202.172 92.8516C202.328 92.9245 202.453 93.0078 202.547 93.1016C202.643 93.1953 202.712 93.3021 202.754 93.4219C202.796 93.5417 202.816 93.6784 202.816 93.832ZM207.582 92.7109C207.582 92.776 207.579 92.8607 207.574 92.9648C207.571 93.069 207.566 93.1667 207.558 93.2578H204.949C204.949 93.4323 204.975 93.5859 205.027 93.7188C205.082 93.8516 205.157 93.9635 205.254 94.0547C205.353 94.1432 205.47 94.2109 205.605 94.2578C205.743 94.3047 205.896 94.3281 206.062 94.3281C206.255 94.3281 206.461 94.3138 206.679 94.2852C206.901 94.2539 207.13 94.2044 207.367 94.1367V94.8945C207.265 94.9232 207.155 94.9492 207.035 94.9727C206.915 94.9961 206.793 95.0169 206.668 95.0352C206.543 95.0534 206.416 95.0664 206.289 95.0742C206.161 95.0846 206.038 95.0898 205.918 95.0898C205.616 95.0898 205.345 95.0469 205.105 94.9609C204.866 94.875 204.663 94.7487 204.496 94.582C204.329 94.4128 204.202 94.2044 204.113 93.957C204.024 93.7096 203.98 93.4232 203.98 93.0977C203.98 92.7747 204.024 92.4818 204.113 92.2188C204.202 91.9531 204.327 91.7266 204.488 91.5391C204.649 91.349 204.845 91.2031 205.074 91.1016C205.306 90.9974 205.564 90.9453 205.847 90.9453C206.129 90.9453 206.377 90.9896 206.593 91.0781C206.81 91.1641 206.991 91.2852 207.136 91.4414C207.282 91.5977 207.393 91.7839 207.468 92C207.544 92.2161 207.582 92.4531 207.582 92.7109ZM206.613 92.5742C206.616 92.418 206.596 92.2826 206.554 92.168C206.513 92.0508 206.455 91.9544 206.383 91.8789C206.312 91.8034 206.229 91.7474 206.133 91.7109C206.039 91.6745 205.937 91.6562 205.828 91.6562C205.588 91.6562 205.392 91.737 205.238 91.8984C205.084 92.0573 204.993 92.2826 204.965 92.5742H206.613ZM211.074 95V92.4141C211.074 91.9792 210.912 91.7617 210.589 91.7617C210.428 91.7617 210.273 91.8268 210.124 91.957C209.979 92.0872 209.824 92.2643 209.66 92.4883V95H208.707V91.0312H209.531L209.554 91.6172C209.635 91.5156 209.718 91.4232 209.804 91.3398C209.893 91.2565 209.988 91.1862 210.089 91.1289C210.191 91.069 210.3 91.0234 210.417 90.9922C210.535 90.9609 210.666 90.9453 210.812 90.9453C211.015 90.9453 211.192 90.9792 211.343 91.0469C211.494 91.112 211.621 91.2057 211.722 91.3281C211.824 91.4479 211.899 91.5938 211.949 91.7656C212.001 91.9349 212.027 92.125 212.027 92.3359V95H211.074ZM215.784 95L215.761 94.4141C215.678 94.5156 215.592 94.6081 215.503 94.6914C215.415 94.7747 215.32 94.8464 215.218 94.9062C215.116 94.9635 215.007 95.0078 214.89 95.0391C214.775 95.0729 214.648 95.0898 214.507 95.0898C214.273 95.0898 214.064 95.043 213.882 94.9492C213.7 94.8555 213.546 94.7227 213.421 94.5508C213.299 94.3763 213.205 94.1654 213.14 93.918C213.075 93.6706 213.042 93.3945 213.042 93.0898C213.042 92.7253 213.093 92.4102 213.195 92.1445C213.299 91.8763 213.442 91.6549 213.624 91.4805C213.807 91.3034 214.023 91.1732 214.273 91.0898C214.523 91.0039 214.795 90.9609 215.089 90.9609C215.188 90.9609 215.287 90.9674 215.386 90.9805C215.488 90.9935 215.577 91.0104 215.655 91.0312V89.4805H216.609V95H215.784ZM214.042 93.0469C214.042 93.2656 214.057 93.4531 214.085 93.6094C214.116 93.763 214.161 93.8893 214.218 93.9883C214.278 94.0872 214.351 94.1602 214.437 94.207C214.523 94.2513 214.62 94.2734 214.73 94.2734C214.891 94.2734 215.045 94.2083 215.191 94.0781C215.336 93.9479 215.491 93.7695 215.655 93.543V91.8086C215.58 91.7799 215.486 91.7565 215.374 91.7383C215.265 91.7201 215.154 91.7109 215.042 91.7109C214.889 91.7109 214.751 91.7422 214.628 91.8047C214.506 91.8672 214.4 91.9557 214.312 92.0703C214.226 92.1849 214.159 92.3255 214.113 92.4922C214.066 92.6562 214.042 92.8411 214.042 93.0469ZM220.425 95L219.518 93.6641L218.608 95H217.456L218.944 93L217.534 91.0312H218.694L219.585 92.3359L220.464 91.0312H221.534L220.167 92.9922L221.608 95H220.425Z" fill="#454D58"/>
<rect x="292" y="69" width="36" height="16" rx="5" fill="#81B29A"/>
<path d="M306.594 78V77.1523H307.895V73.8711L306.762 74.4961L306.449 73.7188L308.07 72.8633H308.871V77.1523H309.992V78H306.594ZM314.773 75.4258C314.773 75.8451 314.728 76.2201 314.636 76.5508C314.545 76.8815 314.411 77.1615 314.234 77.3906C314.06 77.6172 313.846 77.7904 313.593 77.9102C313.341 78.0299 313.052 78.0898 312.726 78.0898C312.445 78.0898 312.186 78.0404 311.949 77.9414C311.712 77.8424 311.508 77.6875 311.336 77.4766C311.164 77.263 311.03 76.9909 310.933 76.6602C310.837 76.3294 310.789 75.9336 310.789 75.4727C310.789 75.0534 310.834 74.6784 310.926 74.3477C311.019 74.0169 311.153 73.7383 311.328 73.5117C311.502 73.2826 311.717 73.1081 311.972 72.9883C312.228 72.8685 312.517 72.8086 312.84 72.8086C313.121 72.8086 313.38 72.8581 313.617 72.957C313.854 73.056 314.057 73.2109 314.226 73.4219C314.398 73.6328 314.532 73.9036 314.629 74.2344C314.725 74.5651 314.773 74.9622 314.773 75.4258ZM311.75 75.4414C311.75 75.4935 311.75 75.543 311.75 75.5898C311.75 75.6341 311.752 75.6797 311.758 75.7266L313.672 74.3438C313.58 74.0859 313.459 73.8958 313.308 73.7734C313.16 73.6484 312.984 73.5859 312.781 73.5859C312.635 73.5859 312.5 73.6237 312.375 73.6992C312.25 73.7721 312.14 73.8854 312.047 74.0391C311.955 74.1927 311.883 74.3854 311.828 74.6172C311.776 74.849 311.75 75.1237 311.75 75.4414ZM313.812 75.457C313.812 75.4128 313.811 75.3685 313.808 75.3242C313.806 75.2773 313.804 75.2331 313.804 75.1914L311.902 76.5664C311.985 76.819 312.103 77.0065 312.254 77.1289C312.405 77.2513 312.58 77.3125 312.781 77.3125C312.927 77.3125 313.062 77.2747 313.187 77.1992C313.315 77.1237 313.424 77.0104 313.515 76.8594C313.609 76.7057 313.682 76.513 313.734 76.2812C313.786 76.0469 313.812 75.7721 313.812 75.457Z" fill="#454D58"/>
<rect x="329" y="69" width="36" height="16" rx="5" fill="#81B29A"/>
<rect x="403" y="69" width="36" height="16" rx="5" fill="#81B29A"/>
<rect x="168" y="103" width="87" height="16" rx="5" fill="#81B29A"/>
<path d="M202.098 109.574C202.103 109.426 202.095 109.299 202.074 109.195C202.056 109.091 202.025 109.005 201.98 108.938C201.939 108.87 201.887 108.82 201.824 108.789C201.762 108.758 201.69 108.742 201.609 108.742C201.469 108.742 201.323 108.801 201.172 108.918C201.023 109.033 200.859 109.223 200.68 109.488V112H199.703V108.031H200.566L200.602 108.609C200.667 108.508 200.74 108.417 200.82 108.336C200.904 108.255 200.995 108.186 201.094 108.129C201.195 108.069 201.307 108.023 201.43 107.992C201.552 107.961 201.686 107.945 201.832 107.945C202.033 107.945 202.21 107.98 202.363 108.051C202.52 108.118 202.65 108.22 202.754 108.355C202.861 108.491 202.939 108.661 202.988 108.867C203.04 109.07 203.062 109.306 203.055 109.574H202.098ZM207.582 109.711C207.582 109.776 207.579 109.861 207.574 109.965C207.571 110.069 207.566 110.167 207.558 110.258H204.949C204.949 110.432 204.975 110.586 205.027 110.719C205.082 110.852 205.157 110.964 205.254 111.055C205.353 111.143 205.47 111.211 205.605 111.258C205.743 111.305 205.896 111.328 206.062 111.328C206.255 111.328 206.461 111.314 206.679 111.285C206.901 111.254 207.13 111.204 207.367 111.137V111.895C207.265 111.923 207.155 111.949 207.035 111.973C206.915 111.996 206.793 112.017 206.668 112.035C206.543 112.053 206.416 112.066 206.289 112.074C206.161 112.085 206.038 112.09 205.918 112.09C205.616 112.09 205.345 112.047 205.105 111.961C204.866 111.875 204.663 111.749 204.496 111.582C204.329 111.413 204.202 111.204 204.113 110.957C204.024 110.71 203.98 110.423 203.98 110.098C203.98 109.775 204.024 109.482 204.113 109.219C204.202 108.953 204.327 108.727 204.488 108.539C204.649 108.349 204.845 108.203 205.074 108.102C205.306 107.997 205.564 107.945 205.847 107.945C206.129 107.945 206.377 107.99 206.593 108.078C206.81 108.164 206.991 108.285 207.136 108.441C207.282 108.598 207.393 108.784 207.468 109C207.544 109.216 207.582 109.453 207.582 109.711ZM206.613 109.574C206.616 109.418 206.596 109.283 206.554 109.168C206.513 109.051 206.455 108.954 206.383 108.879C206.312 108.803 206.229 108.747 206.133 108.711C206.039 108.674 205.937 108.656 205.828 108.656C205.588 108.656 205.392 108.737 205.238 108.898C205.084 109.057 204.993 109.283 204.965 109.574H206.613ZM211.917 111.848C211.73 111.923 211.536 111.979 211.335 112.016C211.135 112.052 210.925 112.07 210.707 112.07C210.391 112.07 210.109 112.027 209.859 111.941C209.609 111.855 209.397 111.728 209.222 111.559C209.048 111.389 208.914 111.18 208.82 110.93C208.729 110.68 208.683 110.391 208.683 110.062C208.683 109.745 208.733 109.457 208.832 109.199C208.933 108.941 209.075 108.721 209.257 108.539C209.44 108.357 209.658 108.216 209.914 108.117C210.171 108.018 210.458 107.969 210.773 107.969C211.031 107.969 211.247 107.983 211.421 108.012C211.598 108.038 211.757 108.072 211.898 108.113V109.039C211.736 108.958 211.561 108.896 211.371 108.852C211.183 108.807 211.005 108.785 210.835 108.785C210.658 108.785 210.499 108.815 210.359 108.875C210.218 108.935 210.1 109.018 210.003 109.125C209.907 109.232 209.833 109.362 209.781 109.516C209.731 109.667 209.707 109.833 209.707 110.016C209.707 110.206 209.734 110.376 209.789 110.527C209.843 110.678 209.92 110.807 210.019 110.914C210.121 111.018 210.242 111.099 210.382 111.156C210.523 111.211 210.679 111.238 210.851 111.238C210.934 111.238 211.022 111.233 211.113 111.223C211.207 111.21 211.299 111.193 211.39 111.172C211.484 111.148 211.575 111.122 211.664 111.094C211.755 111.065 211.839 111.034 211.917 111V111.848ZM215.507 112H214.409L212.835 108.031H213.898L214.722 110.281L214.968 111.008L215.21 110.312L216.042 108.031H217.066L215.507 112ZM220.425 112L219.518 110.664L218.608 112H217.456L218.944 110L217.534 108.031H218.694L219.585 109.336L220.464 108.031H221.534L220.167 109.992L221.608 112H220.425Z" fill="#454D58"/>
<rect x="168" y="69" width="87" height="16" rx="5" fill="#81B29A"/>
<path d="M207.113 76.9453C207.113 77.3099 207.061 77.625 206.957 77.8906C206.855 78.1562 206.712 78.3776 206.527 78.5547C206.345 78.7292 206.129 78.8594 205.879 78.9453C205.629 79.0286 205.357 79.0703 205.062 79.0703C204.773 79.0703 204.504 79.0482 204.254 79.0039C204.007 78.9622 203.77 78.9049 203.543 78.832V73.4805H204.496V74.7773L204.457 75.5586C204.6 75.3737 204.767 75.2253 204.957 75.1133C205.15 75.0013 205.38 74.9453 205.648 74.9453C205.883 74.9453 206.091 74.9922 206.273 75.0859C206.456 75.1797 206.608 75.3138 206.73 75.4883C206.855 75.6602 206.951 75.8698 207.016 76.1172C207.081 76.362 207.113 76.638 207.113 76.9453ZM206.113 76.9844C206.113 76.7656 206.098 76.5794 206.066 76.4258C206.035 76.2721 205.99 76.1458 205.93 76.0469C205.872 75.9479 205.801 75.8763 205.715 75.832C205.632 75.7852 205.535 75.7617 205.426 75.7617C205.264 75.7617 205.109 75.8268 204.961 75.957C204.815 76.0872 204.66 76.2643 204.496 76.4883V78.2227C204.572 78.2513 204.664 78.2747 204.773 78.293C204.885 78.3112 204.999 78.3203 205.113 78.3203C205.264 78.3203 205.401 78.2891 205.523 78.2266C205.648 78.1641 205.754 78.0755 205.84 77.9609C205.928 77.8464 205.996 77.707 206.043 77.543C206.09 77.3763 206.113 77.1901 206.113 76.9844ZM209.07 75.0312V77.6172C209.07 77.8333 209.11 77.9974 209.191 78.1094C209.272 78.2188 209.394 78.2734 209.558 78.2734C209.717 78.2734 209.87 78.2083 210.015 78.0781C210.164 77.9453 210.32 77.7669 210.484 77.543V75.0312H211.437V79H210.613L210.59 78.4141C210.506 78.5156 210.422 78.6081 210.336 78.6914C210.25 78.7747 210.156 78.8464 210.054 78.9062C209.955 78.9635 209.846 79.0078 209.726 79.0391C209.609 79.0729 209.479 79.0898 209.336 79.0898C209.133 79.0898 208.954 79.0573 208.801 78.9922C208.649 78.9245 208.523 78.8294 208.422 78.707C208.32 78.5846 208.243 78.4388 208.191 78.2695C208.142 78.0977 208.117 77.9062 208.117 77.6953V75.0312H209.07ZM216.269 74.2891C216.154 74.2526 216.018 74.2227 215.859 74.1992C215.703 74.1732 215.542 74.1602 215.378 74.1602C215.266 74.1602 215.162 74.1758 215.066 74.207C214.97 74.2357 214.886 74.2826 214.816 74.3477C214.746 74.4128 214.69 74.4961 214.648 74.5977C214.609 74.6966 214.589 74.8177 214.589 74.9609V75.6016H216.148V76.3438H214.589V79H213.628V76.3438H212.476V75.6016H213.628V75C213.628 74.7188 213.669 74.4779 213.749 74.2773C213.833 74.0742 213.949 73.9089 214.097 73.7812C214.248 73.651 214.429 73.556 214.64 73.4961C214.851 73.4362 215.087 73.4062 215.347 73.4062C215.519 73.4062 215.682 73.418 215.835 73.4414C215.992 73.4622 216.136 73.4883 216.269 73.5195V74.2891Z" fill="#454D58"/>
<line x1="255" y1="75.5" x2="289" y2="75.5" stroke="#454D58" stroke-width="3"/>
<path fill-rule="evenodd" clip-rule="evenodd" d="M292 75.5L287 79V72L292 75.5Z" fill="#454D58"/>
<path d="M312.191 63.4258C312.191 63.8451 312.146 64.2201 312.055 64.5508C311.964 64.8815 311.829 65.1615 311.652 65.3906C311.478 65.6172 311.264 65.7904 311.012 65.9102C310.759 66.0299 310.47 66.0898 310.145 66.0898C309.863 66.0898 309.604 66.0404 309.367 65.9414C309.13 65.8424 308.926 65.6875 308.754 65.4766C308.582 65.263 308.448 64.9909 308.352 64.6602C308.255 64.3294 308.207 63.9336 308.207 63.4727C308.207 63.0534 308.253 62.6784 308.344 62.3477C308.438 62.0169 308.572 61.7383 308.746 61.5117C308.921 61.2826 309.135 61.1081 309.391 60.9883C309.646 60.8685 309.935 60.8086 310.258 60.8086C310.539 60.8086 310.798 60.8581 311.035 60.957C311.272 61.056 311.475 61.2109 311.645 61.4219C311.816 61.6328 311.951 61.9036 312.047 62.2344C312.143 62.5651 312.191 62.9622 312.191 63.4258ZM309.168 63.4414C309.168 63.4935 309.168 63.543 309.168 63.5898C309.168 63.6341 309.171 63.6797 309.176 63.7266L311.09 62.3438C310.999 62.0859 310.878 61.8958 310.727 61.7734C310.578 61.6484 310.402 61.5859 310.199 61.5859C310.053 61.5859 309.918 61.6237 309.793 61.6992C309.668 61.7721 309.559 61.8854 309.465 62.0391C309.374 62.1927 309.301 62.3854 309.246 62.6172C309.194 62.849 309.168 63.1237 309.168 63.4414ZM311.23 63.457C311.23 63.4128 311.229 63.3685 311.227 63.3242C311.224 63.2773 311.223 63.2331 311.223 63.1914L309.32 64.5664C309.404 64.819 309.521 65.0065 309.672 65.1289C309.823 65.2513 309.999 65.3125 310.199 65.3125C310.345 65.3125 310.48 65.2747 310.605 65.1992C310.733 65.1237 310.842 65.0104 310.934 64.8594C311.027 64.7057 311.1 64.513 311.152 64.2812C311.204 64.0469 311.23 63.7721 311.23 63.457Z" fill="#454D58"/>
<path d="M260.113 61.9453C260.113 62.3099 260.061 62.625 259.957 62.8906C259.855 63.1562 259.712 63.3776 259.527 63.5547C259.345 63.7292 259.129 63.8594 258.879 63.9453C258.629 64.0286 258.357 64.0703 258.062 64.0703C257.773 64.0703 257.504 64.0482 257.254 64.0039C257.007 63.9622 256.77 63.9049 256.543 63.832V58.4805H257.496V59.7773L257.457 60.5586C257.6 60.3737 257.767 60.2253 257.957 60.1133C258.15 60.0013 258.38 59.9453 258.648 59.9453C258.883 59.9453 259.091 59.9922 259.273 60.0859C259.456 60.1797 259.608 60.3138 259.73 60.4883C259.855 60.6602 259.951 60.8698 260.016 61.1172C260.081 61.362 260.113 61.638 260.113 61.9453ZM259.113 61.9844C259.113 61.7656 259.098 61.5794 259.066 61.4258C259.035 61.2721 258.99 61.1458 258.93 61.0469C258.872 60.9479 258.801 60.8763 258.715 60.832C258.632 60.7852 258.535 60.7617 258.426 60.7617C258.264 60.7617 258.109 60.8268 257.961 60.957C257.815 61.0872 257.66 61.2643 257.496 61.4883V63.2227C257.572 63.2513 257.664 63.2747 257.773 63.293C257.885 63.3112 257.999 63.3203 258.113 63.3203C258.264 63.3203 258.401 63.2891 258.523 63.2266C258.648 63.1641 258.754 63.0755 258.84 62.9609C258.928 62.8464 258.996 62.707 259.043 62.543C259.09 62.3763 259.113 62.1901 259.113 61.9844ZM262.07 60.0312V62.6172C262.07 62.8333 262.11 62.9974 262.191 63.1094C262.272 63.2188 262.394 63.2734 262.558 63.2734C262.717 63.2734 262.87 63.2083 263.015 63.0781C263.164 62.9453 263.32 62.7669 263.484 62.543V60.0312H264.437V64H263.613L263.59 63.4141C263.506 63.5156 263.422 63.6081 263.336 63.6914C263.25 63.7747 263.156 63.8464 263.054 63.9062C262.955 63.9635 262.846 64.0078 262.726 64.0391C262.609 64.0729 262.479 64.0898 262.336 64.0898C262.133 64.0898 261.954 64.0573 261.801 63.9922C261.649 63.9245 261.523 63.8294 261.422 63.707C261.32 63.5846 261.243 63.4388 261.191 63.2695C261.142 63.0977 261.117 62.9062 261.117 62.6953V60.0312H262.07ZM269.269 59.2891C269.154 59.2526 269.018 59.2227 268.859 59.1992C268.703 59.1732 268.542 59.1602 268.378 59.1602C268.266 59.1602 268.162 59.1758 268.066 59.207C267.97 59.2357 267.886 59.2826 267.816 59.3477C267.746 59.4128 267.69 59.4961 267.648 59.5977C267.609 59.6966 267.589 59.8177 267.589 59.9609V60.6016H269.148V61.3438H267.589V64H266.628V61.3438H265.476V60.6016H266.628V60C266.628 59.7188 266.669 59.4779 266.749 59.2773C266.833 59.0742 266.949 58.9089 267.097 58.7812C267.248 58.651 267.429 58.556 267.64 58.4961C267.851 58.4362 268.087 58.4062 268.347 58.4062C268.519 58.4062 268.682 58.418 268.835 58.4414C268.992 58.4622 269.136 58.4883 269.269 58.5195V59.2891ZM277.206 58.9453C277.206 59.0312 277.19 59.112 277.159 59.1875C277.128 59.263 277.084 59.3294 277.026 59.3867C276.972 59.4414 276.907 59.4857 276.831 59.5195C276.755 59.5508 276.673 59.5664 276.585 59.5664C276.496 59.5664 276.413 59.5508 276.335 59.5195C276.259 59.4857 276.193 59.4414 276.136 59.3867C276.081 59.3294 276.038 59.263 276.007 59.1875C275.976 59.112 275.96 59.0312 275.96 58.9453C275.96 58.8594 275.976 58.7786 276.007 58.7031C276.038 58.6276 276.081 58.5612 276.136 58.5039C276.193 58.4466 276.259 58.4023 276.335 58.3711C276.413 58.3372 276.496 58.3203 276.585 58.3203C276.673 58.3203 276.755 58.3372 276.831 58.3711C276.907 58.4023 276.972 58.4466 277.026 58.5039C277.084 58.5612 277.128 58.6276 277.159 58.7031C277.19 58.7786 277.206 58.8594 277.206 58.9453ZM276.151 60.7734H275.03V60.0312H277.128V63.2578H278.272V64H274.893V63.2578H276.151V60.7734ZM281.819 64V61.4141C281.819 60.9792 281.658 60.7617 281.335 60.7617C281.173 60.7617 281.018 60.8268 280.87 60.957C280.724 61.0872 280.569 61.2643 280.405 61.4883V64H279.452V60.0312H280.276L280.299 60.6172C280.38 60.5156 280.464 60.4232 280.549 60.3398C280.638 60.2565 280.733 60.1862 280.835 60.1289C280.936 60.069 281.046 60.0234 281.163 59.9922C281.28 59.9609 281.411 59.9453 281.557 59.9453C281.76 59.9453 281.938 59.9792 282.089 60.0469C282.24 60.112 282.366 60.2057 282.467 60.3281C282.569 60.4479 282.645 60.5938 282.694 60.7656C282.746 60.9349 282.772 61.125 282.772 61.3359V64H281.819ZM286.53 64L286.506 63.4141C286.423 63.5156 286.337 63.6081 286.248 63.6914C286.16 63.7747 286.065 63.8464 285.963 63.9062C285.862 63.9635 285.752 64.0078 285.635 64.0391C285.521 64.0729 285.393 64.0898 285.252 64.0898C285.018 64.0898 284.81 64.043 284.627 63.9492C284.445 63.8555 284.291 63.7227 284.166 63.5508C284.044 63.3763 283.95 63.1654 283.885 62.918C283.82 62.6706 283.788 62.3945 283.788 62.0898C283.788 61.7253 283.838 61.4102 283.94 61.1445C284.044 60.8763 284.187 60.6549 284.37 60.4805C284.552 60.3034 284.768 60.1732 285.018 60.0898C285.268 60.0039 285.54 59.9609 285.834 59.9609C285.933 59.9609 286.032 59.9674 286.131 59.9805C286.233 59.9935 286.323 60.0104 286.401 60.0312V58.4805H287.354V64H286.53ZM284.788 62.0469C284.788 62.2656 284.802 62.4531 284.83 62.6094C284.862 62.763 284.906 62.8893 284.963 62.9883C285.023 63.0872 285.096 63.1602 285.182 63.207C285.268 63.2513 285.366 63.2734 285.475 63.2734C285.636 63.2734 285.79 63.2083 285.936 63.0781C286.082 62.9479 286.237 62.7695 286.401 62.543V60.8086C286.325 60.7799 286.232 60.7565 286.12 60.7383C286.01 60.7201 285.899 60.7109 285.788 60.7109C285.634 60.7109 285.496 60.7422 285.373 60.8047C285.251 60.8672 285.146 60.9557 285.057 61.0703C284.971 61.1849 284.905 61.3255 284.858 61.4922C284.811 61.6562 284.788 61.8411 284.788 62.0469ZM292.072 61.7109C292.072 61.776 292.07 61.8607 292.065 61.9648C292.062 62.069 292.057 62.1667 292.049 62.2578H289.44C289.44 62.4323 289.466 62.5859 289.518 62.7188C289.572 62.8516 289.648 62.9635 289.744 63.0547C289.843 63.1432 289.96 63.2109 290.096 63.2578C290.234 63.3047 290.386 63.3281 290.553 63.3281C290.746 63.3281 290.951 63.3138 291.17 63.2852C291.391 63.2539 291.621 63.2044 291.858 63.1367V63.8945C291.756 63.9232 291.645 63.9492 291.526 63.9727C291.406 63.9961 291.283 64.0169 291.158 64.0352C291.033 64.0534 290.907 64.0664 290.779 64.0742C290.652 64.0846 290.528 64.0898 290.408 64.0898C290.106 64.0898 289.835 64.0469 289.596 63.9609C289.356 63.875 289.153 63.7487 288.986 63.582C288.82 63.4128 288.692 63.2044 288.604 62.957C288.515 62.7096 288.471 62.4232 288.471 62.0977C288.471 61.7747 288.515 61.4818 288.604 61.2188C288.692 60.9531 288.817 60.7266 288.979 60.5391C289.14 60.349 289.335 60.2031 289.565 60.1016C289.796 59.9974 290.054 59.9453 290.338 59.9453C290.619 59.9453 290.868 59.9896 291.084 60.0781C291.3 60.1641 291.481 60.2852 291.627 60.4414C291.773 60.5977 291.884 60.7839 291.959 61C292.035 61.2161 292.072 61.4531 292.072 61.7109ZM291.104 61.5742C291.106 61.418 291.087 61.2826 291.045 61.168C291.003 61.0508 290.946 60.9544 290.873 60.8789C290.803 60.8034 290.72 60.7474 290.623 60.7109C290.529 60.6745 290.428 60.6562 290.318 60.6562C290.079 60.6562 289.882 60.737 289.729 60.8984C289.575 61.0573 289.484 61.2826 289.455 61.5742H291.104ZM295.752 64L294.846 62.6641L293.935 64H292.783L294.271 62L292.861 60.0312H294.021L294.912 61.3359L295.791 60.0312H296.861L295.494 61.9922L296.935 64H295.752Z" fill="#454D58"/>
<path d="M163.191 93.4258C163.191 93.8451 163.146 94.2201 163.055 94.5508C162.964 94.8815 162.829 95.1615 162.652 95.3906C162.478 95.6172 162.264 95.7904 162.012 95.9102C161.759 96.0299 161.47 96.0898 161.145 96.0898C160.863 96.0898 160.604 96.0404 160.367 95.9414C160.13 95.8424 159.926 95.6875 159.754 95.4766C159.582 95.263 159.448 94.9909 159.352 94.6602C159.255 94.3294 159.207 93.9336 159.207 93.4727C159.207 93.0534 159.253 92.6784 159.344 92.3477C159.438 92.0169 159.572 91.7383 159.746 91.5117C159.921 91.2826 160.135 91.1081 160.391 90.9883C160.646 90.8685 160.935 90.8086 161.258 90.8086C161.539 90.8086 161.798 90.8581 162.035 90.957C162.272 91.056 162.475 91.2109 162.645 91.4219C162.816 91.6328 162.951 91.9036 163.047 92.2344C163.143 92.5651 163.191 92.9622 163.191 93.4258ZM160.168 93.4414C160.168 93.4935 160.168 93.543 160.168 93.5898C160.168 93.6341 160.171 93.6797 160.176 93.7266L162.09 92.3438C161.999 92.0859 161.878 91.8958 161.727 91.7734C161.578 91.6484 161.402 91.5859 161.199 91.5859C161.053 91.5859 160.918 91.6237 160.793 91.6992C160.668 91.7721 160.559 91.8854 160.465 92.0391C160.374 92.1927 160.301 92.3854 160.246 92.6172C160.194 92.849 160.168 93.1237 160.168 93.4414ZM162.23 93.457C162.23 93.4128 162.229 93.3685 162.227 93.3242C162.224 93.2773 162.223 93.2331 162.223 93.1914L160.32 94.5664C160.404 94.819 160.521 95.0065 160.672 95.1289C160.823 95.2513 160.999 95.3125 161.199 95.3125C161.345 95.3125 161.48 95.2747 161.605 95.1992C161.733 95.1237 161.842 95.0104 161.934 94.8594C162.027 94.7057 162.1 94.513 162.152 94.2812C162.204 94.0469 162.23 93.7721 162.23 93.457Z" fill="#454D58"/>
<path d="M163.191 112.426C163.191 112.845 163.146 113.22 163.055 113.551C162.964 113.882 162.829 114.161 162.652 114.391C162.478 114.617 162.264 114.79 162.012 114.91C161.759 115.03 161.47 115.09 161.145 115.09C160.863 115.09 160.604 115.04 160.367 114.941C160.13 114.842 159.926 114.688 159.754 114.477C159.582 114.263 159.448 113.991 159.352 113.66C159.255 113.329 159.207 112.934 159.207 112.473C159.207 112.053 159.253 111.678 159.344 111.348C159.438 111.017 159.572 110.738 159.746 110.512C159.921 110.283 160.135 110.108 160.391 109.988C160.646 109.868 160.935 109.809 161.258 109.809C161.539 109.809 161.798 109.858 162.035 109.957C162.272 110.056 162.475 110.211 162.645 110.422C162.816 110.633 162.951 110.904 163.047 111.234C163.143 111.565 163.191 111.962 163.191 112.426ZM160.168 112.441C160.168 112.493 160.168 112.543 160.168 112.59C160.168 112.634 160.171 112.68 160.176 112.727L162.09 111.344C161.999 111.086 161.878 110.896 161.727 110.773C161.578 110.648 161.402 110.586 161.199 110.586C161.053 110.586 160.918 110.624 160.793 110.699C160.668 110.772 160.559 110.885 160.465 111.039C160.374 111.193 160.301 111.385 160.246 111.617C160.194 111.849 160.168 112.124 160.168 112.441ZM162.23 112.457C162.23 112.413 162.229 112.368 162.227 112.324C162.224 112.277 162.223 112.233 162.223 112.191L160.32 113.566C160.404 113.819 160.521 114.007 160.672 114.129C160.823 114.251 160.999 114.312 161.199 114.312C161.345 114.312 161.48 114.275 161.605 114.199C161.733 114.124 161.842 114.01 161.934 113.859C162.027 113.706 162.1 113.513 162.152 113.281C162.204 113.047 162.23 112.772 162.23 112.457Z" fill="#454D58"/>
<path d="M343.594 66V65.1523H344.895V61.8711L343.762 62.4961L343.449 61.7188L345.07 60.8633H345.871V65.1523H346.992V66H343.594Z" fill="#454D58"/>
<path d="M381.504 66V65.2969L382.711 64.0898C382.938 63.8633 383.118 63.668 383.254 63.5039C383.392 63.3398 383.497 63.194 383.57 63.0664C383.646 62.9362 383.695 62.8164 383.719 62.707C383.742 62.5977 383.754 62.4844 383.754 62.3672C383.754 62.2708 383.738 62.1797 383.707 62.0938C383.676 62.0052 383.63 61.9297 383.57 61.8672C383.51 61.8021 383.435 61.7513 383.344 61.7148C383.253 61.6758 383.148 61.6562 383.031 61.6562C382.831 61.6562 382.645 61.7005 382.473 61.7891C382.301 61.875 382.138 61.9909 381.984 62.1367L381.48 61.4883C381.702 61.2826 381.951 61.1185 382.227 60.9961C382.505 60.8711 382.806 60.8086 383.129 60.8086C383.379 60.8086 383.605 60.8411 383.809 60.9062C384.012 60.9688 384.185 61.0625 384.328 61.1875C384.474 61.3125 384.586 61.4688 384.664 61.6562C384.745 61.8438 384.785 62.0599 384.785 62.3047C384.785 62.5078 384.758 62.6979 384.703 62.875C384.648 63.0495 384.569 63.2201 384.465 63.3867C384.361 63.5534 384.232 63.7201 384.078 63.8867C383.927 64.0534 383.754 64.2292 383.559 64.4141L382.816 65.1211H384.969V66H381.504Z" fill="#454D58"/>
<path d="M422.984 64.4414C422.984 64.694 422.938 64.9219 422.844 65.125C422.75 65.3255 422.605 65.4974 422.41 65.6406C422.217 65.7812 421.974 65.8893 421.68 65.9648C421.385 66.0404 421.039 66.0781 420.641 66.0781C420.552 66.0781 420.458 66.0755 420.359 66.0703C420.263 66.0677 420.167 66.0625 420.07 66.0547C419.974 66.0495 419.88 66.0417 419.789 66.0312C419.698 66.0234 419.616 66.013 419.543 66V65.1719C419.707 65.2031 419.891 65.2292 420.094 65.25C420.299 65.2682 420.513 65.2773 420.734 65.2773C420.951 65.2773 421.137 65.2591 421.293 65.2227C421.449 65.1862 421.578 65.1341 421.68 65.0664C421.781 64.9961 421.855 64.9102 421.902 64.8086C421.952 64.707 421.977 64.5924 421.977 64.4648C421.977 64.3529 421.952 64.2513 421.902 64.1602C421.853 64.069 421.777 63.9922 421.676 63.9297C421.574 63.8646 421.444 63.8151 421.285 63.7812C421.129 63.7448 420.943 63.7266 420.727 63.7266H420.16V63H420.68C420.883 63 421.051 62.9805 421.184 62.9414C421.319 62.8997 421.426 62.8451 421.504 62.7773C421.585 62.7096 421.642 62.6302 421.676 62.5391C421.71 62.4453 421.727 62.3477 421.727 62.2461C421.727 62.0378 421.659 61.8802 421.523 61.7734C421.388 61.6641 421.178 61.6094 420.895 61.6094C420.691 61.6094 420.491 61.6289 420.293 61.668C420.095 61.707 419.891 61.7591 419.68 61.8242V61.0234C419.797 60.9844 419.909 60.9518 420.016 60.9258C420.122 60.8997 420.229 60.8776 420.336 60.8594C420.443 60.8411 420.551 60.8281 420.66 60.8203C420.77 60.8125 420.883 60.8086 421 60.8086C421.281 60.8086 421.527 60.8385 421.738 60.8984C421.952 60.9583 422.13 61.0443 422.273 61.1562C422.419 61.2656 422.529 61.3997 422.602 61.5586C422.674 61.7174 422.711 61.8945 422.711 62.0898C422.711 62.3997 422.639 62.651 422.496 62.8438C422.355 63.0339 422.158 63.1797 421.902 63.2812C422.066 63.3073 422.215 63.3529 422.348 63.418C422.48 63.4805 422.594 63.5625 422.688 63.6641C422.784 63.763 422.857 63.8776 422.906 64.0078C422.958 64.138 422.984 64.2826 422.984 64.4414Z" fill="#454D58"/>
<path d="M143.879 74.9453C143.879 75.0312 143.863 75.112 143.832 75.1875C143.801 75.263 143.757 75.3294 143.699 75.3867C143.645 75.4414 143.579 75.4857 143.504 75.5195C143.428 75.5508 143.346 75.5664 143.258 75.5664C143.169 75.5664 143.086 75.5508 143.008 75.5195C142.932 75.4857 142.866 75.4414 142.809 75.3867C142.754 75.3294 142.711 75.263 142.68 75.1875C142.648 75.112 142.633 75.0312 142.633 74.9453C142.633 74.8594 142.648 74.7786 142.68 74.7031C142.711 74.6276 142.754 74.5612 142.809 74.5039C142.866 74.4466 142.932 74.4023 143.008 74.3711C143.086 74.3372 143.169 74.3203 143.258 74.3203C143.346 74.3203 143.428 74.3372 143.504 74.3711C143.579 74.4023 143.645 74.4466 143.699 74.5039C143.757 74.5612 143.801 74.6276 143.832 74.7031C143.863 74.7786 143.879 74.8594 143.879 74.9453ZM142.824 76.7734H141.703V76.0312H143.801V79.2578H144.945V80H141.566V79.2578H142.824V76.7734ZM148.492 80V77.4141C148.492 76.9792 148.33 76.7617 148.008 76.7617C147.846 76.7617 147.691 76.8268 147.543 76.957C147.397 77.0872 147.242 77.2643 147.078 77.4883V80H146.125V76.0312H146.949L146.972 76.6172C147.053 76.5156 147.136 76.4232 147.222 76.3398C147.311 76.2565 147.406 76.1862 147.508 76.1289C147.609 76.069 147.718 76.0234 147.836 75.9922C147.953 75.9609 148.084 75.9453 148.23 75.9453C148.433 75.9453 148.61 75.9792 148.761 76.0469C148.913 76.112 149.039 76.2057 149.14 76.3281C149.242 76.4479 149.317 76.5938 149.367 76.7656C149.419 76.9349 149.445 77.125 149.445 77.3359V80H148.492ZM153.203 80L153.179 79.4141C153.096 79.5156 153.01 79.6081 152.921 79.6914C152.833 79.7747 152.738 79.8464 152.636 79.9062C152.535 79.9635 152.425 80.0078 152.308 80.0391C152.193 80.0729 152.066 80.0898 151.925 80.0898C151.691 80.0898 151.483 80.043 151.3 79.9492C151.118 79.8555 150.964 79.7227 150.839 79.5508C150.717 79.3763 150.623 79.1654 150.558 78.918C150.493 78.6706 150.46 78.3945 150.46 78.0898C150.46 77.7253 150.511 77.4102 150.613 77.1445C150.717 76.8763 150.86 76.6549 151.042 76.4805C151.225 76.3034 151.441 76.1732 151.691 76.0898C151.941 76.0039 152.213 75.9609 152.507 75.9609C152.606 75.9609 152.705 75.9674 152.804 75.9805C152.906 75.9935 152.996 76.0104 153.074 76.0312V74.4805H154.027V80H153.203ZM151.46 78.0469C151.46 78.2656 151.475 78.4531 151.503 78.6094C151.535 78.763 151.579 78.8893 151.636 78.9883C151.696 79.0872 151.769 79.1602 151.855 79.207C151.941 79.2513 152.039 79.2734 152.148 79.2734C152.309 79.2734 152.463 79.2083 152.609 79.0781C152.755 78.9479 152.91 78.7695 153.074 78.543V76.8086C152.998 76.7799 152.904 76.7565 152.792 76.7383C152.683 76.7201 152.572 76.7109 152.46 76.7109C152.307 76.7109 152.169 76.7422 152.046 76.8047C151.924 76.8672 151.818 76.9557 151.73 77.0703C151.644 77.1849 151.578 77.3255 151.531 77.4922C151.484 77.6562 151.46 77.8411 151.46 78.0469ZM158.745 77.7109C158.745 77.776 158.743 77.8607 158.738 77.9648C158.735 78.069 158.73 78.1667 158.722 78.2578H156.113C156.113 78.4323 156.139 78.5859 156.191 78.7188C156.245 78.8516 156.321 78.9635 156.417 79.0547C156.516 79.1432 156.633 79.2109 156.769 79.2578C156.907 79.3047 157.059 79.3281 157.226 79.3281C157.418 79.3281 157.624 79.3138 157.843 79.2852C158.064 79.2539 158.293 79.2044 158.53 79.1367V79.8945C158.429 79.9232 158.318 79.9492 158.198 79.9727C158.079 79.9961 157.956 80.0169 157.831 80.0352C157.706 80.0534 157.58 80.0664 157.452 80.0742C157.325 80.0846 157.201 80.0898 157.081 80.0898C156.779 80.0898 156.508 80.0469 156.269 79.9609C156.029 79.875 155.826 79.7487 155.659 79.582C155.493 79.4128 155.365 79.2044 155.277 78.957C155.188 78.7096 155.144 78.4232 155.144 78.0977C155.144 77.7747 155.188 77.4818 155.277 77.2188C155.365 76.9531 155.49 76.7266 155.652 76.5391C155.813 76.349 156.008 76.2031 156.238 76.1016C156.469 75.9974 156.727 75.9453 157.011 75.9453C157.292 75.9453 157.541 75.9896 157.757 76.0781C157.973 76.1641 158.154 76.2852 158.3 76.4414C158.446 76.5977 158.557 76.7839 158.632 77C158.708 77.2161 158.745 77.4531 158.745 77.7109ZM157.777 77.5742C157.779 77.418 157.76 77.2826 157.718 77.168C157.676 77.0508 157.619 76.9544 157.546 76.8789C157.476 76.8034 157.392 76.7474 157.296 76.7109C157.202 76.6745 157.101 76.6562 156.991 76.6562C156.752 76.6562 156.555 76.737 156.402 76.8984C156.248 77.0573 156.157 77.2826 156.128 77.5742H157.777ZM162.425 80L161.518 78.6641L160.608 80H159.456L160.944 78L159.534 76.0312H160.694L161.585 77.3359L162.464 76.0312H163.534L162.167 77.9922L163.608 80H162.425Z" fill="#454D58"/>
<path d="M82 38V69C82 74.5228 86.4772 79 92 79H132" stroke="#454D58" stroke-width="3"/>
<path fill-rule="evenodd" clip-rule="evenodd" d="M137 79L132 83V75L137 79Z" fill="#454D58"/>
<path d="M90.1133 71.9453C90.1133 72.3099 90.0612 72.625 89.957 72.8906C89.8555 73.1562 89.7122 73.3776 89.5273 73.5547C89.3451 73.7292 89.1289 73.8594 88.8789 73.9453C88.6289 74.0286 88.3568 74.0703 88.0625 74.0703C87.7734 74.0703 87.5039 74.0482 87.2539 74.0039C87.0065 73.9622 86.7695 73.9049 86.543 73.832V68.4805H87.4961V69.7773L87.457 70.5586C87.6003 70.3737 87.7669 70.2253 87.957 70.1133C88.1497 70.0013 88.3802 69.9453 88.6484 69.9453C88.8828 69.9453 89.0911 69.9922 89.2734 70.0859C89.4557 70.1797 89.6081 70.3138 89.7305 70.4883C89.8555 70.6602 89.9505 70.8698 90.0156 71.1172C90.0807 71.362 90.1133 71.638 90.1133 71.9453ZM89.1133 71.9844C89.1133 71.7656 89.0977 71.5794 89.0664 71.4258C89.0352 71.2721 88.9896 71.1458 88.9297 71.0469C88.8724 70.9479 88.8008 70.8763 88.7148 70.832C88.6315 70.7852 88.5352 70.7617 88.4258 70.7617C88.2643 70.7617 88.1094 70.8268 87.9609 70.957C87.8151 71.0872 87.6602 71.2643 87.4961 71.4883V73.2227C87.5716 73.2513 87.6641 73.2747 87.7734 73.293C87.8854 73.3112 87.9987 73.3203 88.1133 73.3203C88.2643 73.3203 88.401 73.2891 88.5234 73.2266C88.6484 73.1641 88.7539 73.0755 88.8398 72.9609C88.9284 72.8464 88.9961 72.707 89.043 72.543C89.0898 72.3763 89.1133 72.1901 89.1133 71.9844ZM92.0701 70.0312V72.6172C92.0701 72.8333 92.1104 72.9974 92.1911 73.1094C92.2719 73.2188 92.3943 73.2734 92.5583 73.2734C92.7172 73.2734 92.8695 73.2083 93.0154 73.0781C93.1638 72.9453 93.3201 72.7669 93.4841 72.543V70.0312H94.4372V74H93.613L93.5896 73.4141C93.5063 73.5156 93.4216 73.6081 93.3357 73.6914C93.2497 73.7747 93.156 73.8464 93.0544 73.9062C92.9555 73.9635 92.8461 74.0078 92.7263 74.0391C92.6091 74.0729 92.4789 74.0898 92.3357 74.0898C92.1326 74.0898 91.9542 74.0573 91.8005 73.9922C91.6495 73.9245 91.5232 73.8294 91.4216 73.707C91.3201 73.5846 91.2432 73.4388 91.1911 73.2695C91.1417 73.0977 91.1169 72.9062 91.1169 72.6953V70.0312H92.0701ZM99.269 69.2891C99.1544 69.2526 99.0177 69.2227 98.8589 69.1992C98.7026 69.1732 98.5424 69.1602 98.3784 69.1602C98.2664 69.1602 98.1622 69.1758 98.0659 69.207C97.9695 69.2357 97.8862 69.2826 97.8159 69.3477C97.7456 69.4128 97.6896 69.4961 97.6479 69.5977C97.6089 69.6966 97.5893 69.8177 97.5893 69.9609V70.6016H99.1479V71.3438H97.5893V74H96.6284V71.3438H95.476V70.6016H96.6284V70C96.6284 69.7188 96.6688 69.4779 96.7495 69.2773C96.8328 69.0742 96.9487 68.9089 97.0971 68.7812C97.2482 68.651 97.4292 68.556 97.6401 68.4961C97.851 68.4362 98.0867 68.4062 98.3471 68.4062C98.519 68.4062 98.6818 68.418 98.8354 68.4414C98.9917 68.4622 99.1362 68.4883 99.269 68.5195V69.2891ZM107.237 74V71.4141C107.237 70.9792 107.076 70.7617 106.753 70.7617C106.591 70.7617 106.436 70.8268 106.288 70.957C106.142 71.0872 105.987 71.2643 105.823 71.4883V74H104.87V70.0312H105.694L105.718 70.6172C105.798 70.5156 105.882 70.4232 105.968 70.3398C106.056 70.2565 106.151 70.1862 106.253 70.1289C106.354 70.069 106.464 70.0234 106.581 69.9922C106.698 69.9609 106.83 69.9453 106.976 69.9453C107.179 69.9453 107.356 69.9792 107.507 70.0469C107.658 70.112 107.784 70.2057 107.886 70.3281C107.987 70.4479 108.063 70.5938 108.112 70.7656C108.164 70.9349 108.19 71.125 108.19 71.3359V74H107.237ZM113.026 71.9844C113.026 72.2969 112.982 72.5833 112.893 72.8438C112.805 73.1016 112.677 73.3229 112.51 73.5078C112.344 73.6927 112.139 73.8359 111.897 73.9375C111.655 74.0391 111.379 74.0898 111.069 74.0898C110.775 74.0898 110.512 74.0469 110.28 73.9609C110.048 73.875 109.852 73.7474 109.69 73.5781C109.529 73.4062 109.405 73.1927 109.319 72.9375C109.233 72.6797 109.19 72.3802 109.19 72.0391C109.19 71.724 109.234 71.4375 109.323 71.1797C109.414 70.9219 109.543 70.7018 109.71 70.5195C109.879 70.3372 110.085 70.1966 110.327 70.0977C110.569 69.9961 110.842 69.9453 111.147 69.9453C111.444 69.9453 111.708 69.9896 111.94 70.0781C112.172 70.1641 112.368 70.293 112.53 70.4648C112.691 70.6367 112.814 70.8503 112.897 71.1055C112.983 71.3581 113.026 71.651 113.026 71.9844ZM112.034 72.0078C112.034 71.5964 111.956 71.2878 111.799 71.082C111.646 70.8737 111.418 70.7695 111.116 70.7695C110.949 70.7695 110.807 70.8021 110.69 70.8672C110.573 70.9323 110.477 71.0221 110.401 71.1367C110.326 71.2487 110.27 71.3802 110.233 71.5312C110.199 71.6823 110.182 71.8438 110.182 72.0156C110.182 72.4297 110.266 72.7422 110.432 72.9531C110.599 73.1615 110.827 73.2656 111.116 73.2656C111.275 73.2656 111.413 73.2344 111.53 73.1719C111.647 73.1068 111.742 73.0182 111.815 72.9062C111.888 72.7917 111.943 72.6576 111.979 72.5039C112.016 72.3503 112.034 72.1849 112.034 72.0078ZM117.307 73.9609C117.135 74 116.962 74.0312 116.788 74.0547C116.613 74.0781 116.448 74.0898 116.291 74.0898C116.031 74.0898 115.806 74.0625 115.616 74.0078C115.428 73.9531 115.272 73.8698 115.147 73.7578C115.024 73.6458 114.933 73.5039 114.873 73.332C114.816 73.1576 114.788 72.9505 114.788 72.7109V70.7734H113.721V70.0312H114.788V69.0156L115.764 68.7617V70.0312H117.307V70.7734H115.764V72.6406C115.764 72.8672 115.816 73.0391 115.92 73.1562C116.024 73.2708 116.199 73.3281 116.444 73.3281C116.6 73.3281 116.752 73.3151 116.901 73.2891C117.049 73.263 117.185 73.2331 117.307 73.1992V73.9609ZM126.76 69.2891C126.645 69.2526 126.508 69.2227 126.349 69.1992C126.193 69.1732 126.033 69.1602 125.869 69.1602C125.757 69.1602 125.653 69.1758 125.557 69.207C125.46 69.2357 125.377 69.2826 125.307 69.3477C125.236 69.4128 125.18 69.4961 125.139 69.5977C125.099 69.6966 125.08 69.8177 125.08 69.9609V70.6016H126.639V71.3438H125.08V74H124.119V71.3438H122.967V70.6016H124.119V70C124.119 69.7188 124.159 69.4779 124.24 69.2773C124.323 69.0742 124.439 68.9089 124.588 68.7812C124.739 68.651 124.92 68.556 125.131 68.4961C125.342 68.4362 125.577 68.4062 125.838 68.4062C126.01 68.4062 126.172 68.418 126.326 68.4414C126.482 68.4622 126.627 68.4883 126.76 68.5195V69.2891ZM128.724 70.0312V72.6172C128.724 72.8333 128.765 72.9974 128.845 73.1094C128.926 73.2188 129.048 73.2734 129.213 73.2734C129.371 73.2734 129.524 73.2083 129.67 73.0781C129.818 72.9453 129.974 72.7669 130.138 72.543V70.0312H131.091V74H130.267L130.244 73.4141C130.16 73.5156 130.076 73.6081 129.99 73.6914C129.904 73.7747 129.81 73.8464 129.709 73.9062C129.61 73.9635 129.5 74.0078 129.38 74.0391C129.263 74.0729 129.133 74.0898 128.99 74.0898C128.787 74.0898 128.608 74.0573 128.455 73.9922C128.304 73.9245 128.177 73.8294 128.076 73.707C127.974 73.5846 127.897 73.4388 127.845 73.2695C127.796 73.0977 127.771 72.9062 127.771 72.6953V70.0312H128.724ZM133.642 69.2227H132.521V68.4805H134.618V73.2578H135.763V74H132.384V73.2578H133.642V69.2227ZM138.224 69.2227H137.103V68.4805H139.2V73.2578H140.345V74H136.966V73.2578H138.224V69.2227Z" fill="#454D58"/>
<path d="M88.1133 106.945C88.1133 107.31 88.0612 107.625 87.957 107.891C87.8555 108.156 87.7122 108.378 87.5273 108.555C87.3451 108.729 87.1289 108.859 86.8789 108.945C86.6289 109.029 86.3568 109.07 86.0625 109.07C85.7734 109.07 85.5039 109.048 85.2539 109.004C85.0065 108.962 84.7695 108.905 84.543 108.832V103.48H85.4961V104.777L85.457 105.559C85.6003 105.374 85.7669 105.225 85.957 105.113C86.1497 105.001 86.3802 104.945 86.6484 104.945C86.8828 104.945 87.0911 104.992 87.2734 105.086C87.4557 105.18 87.6081 105.314 87.7305 105.488C87.8555 105.66 87.9505 105.87 88.0156 106.117C88.0807 106.362 88.1133 106.638 88.1133 106.945ZM87.1133 106.984C87.1133 106.766 87.0977 106.579 87.0664 106.426C87.0352 106.272 86.9896 106.146 86.9297 106.047C86.8724 105.948 86.8008 105.876 86.7148 105.832C86.6315 105.785 86.5352 105.762 86.4258 105.762C86.2643 105.762 86.1094 105.827 85.9609 105.957C85.8151 106.087 85.6602 106.264 85.4961 106.488V108.223C85.5716 108.251 85.6641 108.275 85.7734 108.293C85.8854 108.311 85.9987 108.32 86.1133 108.32C86.2643 108.32 86.401 108.289 86.5234 108.227C86.6484 108.164 86.7539 108.076 86.8398 107.961C86.9284 107.846 86.9961 107.707 87.043 107.543C87.0898 107.376 87.1133 107.19 87.1133 106.984ZM90.0701 105.031V107.617C90.0701 107.833 90.1104 107.997 90.1911 108.109C90.2719 108.219 90.3943 108.273 90.5583 108.273C90.7172 108.273 90.8695 108.208 91.0154 108.078C91.1638 107.945 91.3201 107.767 91.4841 107.543V105.031H92.4372V109H91.613L91.5896 108.414C91.5063 108.516 91.4216 108.608 91.3357 108.691C91.2497 108.775 91.156 108.846 91.0544 108.906C90.9555 108.964 90.8461 109.008 90.7263 109.039C90.6091 109.073 90.4789 109.09 90.3357 109.09C90.1326 109.09 89.9542 109.057 89.8005 108.992C89.6495 108.924 89.5232 108.829 89.4216 108.707C89.3201 108.585 89.2432 108.439 89.1911 108.27C89.1417 108.098 89.1169 107.906 89.1169 107.695V105.031H90.0701ZM97.269 104.289C97.1544 104.253 97.0177 104.223 96.8589 104.199C96.7026 104.173 96.5424 104.16 96.3784 104.16C96.2664 104.16 96.1622 104.176 96.0659 104.207C95.9695 104.236 95.8862 104.283 95.8159 104.348C95.7456 104.413 95.6896 104.496 95.6479 104.598C95.6089 104.697 95.5893 104.818 95.5893 104.961V105.602H97.1479V106.344H95.5893V109H94.6284V106.344H93.476V105.602H94.6284V105C94.6284 104.719 94.6688 104.478 94.7495 104.277C94.8328 104.074 94.9487 103.909 95.0971 103.781C95.2482 103.651 95.4292 103.556 95.6401 103.496C95.851 103.436 96.0867 103.406 96.3471 103.406C96.519 103.406 96.6818 103.418 96.8354 103.441C96.9917 103.462 97.1362 103.488 97.269 103.52V104.289ZM105.206 103.945C105.206 104.031 105.19 104.112 105.159 104.188C105.128 104.263 105.084 104.329 105.026 104.387C104.972 104.441 104.907 104.486 104.831 104.52C104.755 104.551 104.673 104.566 104.585 104.566C104.496 104.566 104.413 104.551 104.335 104.52C104.259 104.486 104.193 104.441 104.136 104.387C104.081 104.329 104.038 104.263 104.007 104.188C103.976 104.112 103.96 104.031 103.96 103.945C103.96 103.859 103.976 103.779 104.007 103.703C104.038 103.628 104.081 103.561 104.136 103.504C104.193 103.447 104.259 103.402 104.335 103.371C104.413 103.337 104.496 103.32 104.585 103.32C104.673 103.32 104.755 103.337 104.831 103.371C104.907 103.402 104.972 103.447 105.026 103.504C105.084 103.561 105.128 103.628 105.159 103.703C105.19 103.779 105.206 103.859 105.206 103.945ZM104.151 105.773H103.03V105.031H105.128V108.258H106.272V109H102.893V108.258H104.151V105.773ZM110.725 107.832C110.725 108.059 110.674 108.253 110.573 108.414C110.474 108.573 110.341 108.703 110.174 108.805C110.01 108.904 109.823 108.975 109.612 109.02C109.404 109.066 109.19 109.09 108.971 109.09C108.68 109.09 108.417 109.076 108.182 109.047C107.948 109.021 107.727 108.982 107.518 108.93V108.07C107.763 108.172 108.007 108.246 108.249 108.293C108.493 108.337 108.724 108.359 108.94 108.359C109.19 108.359 109.376 108.32 109.499 108.242C109.624 108.161 109.686 108.057 109.686 107.93C109.686 107.87 109.673 107.815 109.647 107.766C109.621 107.716 109.572 107.669 109.499 107.625C109.428 107.578 109.328 107.531 109.198 107.484C109.068 107.435 108.897 107.38 108.686 107.32C108.491 107.266 108.319 107.204 108.171 107.137C108.025 107.066 107.904 106.984 107.807 106.891C107.711 106.797 107.638 106.689 107.589 106.566C107.542 106.441 107.518 106.296 107.518 106.129C107.518 105.967 107.555 105.815 107.628 105.672C107.701 105.529 107.809 105.404 107.952 105.297C108.098 105.188 108.279 105.102 108.495 105.039C108.711 104.977 108.964 104.945 109.253 104.945C109.503 104.945 109.724 104.958 109.917 104.984C110.109 105.01 110.28 105.039 110.428 105.07V105.848C110.202 105.775 109.988 105.724 109.788 105.695C109.59 105.664 109.393 105.648 109.198 105.648C109.003 105.648 108.845 105.684 108.725 105.754C108.608 105.824 108.549 105.922 108.549 106.047C108.549 106.107 108.561 106.16 108.585 106.207C108.608 106.254 108.654 106.299 108.721 106.344C108.792 106.388 108.888 106.435 109.01 106.484C109.135 106.531 109.299 106.583 109.503 106.641C109.732 106.706 109.924 106.776 110.081 106.852C110.237 106.924 110.362 107.008 110.456 107.102C110.552 107.195 110.621 107.302 110.663 107.422C110.704 107.542 110.725 107.678 110.725 107.832ZM120.178 104.289C120.063 104.253 119.927 104.223 119.768 104.199C119.611 104.173 119.451 104.16 119.287 104.16C119.175 104.16 119.071 104.176 118.975 104.207C118.878 104.236 118.795 104.283 118.725 104.348C118.654 104.413 118.598 104.496 118.557 104.598C118.518 104.697 118.498 104.818 118.498 104.961V105.602H120.057V106.344H118.498V109H117.537V106.344H116.385V105.602H117.537V105C117.537 104.719 117.578 104.478 117.658 104.277C117.742 104.074 117.858 103.909 118.006 103.781C118.157 103.651 118.338 103.556 118.549 103.496C118.76 103.436 118.996 103.406 119.256 103.406C119.428 103.406 119.591 103.418 119.744 103.441C119.901 103.462 120.045 103.488 120.178 103.52V104.289ZM122.142 105.031V107.617C122.142 107.833 122.183 107.997 122.264 108.109C122.344 108.219 122.467 108.273 122.631 108.273C122.79 108.273 122.942 108.208 123.088 108.078C123.236 107.945 123.392 107.767 123.557 107.543V105.031H124.51V109H123.685L123.662 108.414C123.579 108.516 123.494 108.608 123.408 108.691C123.322 108.775 123.228 108.846 123.127 108.906C123.028 108.964 122.918 109.008 122.799 109.039C122.682 109.073 122.551 109.09 122.408 109.09C122.205 109.09 122.027 109.057 121.873 108.992C121.722 108.924 121.596 108.829 121.494 108.707C121.392 108.585 121.316 108.439 121.264 108.27C121.214 108.098 121.189 107.906 121.189 107.695V105.031H122.142ZM127.06 104.223H125.939V103.48H128.037V108.258H129.181V109H125.802V108.258H127.06V104.223ZM131.642 104.223H130.521V103.48H132.618V108.258H133.763V109H130.384V108.258H131.642V104.223Z" fill="#454D58"/>
<path d="M66.9297 52.5664C66.7917 52.9102 66.6471 53.2109 66.4961 53.4688C66.3477 53.7292 66.1836 53.9453 66.0039 54.1172C65.8242 54.2917 65.6237 54.4219 65.4023 54.5078C65.1836 54.5964 64.9375 54.6406 64.6641 54.6406C64.599 54.6406 64.5273 54.6367 64.4492 54.6289C64.3737 54.6237 64.2956 54.6146 64.2148 54.6016V53.793C64.2461 53.7982 64.2812 53.8034 64.3203 53.8086C64.362 53.8164 64.4049 53.8216 64.4492 53.8242C64.4935 53.8294 64.5378 53.8333 64.582 53.8359C64.6289 53.8385 64.6719 53.8398 64.7109 53.8398C64.8203 53.8398 64.9219 53.819 65.0156 53.7773C65.1094 53.7357 65.1953 53.6771 65.2734 53.6016C65.3542 53.5286 65.4271 53.4401 65.4922 53.3359C65.5573 53.2344 65.6146 53.1224 65.6641 53L64.0898 49.0312H65.1523L65.9766 51.2812L66.2227 52.0078L66.4648 51.3125L67.2969 49.0312H68.3203L66.9297 52.5664ZM72.5818 50.7109C72.5818 50.776 72.5792 50.8607 72.574 50.9648C72.5714 51.069 72.5661 51.1667 72.5583 51.2578H69.949C69.949 51.4323 69.975 51.5859 70.0271 51.7188C70.0818 51.8516 70.1573 51.9635 70.2536 52.0547C70.3526 52.1432 70.4698 52.2109 70.6052 52.2578C70.7432 52.3047 70.8956 52.3281 71.0622 52.3281C71.2549 52.3281 71.4607 52.3138 71.6794 52.2852C71.9008 52.2539 72.1299 52.2044 72.3669 52.1367V52.8945C72.2654 52.9232 72.1547 52.9492 72.0349 52.9727C71.9151 52.9961 71.7927 53.0169 71.6677 53.0352C71.5427 53.0534 71.4164 53.0664 71.2888 53.0742C71.1612 53.0846 71.0375 53.0898 70.9177 53.0898C70.6156 53.0898 70.3448 53.0469 70.1052 52.9609C69.8656 52.875 69.6625 52.7487 69.4958 52.582C69.3292 52.4128 69.2016 52.2044 69.113 51.957C69.0245 51.7096 68.9802 51.4232 68.9802 51.0977C68.9802 50.7747 69.0245 50.4818 69.113 50.2188C69.2016 49.9531 69.3266 49.7266 69.488 49.5391C69.6495 49.349 69.8448 49.2031 70.074 49.1016C70.3057 48.9974 70.5635 48.9453 70.8474 48.9453C71.1286 48.9453 71.3773 48.9896 71.5935 49.0781C71.8096 49.1641 71.9906 49.2852 72.1365 49.4414C72.2823 49.5977 72.393 49.7839 72.4685 50C72.544 50.2161 72.5818 50.4531 72.5818 50.7109ZM71.613 50.5742C71.6156 50.418 71.5961 50.2826 71.5544 50.168C71.5128 50.0508 71.4555 49.9544 71.3826 49.8789C71.3122 49.8034 71.2289 49.7474 71.1326 49.7109C71.0388 49.6745 70.9372 49.6562 70.8279 49.6562C70.5883 49.6562 70.3917 49.737 70.238 49.8984C70.0844 50.0573 69.9932 50.2826 69.9646 50.5742H71.613ZM76.9799 51.832C76.9799 52.0586 76.9292 52.2526 76.8276 52.4141C76.7286 52.5729 76.5958 52.7031 76.4292 52.8047C76.2651 52.9036 76.0776 52.9753 75.8667 53.0195C75.6583 53.0664 75.4448 53.0898 75.226 53.0898C74.9344 53.0898 74.6714 53.0755 74.437 53.0469C74.2026 53.0208 73.9813 52.9818 73.7729 52.9297V52.0703C74.0177 52.1719 74.2612 52.2461 74.5034 52.293C74.7482 52.3372 74.9786 52.3594 75.1948 52.3594C75.4448 52.3594 75.631 52.3203 75.7534 52.2422C75.8784 52.1615 75.9409 52.0573 75.9409 51.9297C75.9409 51.8698 75.9279 51.8151 75.9018 51.7656C75.8758 51.7161 75.8263 51.6693 75.7534 51.625C75.6831 51.5781 75.5828 51.5312 75.4526 51.4844C75.3224 51.4349 75.1518 51.3802 74.9409 51.3203C74.7456 51.2656 74.5737 51.2044 74.4253 51.1367C74.2794 51.0664 74.1583 50.9844 74.062 50.8906C73.9656 50.7969 73.8927 50.6888 73.8432 50.5664C73.7964 50.4414 73.7729 50.2956 73.7729 50.1289C73.7729 49.9674 73.8094 49.8151 73.8823 49.6719C73.9552 49.5286 74.0633 49.4036 74.2065 49.2969C74.3523 49.1875 74.5333 49.1016 74.7495 49.0391C74.9656 48.9766 75.2182 48.9453 75.5073 48.9453C75.7573 48.9453 75.9786 48.9583 76.1714 48.9844C76.3641 49.0104 76.5346 49.0391 76.6831 49.0703V49.8477C76.4565 49.7747 76.243 49.724 76.0424 49.6953C75.8445 49.6641 75.6479 49.6484 75.4526 49.6484C75.2573 49.6484 75.0997 49.6836 74.9799 49.7539C74.8628 49.8242 74.8042 49.9219 74.8042 50.0469C74.8042 50.1068 74.8159 50.1602 74.8393 50.207C74.8628 50.2539 74.9083 50.2995 74.976 50.3438C75.0464 50.388 75.1427 50.4349 75.2651 50.4844C75.3901 50.5312 75.5542 50.5833 75.7573 50.6406C75.9865 50.7057 76.1792 50.776 76.3354 50.8516C76.4917 50.9245 76.6167 51.0078 76.7104 51.1016C76.8068 51.1953 76.8758 51.3021 76.9174 51.4219C76.9591 51.5417 76.9799 51.6784 76.9799 51.832Z" fill="#454D58"/>
</svg>
